<?xml version='1.0' encoding='utf-8'?>
<mlt LC_NUMERIC="en_GB.UTF-8" producer="main_bin" version="6.21.0" root="/home/toothlexx/Videos">
 <profile frame_rate_num="30" sample_aspect_num="1" display_aspect_den="9" colorspace="709" progressive="1" description="HD 1080p 30 fps" display_aspect_num="16" frame_rate_den="1" width="1920" height="1080" sample_aspect_den="1"/>
 <producer id="producer0" in="00:00:00.000" out="00:00:04.967">
  <property name="length">150</property>
  <property name="eof">pause</property>
  <property name="resource">/home/toothlexx/Desktop/Golden Rule Video Content/Parts/Introdution.mp4</property>
  <property name="audio_index">-1</property>
  <property name="video_index">0</property>
  <property name="mute_on_pause">0</property>
  <property name="mlt_service">avformat-novalidate</property>
  <property name="seekable">1</property>
  <property name="aspect_ratio">1</property>
  <property name="kdenlive:clipname"/>
  <property name="kdenlive:folderid">-1</property>
  <property name="kdenlive:id">2</property>
  <property name="kdenlive:file_size">97587</property>
  <property name="kdenlive:file_hash">1d9517e1cd9a3639a64d7628299701de</property>
  <property name="global_feed">1</property>
  <property name="meta.media.nb_streams">1</property>
  <property name="meta.media.0.stream.type">video</property>
  <property name="meta.media.0.stream.frame_rate">30</property>
  <property name="meta.media.0.stream.sample_aspect_ratio">1</property>
  <property name="meta.media.0.codec.width">1920</property>
  <property name="meta.media.0.codec.height">1080</property>
  <property name="meta.media.0.codec.rotate">0</property>
  <property name="meta.media.0.codec.frame_rate">30</property>
  <property name="meta.media.0.codec.pix_fmt">yuv420p</property>
  <property name="meta.media.0.codec.sample_aspect_ratio">1</property>
  <property name="meta.media.0.codec.colorspace">709</property>
  <property name="meta.media.0.codec.color_trc">1</property>
  <property name="meta.media.0.codec.name">h264</property>
  <property name="meta.media.0.codec.long_name">H.264 / AVC / MPEG-4 AVC / MPEG-4 part 10</property>
  <property name="meta.media.0.codec.bit_rate">151889</property>
  <property name="meta.attr.0.stream.handler_name.markup">VideoHandler</property>
  <property name="meta.attr.major_brand.markup">isom</property>
  <property name="meta.attr.minor_version.markup">512</property>
  <property name="meta.attr.compatible_brands.markup">isomiso2avc1mp41</property>
  <property name="meta.attr.encoder.markup">Lavf58.29.100</property>
  <property name="meta.media.sample_aspect_num">1</property>
  <property name="meta.media.sample_aspect_den">1</property>
  <property name="meta.media.frame_rate_num">30</property>
  <property name="meta.media.frame_rate_den">1</property>
  <property name="meta.media.colorspace">709</property>
  <property name="meta.media.color_trc">1</property>
  <property name="meta.media.width">1920</property>
  <property name="meta.media.height">1080</property>
  <property name="meta.media.color_range">mpeg</property>
 </producer>
 <producer id="producer1" in="00:00:00.000" out="00:00:39.567">
  <property name="length">1188</property>
  <property name="eof">pause</property>
  <property name="resource">/home/toothlexx/Desktop/Golden Rule Video Content/Parts/lot of websites.mp4</property>
  <property name="audio_index">-1</property>
  <property name="video_index">0</property>
  <property name="mute_on_pause">0</property>
  <property name="mlt_service">avformat-novalidate</property>
  <property name="seekable">1</property>
  <property name="aspect_ratio">1</property>
  <property name="kdenlive:clipname"/>
  <property name="kdenlive:folderid">-1</property>
  <property name="kdenlive:id">3</property>
  <property name="kdenlive:file_size">10157447</property>
  <property name="kdenlive:file_hash">566cd96956e650f61c97ea25e8fcc82e</property>
  <property name="global_feed">1</property>
  <property name="meta.media.nb_streams">1</property>
  <property name="meta.media.0.stream.type">video</property>
  <property name="meta.media.0.stream.frame_rate">60</property>
  <property name="meta.media.0.stream.sample_aspect_ratio">1</property>
  <property name="meta.media.0.codec.width">1366</property>
  <property name="meta.media.0.codec.height">740</property>
  <property name="meta.media.0.codec.rotate">0</property>
  <property name="meta.media.0.codec.frame_rate">60</property>
  <property name="meta.media.0.codec.pix_fmt">yuv444p</property>
  <property name="meta.media.0.codec.sample_aspect_ratio">1</property>
  <property name="meta.media.0.codec.colorspace">709</property>
  <property name="meta.media.0.codec.color_trc">1</property>
  <property name="meta.media.0.codec.name">h264</property>
  <property name="meta.media.0.codec.long_name">H.264 / AVC / MPEG-4 AVC / MPEG-4 part 10</property>
  <property name="meta.media.0.codec.bit_rate">2049900</property>
  <property name="meta.attr.0.stream.creation_time.markup">2020-08-06T03:58:17.000000Z</property>
  <property name="meta.attr.0.stream.handler_name.markup">VideoHandler</property>
  <property name="meta.attr.major_brand.markup">mp42</property>
  <property name="meta.attr.minor_version.markup">0</property>
  <property name="meta.attr.compatible_brands.markup">mp42mp41isomiso2</property>
  <property name="meta.attr.creation_time.markup">2020-08-06T03:58:17.000000Z</property>
  <property name="meta.attr.encoder.markup">x264</property>
  <property name="meta.media.sample_aspect_num">1</property>
  <property name="meta.media.sample_aspect_den">1</property>
  <property name="meta.media.frame_rate_num">60</property>
  <property name="meta.media.frame_rate_den">1</property>
  <property name="meta.media.colorspace">709</property>
  <property name="meta.media.color_trc">1</property>
  <property name="meta.media.width">1366</property>
  <property name="meta.media.height">740</property>
  <property name="meta.media.color_range">mpeg</property>
 </producer>
 <producer id="producer2" in="00:00:00.000" out="00:00:04.967">
  <property name="length">150</property>
  <property name="eof">pause</property>
  <property name="resource">/home/toothlexx/Desktop/Golden Rule Video Content/Parts/Eight Golder Rule Part.mp4</property>
  <property name="audio_index">-1</property>
  <property name="video_index">0</property>
  <property name="mute_on_pause">0</property>
  <property name="mlt_service">avformat-novalidate</property>
  <property name="seekable">1</property>
  <property name="aspect_ratio">1</property>
  <property name="kdenlive:clipname"/>
  <property name="kdenlive:folderid">-1</property>
  <property name="kdenlive:id">4</property>
  <property name="kdenlive:file_size">851760</property>
  <property name="kdenlive:file_hash">a99d9816ff411e8756625a7e95a1e1a6</property>
  <property name="global_feed">1</property>
  <property name="meta.media.nb_streams">1</property>
  <property name="meta.media.0.stream.type">video</property>
  <property name="meta.media.0.stream.frame_rate">30</property>
  <property name="meta.media.0.stream.sample_aspect_ratio">1</property>
  <property name="meta.media.0.codec.width">1920</property>
  <property name="meta.media.0.codec.height">1080</property>
  <property name="meta.media.0.codec.rotate">0</property>
  <property name="meta.media.0.codec.frame_rate">30</property>
  <property name="meta.media.0.codec.pix_fmt">yuv420p</property>
  <property name="meta.media.0.codec.sample_aspect_ratio">1</property>
  <property name="meta.media.0.codec.colorspace">709</property>
  <property name="meta.media.0.codec.color_trc">1</property>
  <property name="meta.media.0.codec.name">h264</property>
  <property name="meta.media.0.codec.long_name">H.264 / AVC / MPEG-4 AVC / MPEG-4 part 10</property>
  <property name="meta.media.0.codec.bit_rate">1358720</property>
  <property name="meta.attr.0.stream.handler_name.markup">VideoHandler</property>
  <property name="meta.attr.major_brand.markup">isom</property>
  <property name="meta.attr.minor_version.markup">512</property>
  <property name="meta.attr.compatible_brands.markup">isomiso2avc1mp41</property>
  <property name="meta.attr.encoder.markup">Lavf58.29.100</property>
  <property name="meta.media.sample_aspect_num">1</property>
  <property name="meta.media.sample_aspect_den">1</property>
  <property name="meta.media.frame_rate_num">30</property>
  <property name="meta.media.frame_rate_den">1</property>
  <property name="meta.media.colorspace">709</property>
  <property name="meta.media.color_trc">1</property>
  <property name="meta.media.width">1920</property>
  <property name="meta.media.height">1080</property>
  <property name="meta.media.color_range">mpeg</property>
  <property name="meta.media.top_field_first">0</property>
  <property name="meta.media.progressive">1</property>
 </producer>
 <producer id="producer3" in="00:00:00.000" out="00:00:38.933">
  <property name="length">1169</property>
  <property name="eof">pause</property>
  <property name="resource">/home/toothlexx/Desktop/Golden Rule Video Content/Audio/Introdution part1_data/Introdution part1.mp3</property>
  <property name="meta.media.nb_streams">1</property>
  <property name="meta.media.0.stream.type">audio</property>
  <property name="meta.media.0.codec.sample_fmt">fltp</property>
  <property name="meta.media.0.codec.sample_rate">44100</property>
  <property name="meta.media.0.codec.channels">2</property>
  <property name="meta.media.0.codec.name">mp3float</property>
  <property name="meta.media.0.codec.long_name">MP3 (MPEG audio layer 3)</property>
  <property name="meta.media.0.codec.bit_rate">320000</property>
  <property name="meta.attr.0.stream.encoder.markup">LAME3.100</property>
  <property name="meta.attr.artist.markup">Prajeet</property>
  <property name="seekable">1</property>
  <property name="audio_index">0</property>
  <property name="video_index">-1</property>
  <property name="mute_on_pause">1</property>
  <property name="mlt_service">avformat</property>
  <property name="kdenlive:clipname"/>
  <property name="kdenlive:folderid">-1</property>
  <property name="kdenlive:id">5</property>
  <property name="kdenlive:file_size">1560071</property>
  <property name="kdenlive:file_hash">63ea4d4ea4100d3e157eed071925e67f</property>
  <property name="global_feed">1</property>
 </producer>
 <producer id="producer4" in="00:00:00.000" out="00:00:04.967">
  <property name="length">150</property>
  <property name="eof">pause</property>
  <property name="resource">/home/toothlexx/Desktop/Golden Rule Video Content/Parts/Rule1clip.mp4</property>
  <property name="audio_index">-1</property>
  <property name="video_index">0</property>
  <property name="mute_on_pause">0</property>
  <property name="mlt_service">avformat-novalidate</property>
  <property name="meta.media.nb_streams">1</property>
  <property name="meta.media.0.stream.type">video</property>
  <property name="meta.media.0.stream.frame_rate">30</property>
  <property name="meta.media.0.stream.sample_aspect_ratio">1</property>
  <property name="meta.media.0.codec.width">1920</property>
  <property name="meta.media.0.codec.height">1080</property>
  <property name="meta.media.0.codec.rotate">0</property>
  <property name="meta.media.0.codec.frame_rate">30</property>
  <property name="meta.media.0.codec.pix_fmt">yuv420p</property>
  <property name="meta.media.0.codec.sample_aspect_ratio">1</property>
  <property name="meta.media.0.codec.colorspace">709</property>
  <property name="meta.media.0.codec.color_trc">1</property>
  <property name="meta.media.0.codec.name">h264</property>
  <property name="meta.media.0.codec.long_name">H.264 / AVC / MPEG-4 AVC / MPEG-4 part 10</property>
  <property name="meta.media.0.codec.bit_rate">1592404</property>
  <property name="meta.attr.0.stream.handler_name.markup">VideoHandler</property>
  <property name="meta.attr.major_brand.markup">isom</property>
  <property name="meta.attr.minor_version.markup">512</property>
  <property name="meta.attr.compatible_brands.markup">isomiso2avc1mp41</property>
  <property name="meta.attr.encoder.markup">Lavf58.29.100</property>
  <property name="seekable">1</property>
  <property name="meta.media.sample_aspect_num">1</property>
  <property name="meta.media.sample_aspect_den">1</property>
  <property name="aspect_ratio">1</property>
  <property name="kdenlive:clipname"/>
  <property name="kdenlive:folderid">-1</property>
  <property name="meta.media.frame_rate_num">30</property>
  <property name="meta.media.frame_rate_den">1</property>
  <property name="meta.media.colorspace">709</property>
  <property name="meta.media.color_trc">1</property>
  <property name="meta.media.width">1920</property>
  <property name="meta.media.height">1080</property>
  <property name="meta.media.color_range">mpeg</property>
  <property name="kdenlive:id">6</property>
  <property name="kdenlive:file_size">997849</property>
  <property name="kdenlive:file_hash">9ba120bc99e57d33d0c7df16fedf8644</property>
  <property name="meta.media.top_field_first">0</property>
  <property name="meta.media.progressive">1</property>
  <property name="global_feed">1</property>
 </producer>
 <producer id="producer5" in="00:00:00.000" out="00:00:42.967">
  <property name="length">1290</property>
  <property name="eof">pause</property>
  <property name="resource">/home/toothlexx/Desktop/Golden Rule Video Content/Audio/rule1.mp3</property>
  <property name="meta.media.nb_streams">1</property>
  <property name="meta.media.0.stream.type">audio</property>
  <property name="meta.media.0.codec.sample_fmt">fltp</property>
  <property name="meta.media.0.codec.sample_rate">44100</property>
  <property name="meta.media.0.codec.channels">2</property>
  <property name="meta.media.0.codec.name">mp3float</property>
  <property name="meta.media.0.codec.long_name">MP3 (MPEG audio layer 3)</property>
  <property name="meta.media.0.codec.bit_rate">320000</property>
  <property name="meta.attr.0.stream.encoder.markup">LAME3.100</property>
  <property name="meta.attr.artist.markup">Prajeet</property>
  <property name="seekable">1</property>
  <property name="audio_index">0</property>
  <property name="video_index">-1</property>
  <property name="mute_on_pause">1</property>
  <property name="mlt_service">avformat</property>
  <property name="kdenlive:clipname"/>
  <property name="kdenlive:folderid">-1</property>
  <property name="kdenlive:id">7</property>
  <property name="kdenlive:file_size">1720986</property>
  <property name="kdenlive:file_hash">5662ee781122faf8a12b56de74743f40</property>
  <property name="global_feed">1</property>
 </producer>
 <producer id="producer6" in="00:00:00.000" out="00:00:31.533">
  <property name="length">947</property>
  <property name="eof">pause</property>
  <property name="resource">/home/toothlexx/Desktop/Golden Rule Video Content/Parts/Rule1 example.mp4</property>
  <property name="audio_index">-1</property>
  <property name="video_index">0</property>
  <property name="mute_on_pause">0</property>
  <property name="mlt_service">avformat-novalidate</property>
  <property name="meta.media.nb_streams">1</property>
  <property name="meta.media.0.stream.type">video</property>
  <property name="meta.media.0.stream.frame_rate">60</property>
  <property name="meta.media.0.stream.sample_aspect_ratio">1</property>
  <property name="meta.media.0.codec.width">1366</property>
  <property name="meta.media.0.codec.height">740</property>
  <property name="meta.media.0.codec.rotate">0</property>
  <property name="meta.media.0.codec.frame_rate">60</property>
  <property name="meta.media.0.codec.pix_fmt">yuv444p</property>
  <property name="meta.media.0.codec.sample_aspect_ratio">1</property>
  <property name="meta.media.0.codec.colorspace">709</property>
  <property name="meta.media.0.codec.color_trc">1</property>
  <property name="meta.media.0.codec.name">h264</property>
  <property name="meta.media.0.codec.long_name">H.264 / AVC / MPEG-4 AVC / MPEG-4 part 10</property>
  <property name="meta.media.0.codec.bit_rate">4220344</property>
  <property name="meta.attr.0.stream.creation_time.markup">2020-08-06T02:21:36.000000Z</property>
  <property name="meta.attr.0.stream.handler_name.markup">VideoHandler</property>
  <property name="meta.attr.major_brand.markup">mp42</property>
  <property name="meta.attr.minor_version.markup">0</property>
  <property name="meta.attr.compatible_brands.markup">mp42mp41isomiso2</property>
  <property name="meta.attr.creation_time.markup">2020-08-06T02:21:36.000000Z</property>
  <property name="meta.attr.encoder.markup">x264</property>
  <property name="seekable">1</property>
  <property name="meta.media.sample_aspect_num">1</property>
  <property name="meta.media.sample_aspect_den">1</property>
  <property name="aspect_ratio">1</property>
  <property name="kdenlive:clipname"/>
  <property name="kdenlive:folderid">-1</property>
  <property name="meta.media.frame_rate_num">60</property>
  <property name="meta.media.frame_rate_den">1</property>
  <property name="meta.media.colorspace">709</property>
  <property name="meta.media.color_trc">1</property>
  <property name="meta.media.width">1366</property>
  <property name="meta.media.height">740</property>
  <property name="meta.media.color_range">mpeg</property>
  <property name="kdenlive:id">8</property>
  <property name="kdenlive:file_size">16670083</property>
  <property name="kdenlive:file_hash">46789e393eb881bdd7117f9f2b3c1fd2</property>
  <property name="meta.media.top_field_first">0</property>
  <property name="meta.media.progressive">1</property>
  <property name="global_feed">1</property>
 </producer>
 <producer id="producer7" in="00:00:00.000" out="00:00:23.833">
  <property name="length">716</property>
  <property name="eof">pause</property>
  <property name="resource">/home/toothlexx/Desktop/Golden Rule Video Content/Parts/Rule1shortcut.mp4</property>
  <property name="audio_index">-1</property>
  <property name="video_index">0</property>
  <property name="mute_on_pause">0</property>
  <property name="mlt_service">avformat-novalidate</property>
  <property name="meta.media.nb_streams">1</property>
  <property name="meta.media.0.stream.type">video</property>
  <property name="meta.media.0.stream.frame_rate">60</property>
  <property name="meta.media.0.stream.sample_aspect_ratio">1</property>
  <property name="meta.media.0.codec.width">1366</property>
  <property name="meta.media.0.codec.height">740</property>
  <property name="meta.media.0.codec.rotate">0</property>
  <property name="meta.media.0.codec.frame_rate">60</property>
  <property name="meta.media.0.codec.pix_fmt">yuv444p</property>
  <property name="meta.media.0.codec.sample_aspect_ratio">1</property>
  <property name="meta.media.0.codec.colorspace">709</property>
  <property name="meta.media.0.codec.color_trc">1</property>
  <property name="meta.media.0.codec.name">h264</property>
  <property name="meta.media.0.codec.long_name">H.264 / AVC / MPEG-4 AVC / MPEG-4 part 10</property>
  <property name="meta.media.0.codec.bit_rate">819014</property>
  <property name="meta.attr.0.stream.creation_time.markup">2020-08-06T02:43:49.000000Z</property>
  <property name="meta.attr.0.stream.handler_name.markup">VideoHandler</property>
  <property name="meta.attr.major_brand.markup">mp42</property>
  <property name="meta.attr.minor_version.markup">0</property>
  <property name="meta.attr.compatible_brands.markup">mp42mp41isomiso2</property>
  <property name="meta.attr.creation_time.markup">2020-08-06T02:43:49.000000Z</property>
  <property name="meta.attr.encoder.markup">x264</property>
  <property name="seekable">1</property>
  <property name="meta.media.sample_aspect_num">1</property>
  <property name="meta.media.sample_aspect_den">1</property>
  <property name="aspect_ratio">1</property>
  <property name="kdenlive:clipname"/>
  <property name="kdenlive:folderid">-1</property>
  <property name="meta.media.frame_rate_num">60</property>
  <property name="meta.media.frame_rate_den">1</property>
  <property name="meta.media.colorspace">709</property>
  <property name="meta.media.color_trc">1</property>
  <property name="meta.media.width">1366</property>
  <property name="meta.media.height">740</property>
  <property name="meta.media.color_range">mpeg</property>
  <property name="kdenlive:id">9</property>
  <property name="kdenlive:file_size">2450052</property>
  <property name="kdenlive:file_hash">ec2294277fb01891288cced9e868fc9f</property>
  <property name="meta.media.top_field_first">0</property>
  <property name="meta.media.progressive">1</property>
  <property name="global_feed">1</property>
 </producer>
 <producer id="producer8" in="00:00:00.000" out="00:00:05.733">
  <property name="length">173</property>
  <property name="eof">pause</property>
  <property name="resource">/home/toothlexx/Downloads/fontalignmentcolor.mp4</property>
  <property name="audio_index">-1</property>
  <property name="video_index">0</property>
  <property name="mute_on_pause">0</property>
  <property name="mlt_service">avformat-novalidate</property>
  <property name="meta.media.nb_streams">1</property>
  <property name="meta.media.0.stream.type">video</property>
  <property name="meta.media.0.stream.frame_rate">30</property>
  <property name="meta.media.0.stream.sample_aspect_ratio">1</property>
  <property name="meta.media.0.codec.width">1920</property>
  <property name="meta.media.0.codec.height">1080</property>
  <property name="meta.media.0.codec.rotate">0</property>
  <property name="meta.media.0.codec.frame_rate">30</property>
  <property name="meta.media.0.codec.pix_fmt">yuv420p</property>
  <property name="meta.media.0.codec.sample_aspect_ratio">1</property>
  <property name="meta.media.0.codec.colorspace">709</property>
  <property name="meta.media.0.codec.color_trc">1</property>
  <property name="meta.media.0.codec.name">h264</property>
  <property name="meta.media.0.codec.long_name">H.264 / AVC / MPEG-4 AVC / MPEG-4 part 10</property>
  <property name="meta.media.0.codec.bit_rate">1296346</property>
  <property name="meta.attr.0.stream.handler_name.markup">VideoHandler</property>
  <property name="meta.attr.major_brand.markup">isom</property>
  <property name="meta.attr.minor_version.markup">512</property>
  <property name="meta.attr.compatible_brands.markup">isomiso2avc1mp41</property>
  <property name="meta.attr.encoder.markup">Lavf58.29.100</property>
  <property name="seekable">1</property>
  <property name="meta.media.sample_aspect_num">1</property>
  <property name="meta.media.sample_aspect_den">1</property>
  <property name="aspect_ratio">1</property>
  <property name="kdenlive:clipname"/>
  <property name="kdenlive:folderid">-1</property>
  <property name="meta.media.frame_rate_num">30</property>
  <property name="meta.media.frame_rate_den">1</property>
  <property name="meta.media.colorspace">709</property>
  <property name="meta.media.color_trc">1</property>
  <property name="meta.media.width">1920</property>
  <property name="meta.media.height">1080</property>
  <property name="meta.media.color_range">mpeg</property>
  <property name="kdenlive:id">10</property>
  <property name="kdenlive:file_size">937230</property>
  <property name="kdenlive:file_hash">ba24de9b5a02f970396787d8f71f9e60</property>
  <property name="meta.media.top_field_first">0</property>
  <property name="meta.media.progressive">1</property>
  <property name="global_feed">1</property>
 </producer>
 <producer id="producer9" in="00:00:00.000" out="00:00:11.467">
  <property name="length">345</property>
  <property name="eof">pause</property>
  <property name="resource">/home/toothlexx/Downloads/part1 dont change.mp4</property>
  <property name="audio_index">-1</property>
  <property name="video_index">0</property>
  <property name="mute_on_pause">0</property>
  <property name="mlt_service">avformat-novalidate</property>
  <property name="meta.media.nb_streams">1</property>
  <property name="meta.media.0.stream.type">video</property>
  <property name="meta.media.0.stream.frame_rate">30</property>
  <property name="meta.media.0.stream.sample_aspect_ratio">1</property>
  <property name="meta.media.0.codec.width">1920</property>
  <property name="meta.media.0.codec.height">1080</property>
  <property name="meta.media.0.codec.rotate">0</property>
  <property name="meta.media.0.codec.frame_rate">30</property>
  <property name="meta.media.0.codec.pix_fmt">yuv420p</property>
  <property name="meta.media.0.codec.sample_aspect_ratio">1</property>
  <property name="meta.media.0.codec.colorspace">709</property>
  <property name="meta.media.0.codec.color_trc">1</property>
  <property name="meta.media.0.codec.name">h264</property>
  <property name="meta.media.0.codec.long_name">H.264 / AVC / MPEG-4 AVC / MPEG-4 part 10</property>
  <property name="meta.media.0.codec.bit_rate">3115257</property>
  <property name="meta.attr.0.stream.handler_name.markup">VideoHandler</property>
  <property name="meta.attr.major_brand.markup">isom</property>
  <property name="meta.attr.minor_version.markup">512</property>
  <property name="meta.attr.compatible_brands.markup">isomiso2avc1mp41</property>
  <property name="meta.attr.encoder.markup">Lavf58.29.100</property>
  <property name="seekable">1</property>
  <property name="meta.media.sample_aspect_num">1</property>
  <property name="meta.media.sample_aspect_den">1</property>
  <property name="aspect_ratio">1</property>
  <property name="kdenlive:clipname"/>
  <property name="kdenlive:folderid">-1</property>
  <property name="meta.media.frame_rate_num">30</property>
  <property name="meta.media.frame_rate_den">1</property>
  <property name="meta.media.colorspace">709</property>
  <property name="meta.media.color_trc">1</property>
  <property name="meta.media.width">1920</property>
  <property name="meta.media.height">1080</property>
  <property name="meta.media.color_range">mpeg</property>
  <property name="kdenlive:id">11</property>
  <property name="kdenlive:file_size">4482727</property>
  <property name="kdenlive:file_hash">caf213fc97af25ca0b94222113924257</property>
  <property name="global_feed">1</property>
  <property name="meta.media.top_field_first">0</property>
  <property name="meta.media.progressive">1</property>
 </producer>
 <producer id="producer10" in="00:00:00.000" out="00:00:29.733">
  <property name="length">893</property>
  <property name="eof">pause</property>
  <property name="resource">/home/toothlexx/Desktop/Golden Rule Video Content/Audio/part2.mp3</property>
  <property name="meta.media.nb_streams">1</property>
  <property name="meta.media.0.stream.type">audio</property>
  <property name="meta.media.0.codec.sample_fmt">fltp</property>
  <property name="meta.media.0.codec.sample_rate">44100</property>
  <property name="meta.media.0.codec.channels">2</property>
  <property name="meta.media.0.codec.name">mp3float</property>
  <property name="meta.media.0.codec.long_name">MP3 (MPEG audio layer 3)</property>
  <property name="meta.media.0.codec.bit_rate">320000</property>
  <property name="meta.attr.0.stream.encoder.markup">LAME3.100</property>
  <property name="meta.attr.title.markup">8 Golden Rule Track</property>
  <property name="meta.attr.artist.markup">Prajeet Shrestha</property>
  <property name="seekable">1</property>
  <property name="audio_index">0</property>
  <property name="video_index">-1</property>
  <property name="mute_on_pause">1</property>
  <property name="mlt_service">avformat</property>
  <property name="kdenlive:clipname"/>
  <property name="kdenlive:folderid">-1</property>
  <property name="kdenlive:id">12</property>
  <property name="kdenlive:file_size">1192306</property>
  <property name="kdenlive:file_hash">dfd346f6b50857c5ad55d911ac96c334</property>
  <property name="global_feed">1</property>
 </producer>
 <producer id="producer11" in="00:00:00.000" out="00:00:04.967">
  <property name="length">150</property>
  <property name="eof">pause</property>
  <property name="resource">/home/toothlexx/Desktop/Golden Rule Video Content/Parts/Rule2clip.mp4</property>
  <property name="audio_index">-1</property>
  <property name="video_index">0</property>
  <property name="mute_on_pause">0</property>
  <property name="mlt_service">avformat-novalidate</property>
  <property name="meta.media.nb_streams">1</property>
  <property name="meta.media.0.stream.type">video</property>
  <property name="meta.media.0.stream.frame_rate">30</property>
  <property name="meta.media.0.stream.sample_aspect_ratio">1</property>
  <property name="meta.media.0.codec.width">1920</property>
  <property name="meta.media.0.codec.height">1080</property>
  <property name="meta.media.0.codec.rotate">0</property>
  <property name="meta.media.0.codec.frame_rate">30</property>
  <property name="meta.media.0.codec.pix_fmt">yuv420p</property>
  <property name="meta.media.0.codec.sample_aspect_ratio">1</property>
  <property name="meta.media.0.codec.colorspace">709</property>
  <property name="meta.media.0.codec.color_trc">1</property>
  <property name="meta.media.0.codec.name">h264</property>
  <property name="meta.media.0.codec.long_name">H.264 / AVC / MPEG-4 AVC / MPEG-4 part 10</property>
  <property name="meta.media.0.codec.bit_rate">2057555</property>
  <property name="meta.attr.0.stream.handler_name.markup">VideoHandler</property>
  <property name="meta.attr.major_brand.markup">isom</property>
  <property name="meta.attr.minor_version.markup">512</property>
  <property name="meta.attr.compatible_brands.markup">isomiso2avc1mp41</property>
  <property name="meta.attr.encoder.markup">Lavf58.29.100</property>
  <property name="seekable">1</property>
  <property name="meta.media.sample_aspect_num">1</property>
  <property name="meta.media.sample_aspect_den">1</property>
  <property name="aspect_ratio">1</property>
  <property name="kdenlive:clipname"/>
  <property name="kdenlive:folderid">-1</property>
  <property name="meta.media.frame_rate_num">30</property>
  <property name="meta.media.frame_rate_den">1</property>
  <property name="meta.media.colorspace">709</property>
  <property name="meta.media.color_trc">1</property>
  <property name="meta.media.width">1920</property>
  <property name="meta.media.height">1080</property>
  <property name="meta.media.color_range">mpeg</property>
  <property name="kdenlive:id">13</property>
  <property name="kdenlive:file_size">1288620</property>
  <property name="kdenlive:file_hash">8b6a00e20b6ee1e509f3152e8a7d9086</property>
  <property name="meta.media.top_field_first">0</property>
  <property name="meta.media.progressive">1</property>
  <property name="global_feed">1</property>
 </producer>
 <producer id="producer12" in="00:00:00.000" out="00:02:07.533">
  <property name="length">3827</property>
  <property name="eof">pause</property>
  <property name="resource">/home/toothlexx/Downloads/Background Music for Presentation Videos.mp3</property>
  <property name="meta.media.nb_streams">1</property>
  <property name="meta.media.0.stream.type">audio</property>
  <property name="meta.media.0.codec.sample_fmt">fltp</property>
  <property name="meta.media.0.codec.sample_rate">48000</property>
  <property name="meta.media.0.codec.channels">2</property>
  <property name="meta.media.0.codec.name">mp3float</property>
  <property name="meta.media.0.codec.long_name">MP3 (MPEG audio layer 3)</property>
  <property name="meta.media.0.codec.bit_rate">256000</property>
  <property name="meta.attr.0.stream.encoder.markup">Lavc58.35</property>
  <property name="meta.attr.artist.markup">WaveToys - Background Music For Videos</property>
  <property name="meta.attr.title.markup">Background Music for Presentation Videos</property>
  <property name="meta.attr.date.markup">20180315</property>
  <property name="meta.attr.description.markup">Background Music for Presentation Videos:
Corporate background music that works great as background music for presentations.
BUY THIS MUSIC FOR VIDEOS: https://1.envato.market/9MWNE

Name of the song: Corporation (Inspirational Corporate Background)

About:
Beautiful elegant and uplifting song that will sit perfectly in your video project,radio commercials, corporate presentations, explainers and many other… It has very nice flow and it’s subtle and ideal for corporate background music. Ideal for geting inspirational and uplifting feeling in your projects without distracting from video or taking too much attention.

4 versions Included: A. Full Version (2:07), B. 1 Minute Version (1:00), C. Half Minute Version (0:32), D. 15s Version (0:15) High quality WAV and MP3 versions included.

►ACTIVATING LICENSE ON YOUTUBE
To quickly clear any HAAWK / Identifyy copyright claims using our music go to: https://www.haawk.com/whitelist and fill out the form. 
In the "additional message" box simply copy and paste the text from your license.
Once the claims are released you can fully monetize your video.

Copyright claims are usually cleared the same day. If you still have a copyright claim after 24-48 hours or you have any problems, please contact us on wavetoysmusic@gmail.com and attach your license and youtube link in the email. We take great pride in our support and we'll solve it for you. 

Copyright claims are not strikes, and your channel will be perfectly safe during this process. 

Any questions? Contact us via email, we respond very fast!
E-mail: wavetoysmusic@gmail.com

https://wavetoysmusic.com - Visit us for more background music for videos!

-~-~~-~~~-~~-~-
Not sure about this track? Don't worry, we have a lot more background music for videos in many different styles. Find the perfect music here: http://bit.ly/2p88HLd

Need professional 4K video footage for your commercials &amp; projects? 
Get it now on FilmPac: https://filmpac.com/ref/4/

To avoid confusion, make sure you know what is royalty free music: 
https://wavetoysmusic.com/what-is-roy...

If you are a marketer or YouTuber, you probably need a lot more stuff besides music! You can now download thousands of professional graphics, photos,  after effects templates, fonts, plugins &amp; web themes from Envato Elements! 
Check unlimited downloads at an insanely low price: https://1.envato.market/Elements

FOLLOW US!
Facebook - http://bit.ly/wavetoys-facebook
Twitter - http://bit.ly/wavetoys-twitter
-~-~~-~~~-~~-~-</property>
  <property name="meta.attr.comment.markup">Background Music for Presentation Videos:
Corporate background music that works great as background music for presentations.
BUY THIS MUSIC FOR VIDEOS: https://1.envato.market/9MWNE

Name of the song: Corporation (Inspirational Corporate Background)

About:
Beautiful elegant and uplifting song that will sit perfectly in your video project,radio commercials, corporate presentations, explainers and many other… It has very nice flow and it’s subtle and ideal for corporate background music. Ideal for geting inspirational and uplifting feeling in your projects without distracting from video or taking too much attention.

4 versions Included: A. Full Version (2:07), B. 1 Minute Version (1:00), C. Half Minute Version (0:32), D. 15s Version (0:15) High quality WAV and MP3 versions included.

►ACTIVATING LICENSE ON YOUTUBE
To quickly clear any HAAWK / Identifyy copyright claims using our music go to: https://www.haawk.com/whitelist and fill out the form. 
In the "additional message" box simply copy and paste the text from your license.
Once the claims are released you can fully monetize your video.

Copyright claims are usually cleared the same day. If you still have a copyright claim after 24-48 hours or you have any problems, please contact us on wavetoysmusic@gmail.com and attach your license and youtube link in the email. We take great pride in our support and we'll solve it for you. 

Copyright claims are not strikes, and your channel will be perfectly safe during this process. 

Any questions? Contact us via email, we respond very fast!
E-mail: wavetoysmusic@gmail.com

https://wavetoysmusic.com - Visit us for more background music for videos!

-~-~~-~~~-~~-~-
Not sure about this track? Don't worry, we have a lot more background music for videos in many different styles. Find the perfect music here: http://bit.ly/2p88HLd

Need professional 4K video footage for your commercials &amp; projects? 
Get it now on FilmPac: https://filmpac.com/ref/4/

To avoid confusion, make sure you know what is royalty free music: 
https://wavetoysmusic.com/what-is-roy...

If you are a marketer or YouTuber, you probably need a lot more stuff besides music! You can now download thousands of professional graphics, photos,  after effects templates, fonts, plugins &amp; web themes from Envato Elements! 
Check unlimited downloads at an insanely low price: https://1.envato.market/Elements

FOLLOW US!
Facebook - http://bit.ly/wavetoys-facebook
Twitter - http://bit.ly/wavetoys-twitter
-~-~~-~~~-~~-~-</property>
  <property name="meta.attr.purl.markup">https://www.youtube.com/watch?v=Dle2KWu4hu4</property>
  <property name="meta.attr.encoder.markup">Lavf58.20.100</property>
  <property name="seekable">1</property>
  <property name="audio_index">0</property>
  <property name="video_index">-1</property>
  <property name="mute_on_pause">1</property>
  <property name="mlt_service">avformat</property>
  <property name="kdenlive:clipname"/>
  <property name="kdenlive:folderid">-1</property>
  <property name="kdenlive:id">14</property>
  <property name="kdenlive:file_size">4087977</property>
  <property name="kdenlive:file_hash">ce89caa8de7590b331a2e8d60a90679d</property>
  <property name="global_feed">1</property>
 </producer>
 <producer id="producer13" in="00:00:00.000" out="00:00:04.967">
  <property name="length">150</property>
  <property name="eof">pause</property>
  <property name="resource">/home/toothlexx/Downloads/part2 abbr.mp4</property>
  <property name="audio_index">-1</property>
  <property name="video_index">0</property>
  <property name="mute_on_pause">0</property>
  <property name="mlt_service">avformat-novalidate</property>
  <property name="meta.media.nb_streams">1</property>
  <property name="meta.media.0.stream.type">video</property>
  <property name="meta.media.0.stream.frame_rate">30</property>
  <property name="meta.media.0.stream.sample_aspect_ratio">1</property>
  <property name="meta.media.0.codec.width">1920</property>
  <property name="meta.media.0.codec.height">1080</property>
  <property name="meta.media.0.codec.rotate">0</property>
  <property name="meta.media.0.codec.frame_rate">30</property>
  <property name="meta.media.0.codec.pix_fmt">yuv420p</property>
  <property name="meta.media.0.codec.sample_aspect_ratio">1</property>
  <property name="meta.media.0.codec.colorspace">709</property>
  <property name="meta.media.0.codec.color_trc">1</property>
  <property name="meta.media.0.codec.name">h264</property>
  <property name="meta.media.0.codec.long_name">H.264 / AVC / MPEG-4 AVC / MPEG-4 part 10</property>
  <property name="meta.media.0.codec.bit_rate">1727992</property>
  <property name="meta.attr.0.stream.handler_name.markup">VideoHandler</property>
  <property name="meta.attr.major_brand.markup">isom</property>
  <property name="meta.attr.minor_version.markup">512</property>
  <property name="meta.attr.compatible_brands.markup">isomiso2avc1mp41</property>
  <property name="meta.attr.encoder.markup">Lavf58.29.100</property>
  <property name="seekable">1</property>
  <property name="meta.media.sample_aspect_num">1</property>
  <property name="meta.media.sample_aspect_den">1</property>
  <property name="aspect_ratio">1</property>
  <property name="kdenlive:clipname"/>
  <property name="kdenlive:folderid">-1</property>
  <property name="meta.media.frame_rate_num">30</property>
  <property name="meta.media.frame_rate_den">1</property>
  <property name="meta.media.colorspace">709</property>
  <property name="meta.media.color_trc">1</property>
  <property name="meta.media.width">1920</property>
  <property name="meta.media.height">1080</property>
  <property name="meta.media.color_range">mpeg</property>
  <property name="kdenlive:id">15</property>
  <property name="kdenlive:file_size">1082531</property>
  <property name="kdenlive:file_hash">af56e450eca41f90bd6eef04285a3493</property>
  <property name="meta.media.top_field_first">0</property>
  <property name="meta.media.progressive">1</property>
  <property name="global_feed">1</property>
 </producer>
 <producer id="producer14" in="00:00:00.000" out="00:00:34.267">
  <property name="length">1029</property>
  <property name="eof">pause</property>
  <property name="resource">/home/toothlexx/Desktop/Golden Rule Video Content/Audio/part3.mp3</property>
  <property name="meta.media.nb_streams">1</property>
  <property name="meta.media.0.stream.type">audio</property>
  <property name="meta.media.0.codec.sample_fmt">fltp</property>
  <property name="meta.media.0.codec.sample_rate">44100</property>
  <property name="meta.media.0.codec.channels">2</property>
  <property name="meta.media.0.codec.name">mp3float</property>
  <property name="meta.media.0.codec.long_name">MP3 (MPEG audio layer 3)</property>
  <property name="meta.media.0.codec.bit_rate">320000</property>
  <property name="meta.attr.0.stream.encoder.markup">LAME3.100</property>
  <property name="meta.attr.title.markup">8 Golden Rule Track</property>
  <property name="meta.attr.artist.markup">Prajeet Shrestha</property>
  <property name="seekable">1</property>
  <property name="audio_index">0</property>
  <property name="video_index">-1</property>
  <property name="mute_on_pause">1</property>
  <property name="mlt_service">avformat</property>
  <property name="kdenlive:clipname"/>
  <property name="kdenlive:folderid">-1</property>
  <property name="kdenlive:id">16</property>
  <property name="kdenlive:file_size">1373074</property>
  <property name="kdenlive:file_hash">f93e44e48607ca47dcd2ba5ff7721a0a</property>
  <property name="global_feed">1</property>
 </producer>
 <producer id="producer15" in="00:00:00.000" out="00:00:28.933">
  <property name="length">869</property>
  <property name="eof">pause</property>
  <property name="resource">/home/toothlexx/Desktop/Golden Rule Video Content/Parts/interativepart3.mp4</property>
  <property name="audio_index">-1</property>
  <property name="video_index">0</property>
  <property name="mute_on_pause">0</property>
  <property name="mlt_service">avformat-novalidate</property>
  <property name="meta.media.nb_streams">1</property>
  <property name="meta.media.0.stream.type">video</property>
  <property name="meta.media.0.stream.frame_rate">60</property>
  <property name="meta.media.0.stream.sample_aspect_ratio">1</property>
  <property name="meta.media.0.codec.width">1366</property>
  <property name="meta.media.0.codec.height">740</property>
  <property name="meta.media.0.codec.rotate">0</property>
  <property name="meta.media.0.codec.frame_rate">60</property>
  <property name="meta.media.0.codec.pix_fmt">yuv444p</property>
  <property name="meta.media.0.codec.sample_aspect_ratio">1</property>
  <property name="meta.media.0.codec.colorspace">709</property>
  <property name="meta.media.0.codec.color_trc">1</property>
  <property name="meta.media.0.codec.name">h264</property>
  <property name="meta.media.0.codec.long_name">H.264 / AVC / MPEG-4 AVC / MPEG-4 part 10</property>
  <property name="meta.media.0.codec.bit_rate">863033</property>
  <property name="meta.attr.0.stream.creation_time.markup">2020-08-06T08:34:35.000000Z</property>
  <property name="meta.attr.0.stream.handler_name.markup">VideoHandler</property>
  <property name="meta.attr.major_brand.markup">mp42</property>
  <property name="meta.attr.minor_version.markup">0</property>
  <property name="meta.attr.compatible_brands.markup">mp42mp41isomiso2</property>
  <property name="meta.attr.creation_time.markup">2020-08-06T08:34:35.000000Z</property>
  <property name="meta.attr.encoder.markup">x264</property>
  <property name="seekable">1</property>
  <property name="meta.media.sample_aspect_num">1</property>
  <property name="meta.media.sample_aspect_den">1</property>
  <property name="aspect_ratio">1</property>
  <property name="kdenlive:clipname"/>
  <property name="kdenlive:folderid">-1</property>
  <property name="meta.media.frame_rate_num">60</property>
  <property name="meta.media.frame_rate_den">1</property>
  <property name="meta.media.colorspace">709</property>
  <property name="meta.media.color_trc">1</property>
  <property name="meta.media.width">1366</property>
  <property name="meta.media.height">740</property>
  <property name="meta.media.color_range">mpeg</property>
  <property name="kdenlive:id">17</property>
  <property name="kdenlive:file_size">3134586</property>
  <property name="kdenlive:file_hash">ad0d56c4c09a8f186615201ff795b4e4</property>
  <property name="meta.media.top_field_first">0</property>
  <property name="meta.media.progressive">1</property>
  <property name="global_feed">1</property>
 </producer>
 <producer id="producer16" in="00:00:00.000" out="00:00:04.967">
  <property name="length">150</property>
  <property name="eof">pause</property>
  <property name="resource">/home/toothlexx/Desktop/Golden Rule Video Content/Parts/Rule3clip.mp4</property>
  <property name="audio_index">-1</property>
  <property name="video_index">0</property>
  <property name="mute_on_pause">0</property>
  <property name="mlt_service">avformat-novalidate</property>
  <property name="meta.media.nb_streams">1</property>
  <property name="meta.media.0.stream.type">video</property>
  <property name="meta.media.0.stream.frame_rate">30</property>
  <property name="meta.media.0.stream.sample_aspect_ratio">1</property>
  <property name="meta.media.0.codec.width">1920</property>
  <property name="meta.media.0.codec.height">1080</property>
  <property name="meta.media.0.codec.rotate">0</property>
  <property name="meta.media.0.codec.frame_rate">30</property>
  <property name="meta.media.0.codec.pix_fmt">yuv420p</property>
  <property name="meta.media.0.codec.sample_aspect_ratio">1</property>
  <property name="meta.media.0.codec.colorspace">709</property>
  <property name="meta.media.0.codec.color_trc">1</property>
  <property name="meta.media.0.codec.name">h264</property>
  <property name="meta.media.0.codec.long_name">H.264 / AVC / MPEG-4 AVC / MPEG-4 part 10</property>
  <property name="meta.media.0.codec.bit_rate">1606846</property>
  <property name="meta.attr.0.stream.handler_name.markup">VideoHandler</property>
  <property name="meta.attr.major_brand.markup">isom</property>
  <property name="meta.attr.minor_version.markup">512</property>
  <property name="meta.attr.compatible_brands.markup">isomiso2avc1mp41</property>
  <property name="meta.attr.encoder.markup">Lavf58.29.100</property>
  <property name="seekable">1</property>
  <property name="meta.media.sample_aspect_num">1</property>
  <property name="meta.media.sample_aspect_den">1</property>
  <property name="aspect_ratio">1</property>
  <property name="kdenlive:clipname"/>
  <property name="kdenlive:folderid">-1</property>
  <property name="meta.media.frame_rate_num">30</property>
  <property name="meta.media.frame_rate_den">1</property>
  <property name="meta.media.colorspace">709</property>
  <property name="meta.media.color_trc">1</property>
  <property name="meta.media.width">1920</property>
  <property name="meta.media.height">1080</property>
  <property name="meta.media.color_range">mpeg</property>
  <property name="kdenlive:id">18</property>
  <property name="kdenlive:file_size">1006839</property>
  <property name="kdenlive:file_hash">51cd3f6289b099303d083a3dd6768966</property>
  <property name="meta.media.top_field_first">0</property>
  <property name="meta.media.progressive">1</property>
  <property name="global_feed">1</property>
 </producer>
 <producer id="producer17" in="00:00:00.000" out="00:00:15.700">
  <property name="length">472</property>
  <property name="eof">pause</property>
  <property name="resource">/home/toothlexx/Desktop/Golden Rule Video Content/Parts/rule3subcribe.mp4</property>
  <property name="audio_index">-1</property>
  <property name="video_index">0</property>
  <property name="mute_on_pause">0</property>
  <property name="mlt_service">avformat-novalidate</property>
  <property name="meta.media.nb_streams">1</property>
  <property name="meta.media.0.stream.type">video</property>
  <property name="meta.media.0.stream.frame_rate">60</property>
  <property name="meta.media.0.stream.sample_aspect_ratio">1</property>
  <property name="meta.media.0.codec.width">1366</property>
  <property name="meta.media.0.codec.height">740</property>
  <property name="meta.media.0.codec.rotate">0</property>
  <property name="meta.media.0.codec.frame_rate">60</property>
  <property name="meta.media.0.codec.pix_fmt">yuv444p</property>
  <property name="meta.media.0.codec.sample_aspect_ratio">1</property>
  <property name="meta.media.0.codec.colorspace">709</property>
  <property name="meta.media.0.codec.color_trc">1</property>
  <property name="meta.media.0.codec.name">h264</property>
  <property name="meta.media.0.codec.long_name">H.264 / AVC / MPEG-4 AVC / MPEG-4 part 10</property>
  <property name="meta.media.0.codec.bit_rate">554163</property>
  <property name="meta.attr.0.stream.creation_time.markup">2020-08-06T02:49:24.000000Z</property>
  <property name="meta.attr.0.stream.handler_name.markup">VideoHandler</property>
  <property name="meta.attr.major_brand.markup">mp42</property>
  <property name="meta.attr.minor_version.markup">0</property>
  <property name="meta.attr.compatible_brands.markup">mp42mp41isomiso2</property>
  <property name="meta.attr.creation_time.markup">2020-08-06T02:49:24.000000Z</property>
  <property name="meta.attr.encoder.markup">x264</property>
  <property name="seekable">1</property>
  <property name="meta.media.sample_aspect_num">1</property>
  <property name="meta.media.sample_aspect_den">1</property>
  <property name="aspect_ratio">1</property>
  <property name="kdenlive:clipname"/>
  <property name="kdenlive:folderid">-1</property>
  <property name="meta.media.frame_rate_num">60</property>
  <property name="meta.media.frame_rate_den">1</property>
  <property name="meta.media.colorspace">709</property>
  <property name="meta.media.color_trc">1</property>
  <property name="meta.media.width">1366</property>
  <property name="meta.media.height">740</property>
  <property name="meta.media.color_range">mpeg</property>
  <property name="kdenlive:id">19</property>
  <property name="kdenlive:file_size">1095715</property>
  <property name="kdenlive:file_hash">58a94106d2355cf344bc17e57cdcb0c8</property>
  <property name="meta.media.top_field_first">0</property>
  <property name="meta.media.progressive">1</property>
  <property name="global_feed">1</property>
 </producer>
 <producer id="producer18" in="00:00:00.000" out="00:00:04.967">
  <property name="length">150</property>
  <property name="eof">pause</property>
  <property name="resource">/home/toothlexx/Desktop/Golden Rule Video Content/Parts/Rule4clip.mp4</property>
  <property name="meta.media.nb_streams">1</property>
  <property name="meta.media.0.stream.type">video</property>
  <property name="meta.media.0.stream.frame_rate">30</property>
  <property name="meta.media.0.stream.sample_aspect_ratio">1</property>
  <property name="meta.media.0.codec.width">1920</property>
  <property name="meta.media.0.codec.height">1080</property>
  <property name="meta.media.0.codec.rotate">0</property>
  <property name="meta.media.0.codec.frame_rate">30</property>
  <property name="meta.media.0.codec.pix_fmt">yuv420p</property>
  <property name="meta.media.0.codec.sample_aspect_ratio">1</property>
  <property name="meta.media.0.codec.colorspace">709</property>
  <property name="meta.media.0.codec.color_trc">1</property>
  <property name="meta.media.0.codec.name">h264</property>
  <property name="meta.media.0.codec.long_name">H.264 / AVC / MPEG-4 AVC / MPEG-4 part 10</property>
  <property name="meta.media.0.codec.bit_rate">1100512</property>
  <property name="meta.attr.0.stream.handler_name.markup">VideoHandler</property>
  <property name="meta.attr.major_brand.markup">isom</property>
  <property name="meta.attr.minor_version.markup">512</property>
  <property name="meta.attr.compatible_brands.markup">isomiso2avc1mp41</property>
  <property name="meta.attr.encoder.markup">Lavf58.29.100</property>
  <property name="seekable">1</property>
  <property name="meta.media.sample_aspect_num">1</property>
  <property name="meta.media.sample_aspect_den">1</property>
  <property name="aspect_ratio">1</property>
  <property name="audio_index">-1</property>
  <property name="video_index">0</property>
  <property name="mute_on_pause">0</property>
  <property name="mlt_service">avformat-novalidate</property>
  <property name="kdenlive:clipname"/>
  <property name="kdenlive:folderid">-1</property>
  <property name="meta.media.frame_rate_num">30</property>
  <property name="meta.media.frame_rate_den">1</property>
  <property name="meta.media.colorspace">709</property>
  <property name="meta.media.color_trc">1</property>
  <property name="meta.media.width">1920</property>
  <property name="meta.media.height">1080</property>
  <property name="meta.media.color_range">mpeg</property>
  <property name="kdenlive:id">20</property>
  <property name="kdenlive:file_size">690444</property>
  <property name="kdenlive:file_hash">617b2f53eb442a8cc659542c10dd1649</property>
  <property name="meta.media.top_field_first">0</property>
  <property name="meta.media.progressive">1</property>
  <property name="global_feed">1</property>
 </producer>
 <producer id="producer19" in="00:00:00.000" out="00:00:27.900">
  <property name="length">838</property>
  <property name="eof">pause</property>
  <property name="resource">/home/toothlexx/Desktop/Golden Rule Video Content/Audio/part4.mp3</property>
  <property name="meta.media.nb_streams">1</property>
  <property name="meta.media.0.stream.type">audio</property>
  <property name="meta.media.0.codec.sample_fmt">fltp</property>
  <property name="meta.media.0.codec.sample_rate">44100</property>
  <property name="meta.media.0.codec.channels">2</property>
  <property name="meta.media.0.codec.name">mp3float</property>
  <property name="meta.media.0.codec.long_name">MP3 (MPEG audio layer 3)</property>
  <property name="meta.media.0.codec.bit_rate">320000</property>
  <property name="meta.attr.0.stream.encoder.markup">LAME3.100</property>
  <property name="meta.attr.title.markup">8 Golden Rule Track</property>
  <property name="meta.attr.artist.markup">Prajeet Shrestha</property>
  <property name="seekable">1</property>
  <property name="audio_index">0</property>
  <property name="video_index">-1</property>
  <property name="mute_on_pause">1</property>
  <property name="mlt_service">avformat</property>
  <property name="kdenlive:clipname"/>
  <property name="kdenlive:folderid">-1</property>
  <property name="kdenlive:id">22</property>
  <property name="kdenlive:file_size">1118119</property>
  <property name="kdenlive:file_hash">46e50a8294e8e69a51a8e5a9c14e267f</property>
  <property name="global_feed">1</property>
 </producer>
 <producer id="producer20" in="00:00:00.000" out="00:00:04.967">
  <property name="length">150</property>
  <property name="eof">pause</property>
  <property name="resource">/home/toothlexx/Desktop/Golden Rule Video Content/Parts/Rule5clip.mp4</property>
  <property name="meta.media.nb_streams">1</property>
  <property name="meta.media.0.stream.type">video</property>
  <property name="meta.media.0.stream.frame_rate">30</property>
  <property name="meta.media.0.stream.sample_aspect_ratio">1</property>
  <property name="meta.media.0.codec.width">1920</property>
  <property name="meta.media.0.codec.height">1080</property>
  <property name="meta.media.0.codec.rotate">0</property>
  <property name="meta.media.0.codec.frame_rate">30</property>
  <property name="meta.media.0.codec.pix_fmt">yuv420p</property>
  <property name="meta.media.0.codec.sample_aspect_ratio">1</property>
  <property name="meta.media.0.codec.colorspace">709</property>
  <property name="meta.media.0.codec.color_trc">1</property>
  <property name="meta.media.0.codec.name">h264</property>
  <property name="meta.media.0.codec.long_name">H.264 / AVC / MPEG-4 AVC / MPEG-4 part 10</property>
  <property name="meta.media.0.codec.bit_rate">221547</property>
  <property name="meta.attr.0.stream.handler_name.markup">VideoHandler</property>
  <property name="meta.attr.major_brand.markup">isom</property>
  <property name="meta.attr.minor_version.markup">512</property>
  <property name="meta.attr.compatible_brands.markup">isomiso2avc1mp41</property>
  <property name="meta.attr.encoder.markup">Lavf58.29.100</property>
  <property name="seekable">1</property>
  <property name="meta.media.sample_aspect_num">1</property>
  <property name="meta.media.sample_aspect_den">1</property>
  <property name="aspect_ratio">1</property>
  <property name="audio_index">-1</property>
  <property name="video_index">0</property>
  <property name="mute_on_pause">0</property>
  <property name="mlt_service">avformat-novalidate</property>
  <property name="kdenlive:clipname"/>
  <property name="kdenlive:folderid">-1</property>
  <property name="meta.media.frame_rate_num">30</property>
  <property name="meta.media.frame_rate_den">1</property>
  <property name="meta.media.colorspace">709</property>
  <property name="meta.media.color_trc">1</property>
  <property name="meta.media.width">1920</property>
  <property name="meta.media.height">1080</property>
  <property name="meta.media.color_range">mpeg</property>
  <property name="kdenlive:id">23</property>
  <property name="kdenlive:file_size">141115</property>
  <property name="kdenlive:file_hash">0cb3ea424047826119e7dbf2a4004ba7</property>
  <property name="meta.media.top_field_first">0</property>
  <property name="meta.media.progressive">1</property>
  <property name="global_feed">1</property>
 </producer>
 <producer id="producer21" in="00:00:00.000" out="00:00:18.633">
  <property name="length">560</property>
  <property name="eof">pause</property>
  <property name="resource">/home/toothlexx/Desktop/Golden Rule Video Content/Parts/part5error.mp4</property>
  <property name="meta.media.nb_streams">1</property>
  <property name="meta.media.0.stream.type">video</property>
  <property name="meta.media.0.stream.frame_rate">60</property>
  <property name="meta.media.0.stream.sample_aspect_ratio">1</property>
  <property name="meta.media.0.codec.width">1366</property>
  <property name="meta.media.0.codec.height">740</property>
  <property name="meta.media.0.codec.rotate">0</property>
  <property name="meta.media.0.codec.frame_rate">60</property>
  <property name="meta.media.0.codec.pix_fmt">yuv444p</property>
  <property name="meta.media.0.codec.sample_aspect_ratio">1</property>
  <property name="meta.media.0.codec.colorspace">709</property>
  <property name="meta.media.0.codec.color_trc">1</property>
  <property name="meta.media.0.codec.name">h264</property>
  <property name="meta.media.0.codec.long_name">H.264 / AVC / MPEG-4 AVC / MPEG-4 part 10</property>
  <property name="meta.media.0.codec.bit_rate">1679453</property>
  <property name="meta.attr.0.stream.creation_time.markup">2020-08-06T11:53:42.000000Z</property>
  <property name="meta.attr.0.stream.handler_name.markup">VideoHandler</property>
  <property name="meta.attr.major_brand.markup">mp42</property>
  <property name="meta.attr.minor_version.markup">0</property>
  <property name="meta.attr.compatible_brands.markup">mp42mp41isomiso2</property>
  <property name="meta.attr.creation_time.markup">2020-08-06T11:53:42.000000Z</property>
  <property name="meta.attr.encoder.markup">x264</property>
  <property name="seekable">1</property>
  <property name="meta.media.sample_aspect_num">1</property>
  <property name="meta.media.sample_aspect_den">1</property>
  <property name="aspect_ratio">1</property>
  <property name="audio_index">-1</property>
  <property name="video_index">0</property>
  <property name="mute_on_pause">0</property>
  <property name="mlt_service">avformat-novalidate</property>
  <property name="kdenlive:clipname"/>
  <property name="kdenlive:folderid">-1</property>
  <property name="meta.media.frame_rate_num">60</property>
  <property name="meta.media.frame_rate_den">1</property>
  <property name="meta.media.colorspace">709</property>
  <property name="meta.media.color_trc">1</property>
  <property name="meta.media.width">1366</property>
  <property name="meta.media.height">740</property>
  <property name="meta.media.color_range">mpeg</property>
  <property name="kdenlive:id">24</property>
  <property name="kdenlive:file_size">3924131</property>
  <property name="kdenlive:file_hash">861f4eb91032424494057efbaff2af97</property>
  <property name="meta.media.top_field_first">0</property>
  <property name="meta.media.progressive">1</property>
  <property name="global_feed">1</property>
 </producer>
 <producer id="producer22" in="00:00:00.000" out="00:00:25.633">
  <property name="length">770</property>
  <property name="eof">pause</property>
  <property name="resource">/home/toothlexx/Desktop/Golden Rule Video Content/Audio/part5.mp3</property>
  <property name="meta.media.nb_streams">1</property>
  <property name="meta.media.0.stream.type">audio</property>
  <property name="meta.media.0.codec.sample_fmt">fltp</property>
  <property name="meta.media.0.codec.sample_rate">44100</property>
  <property name="meta.media.0.codec.channels">2</property>
  <property name="meta.media.0.codec.name">mp3float</property>
  <property name="meta.media.0.codec.long_name">MP3 (MPEG audio layer 3)</property>
  <property name="meta.media.0.codec.bit_rate">320000</property>
  <property name="meta.attr.0.stream.encoder.markup">LAME3.100</property>
  <property name="meta.attr.title.markup">8 Golden Rule Track</property>
  <property name="meta.attr.artist.markup">Prajeet Shrestha</property>
  <property name="seekable">1</property>
  <property name="audio_index">0</property>
  <property name="video_index">-1</property>
  <property name="mute_on_pause">1</property>
  <property name="mlt_service">avformat</property>
  <property name="kdenlive:clipname"/>
  <property name="kdenlive:folderid">-1</property>
  <property name="kdenlive:id">25</property>
  <property name="kdenlive:file_size">1027212</property>
  <property name="kdenlive:file_hash">24ae35a9764679b5d8f849785306213e</property>
  <property name="global_feed">1</property>
 </producer>
 <producer id="producer23" in="00:00:00.000" out="00:00:07.700">
  <property name="length">232</property>
  <property name="eof">pause</property>
  <property name="resource">/home/toothlexx/Desktop/Golden Rule Video Content/Parts/part5googleform.mp4</property>
  <property name="meta.media.nb_streams">1</property>
  <property name="meta.media.0.stream.type">video</property>
  <property name="meta.media.0.stream.frame_rate">60</property>
  <property name="meta.media.0.stream.sample_aspect_ratio">1</property>
  <property name="meta.media.0.codec.width">1366</property>
  <property name="meta.media.0.codec.height">740</property>
  <property name="meta.media.0.codec.rotate">0</property>
  <property name="meta.media.0.codec.frame_rate">60</property>
  <property name="meta.media.0.codec.pix_fmt">yuv444p</property>
  <property name="meta.media.0.codec.sample_aspect_ratio">1</property>
  <property name="meta.media.0.codec.colorspace">709</property>
  <property name="meta.media.0.codec.color_trc">1</property>
  <property name="meta.media.0.codec.name">h264</property>
  <property name="meta.media.0.codec.long_name">H.264 / AVC / MPEG-4 AVC / MPEG-4 part 10</property>
  <property name="meta.media.0.codec.bit_rate">282641</property>
  <property name="meta.attr.0.stream.creation_time.markup">2020-08-06T12:10:49.000000Z</property>
  <property name="meta.attr.0.stream.handler_name.markup">VideoHandler</property>
  <property name="meta.attr.major_brand.markup">mp42</property>
  <property name="meta.attr.minor_version.markup">0</property>
  <property name="meta.attr.compatible_brands.markup">mp42mp41isomiso2</property>
  <property name="meta.attr.creation_time.markup">2020-08-06T12:10:49.000000Z</property>
  <property name="meta.attr.encoder.markup">x264</property>
  <property name="seekable">1</property>
  <property name="meta.media.sample_aspect_num">1</property>
  <property name="meta.media.sample_aspect_den">1</property>
  <property name="aspect_ratio">1</property>
  <property name="audio_index">-1</property>
  <property name="video_index">0</property>
  <property name="mute_on_pause">0</property>
  <property name="mlt_service">avformat-novalidate</property>
  <property name="kdenlive:clipname"/>
  <property name="kdenlive:folderid">-1</property>
  <property name="meta.media.frame_rate_num">60</property>
  <property name="meta.media.frame_rate_den">1</property>
  <property name="meta.media.colorspace">709</property>
  <property name="meta.media.color_trc">1</property>
  <property name="meta.media.width">1366</property>
  <property name="meta.media.height">740</property>
  <property name="meta.media.color_range">mpeg</property>
  <property name="kdenlive:id">26</property>
  <property name="kdenlive:file_size">276591</property>
  <property name="kdenlive:file_hash">984a9861c1be3c5634c59c3d7fc3e916</property>
  <property name="meta.media.top_field_first">0</property>
  <property name="meta.media.progressive">1</property>
  <property name="global_feed">1</property>
 </producer>
 <producer id="producer24" in="00:00:00.000" out="00:00:04.967">
  <property name="length">150</property>
  <property name="eof">pause</property>
  <property name="resource">/home/toothlexx/Desktop/Golden Rule Video Content/Parts/Rule6clip.mp4</property>
  <property name="meta.media.nb_streams">1</property>
  <property name="meta.media.0.stream.type">video</property>
  <property name="meta.media.0.stream.frame_rate">30</property>
  <property name="meta.media.0.stream.sample_aspect_ratio">1</property>
  <property name="meta.media.0.codec.width">1920</property>
  <property name="meta.media.0.codec.height">1080</property>
  <property name="meta.media.0.codec.rotate">0</property>
  <property name="meta.media.0.codec.frame_rate">30</property>
  <property name="meta.media.0.codec.pix_fmt">yuv420p</property>
  <property name="meta.media.0.codec.sample_aspect_ratio">1</property>
  <property name="meta.media.0.codec.colorspace">709</property>
  <property name="meta.media.0.codec.color_trc">1</property>
  <property name="meta.media.0.codec.name">h264</property>
  <property name="meta.media.0.codec.long_name">H.264 / AVC / MPEG-4 AVC / MPEG-4 part 10</property>
  <property name="meta.media.0.codec.bit_rate">1004196</property>
  <property name="meta.attr.0.stream.handler_name.markup">VideoHandler</property>
  <property name="meta.attr.major_brand.markup">isom</property>
  <property name="meta.attr.minor_version.markup">512</property>
  <property name="meta.attr.compatible_brands.markup">isomiso2avc1mp41</property>
  <property name="meta.attr.encoder.markup">Lavf58.29.100</property>
  <property name="seekable">1</property>
  <property name="meta.media.sample_aspect_num">1</property>
  <property name="meta.media.sample_aspect_den">1</property>
  <property name="aspect_ratio">1</property>
  <property name="audio_index">-1</property>
  <property name="video_index">0</property>
  <property name="mute_on_pause">0</property>
  <property name="mlt_service">avformat-novalidate</property>
  <property name="kdenlive:clipname"/>
  <property name="kdenlive:folderid">-1</property>
  <property name="meta.media.frame_rate_num">30</property>
  <property name="meta.media.frame_rate_den">1</property>
  <property name="meta.media.colorspace">709</property>
  <property name="meta.media.color_trc">1</property>
  <property name="meta.media.width">1920</property>
  <property name="meta.media.height">1080</property>
  <property name="meta.media.color_range">mpeg</property>
  <property name="kdenlive:id">27</property>
  <property name="kdenlive:file_size">630255</property>
  <property name="kdenlive:file_hash">96f9639e48bc2cae34013d395b88d526</property>
  <property name="meta.media.top_field_first">0</property>
  <property name="meta.media.progressive">1</property>
  <property name="global_feed">1</property>
 </producer>
 <producer id="producer25" in="00:00:00.000" out="00:00:25.633">
  <property name="length">770</property>
  <property name="eof">pause</property>
  <property name="resource">/home/toothlexx/Desktop/Golden Rule Video Content/Parts/reversalofaction.mp4</property>
  <property name="meta.media.nb_streams">1</property>
  <property name="meta.media.0.stream.type">video</property>
  <property name="meta.media.0.stream.frame_rate">60</property>
  <property name="meta.media.0.stream.sample_aspect_ratio">1</property>
  <property name="meta.media.0.codec.width">1366</property>
  <property name="meta.media.0.codec.height">740</property>
  <property name="meta.media.0.codec.rotate">0</property>
  <property name="meta.media.0.codec.frame_rate">60</property>
  <property name="meta.media.0.codec.pix_fmt">yuv444p</property>
  <property name="meta.media.0.codec.sample_aspect_ratio">1</property>
  <property name="meta.media.0.codec.colorspace">709</property>
  <property name="meta.media.0.codec.color_trc">1</property>
  <property name="meta.media.0.codec.name">h264</property>
  <property name="meta.media.0.codec.long_name">H.264 / AVC / MPEG-4 AVC / MPEG-4 part 10</property>
  <property name="meta.media.0.codec.bit_rate">723696</property>
  <property name="meta.attr.0.stream.creation_time.markup">2020-08-06T12:38:15.000000Z</property>
  <property name="meta.attr.0.stream.handler_name.markup">VideoHandler</property>
  <property name="meta.attr.major_brand.markup">mp42</property>
  <property name="meta.attr.minor_version.markup">0</property>
  <property name="meta.attr.compatible_brands.markup">mp42mp41isomiso2</property>
  <property name="meta.attr.creation_time.markup">2020-08-06T12:38:15.000000Z</property>
  <property name="meta.attr.encoder.markup">x264</property>
  <property name="seekable">1</property>
  <property name="meta.media.sample_aspect_num">1</property>
  <property name="meta.media.sample_aspect_den">1</property>
  <property name="aspect_ratio">1</property>
  <property name="audio_index">-1</property>
  <property name="video_index">0</property>
  <property name="mute_on_pause">0</property>
  <property name="mlt_service">avformat-novalidate</property>
  <property name="kdenlive:clipname"/>
  <property name="kdenlive:folderid">-1</property>
  <property name="meta.media.frame_rate_num">60</property>
  <property name="meta.media.frame_rate_den">1</property>
  <property name="meta.media.colorspace">709</property>
  <property name="meta.media.color_trc">1</property>
  <property name="meta.media.width">1366</property>
  <property name="meta.media.height">740</property>
  <property name="meta.media.color_range">mpeg</property>
  <property name="kdenlive:id">28</property>
  <property name="kdenlive:file_size">2327438</property>
  <property name="kdenlive:file_hash">434c4d0cbb9318ac5ba1b1c1bbfb3bb7</property>
  <property name="meta.media.top_field_first">0</property>
  <property name="meta.media.progressive">1</property>
  <property name="global_feed">1</property>
 </producer>
 <producer id="producer26" in="00:00:00.000" out="00:00:17.167">
  <property name="length">516</property>
  <property name="eof">pause</property>
  <property name="resource">/home/toothlexx/Desktop/Golden Rule Video Content/Audio/part6.mp3</property>
  <property name="meta.media.nb_streams">1</property>
  <property name="meta.media.0.stream.type">audio</property>
  <property name="meta.media.0.codec.sample_fmt">fltp</property>
  <property name="meta.media.0.codec.sample_rate">44100</property>
  <property name="meta.media.0.codec.channels">2</property>
  <property name="meta.media.0.codec.name">mp3float</property>
  <property name="meta.media.0.codec.long_name">MP3 (MPEG audio layer 3)</property>
  <property name="meta.media.0.codec.bit_rate">320000</property>
  <property name="meta.attr.0.stream.encoder.markup">LAME3.100</property>
  <property name="meta.attr.title.markup">8 Golden Rule Track</property>
  <property name="meta.attr.artist.markup">Prajeet Shrestha</property>
  <property name="seekable">1</property>
  <property name="audio_index">0</property>
  <property name="video_index">-1</property>
  <property name="mute_on_pause">1</property>
  <property name="mlt_service">avformat</property>
  <property name="kdenlive:clipname"/>
  <property name="kdenlive:folderid">-1</property>
  <property name="kdenlive:id">29</property>
  <property name="kdenlive:file_size">688665</property>
  <property name="kdenlive:file_hash">e972054bf1c7ffb0d2a4ba95fcb9e805</property>
  <property name="global_feed">1</property>
 </producer>
 <producer id="producer27" in="00:00:00.000" out="00:00:19.433">
  <property name="length">584</property>
  <property name="eof">pause</property>
  <property name="resource">/home/toothlexx/Desktop/Golden Rule Video Content/Audio/part6.1.mp3</property>
  <property name="meta.media.nb_streams">1</property>
  <property name="meta.media.0.stream.type">audio</property>
  <property name="meta.media.0.codec.sample_fmt">fltp</property>
  <property name="meta.media.0.codec.sample_rate">44100</property>
  <property name="meta.media.0.codec.channels">2</property>
  <property name="meta.media.0.codec.name">mp3float</property>
  <property name="meta.media.0.codec.long_name">MP3 (MPEG audio layer 3)</property>
  <property name="meta.media.0.codec.bit_rate">320000</property>
  <property name="meta.attr.0.stream.encoder.markup">LAME3.100</property>
  <property name="meta.attr.title.markup">8 Golden Rule Track</property>
  <property name="meta.attr.artist.markup">Prajeet Shrestha</property>
  <property name="seekable">1</property>
  <property name="audio_index">0</property>
  <property name="video_index">-1</property>
  <property name="mute_on_pause">1</property>
  <property name="mlt_service">avformat</property>
  <property name="kdenlive:clipname"/>
  <property name="kdenlive:folderid">-1</property>
  <property name="kdenlive:id">30</property>
  <property name="kdenlive:file_size">779572</property>
  <property name="kdenlive:file_hash">83e81394f14cf6deaf3c0a87c7092f3f</property>
  <property name="global_feed">1</property>
 </producer>
 <producer id="producer28" in="00:00:00.000" out="00:00:04.967">
  <property name="length">150</property>
  <property name="eof">pause</property>
  <property name="resource">/home/toothlexx/Desktop/Golden Rule Video Content/Parts/Rule7clip.mp4</property>
  <property name="meta.media.nb_streams">1</property>
  <property name="meta.media.0.stream.type">video</property>
  <property name="meta.media.0.stream.frame_rate">30</property>
  <property name="meta.media.0.stream.sample_aspect_ratio">1</property>
  <property name="meta.media.0.codec.width">1920</property>
  <property name="meta.media.0.codec.height">1080</property>
  <property name="meta.media.0.codec.rotate">0</property>
  <property name="meta.media.0.codec.frame_rate">30</property>
  <property name="meta.media.0.codec.pix_fmt">yuv420p</property>
  <property name="meta.media.0.codec.sample_aspect_ratio">1</property>
  <property name="meta.media.0.codec.colorspace">709</property>
  <property name="meta.media.0.codec.color_trc">1</property>
  <property name="meta.media.0.codec.name">h264</property>
  <property name="meta.media.0.codec.long_name">H.264 / AVC / MPEG-4 AVC / MPEG-4 part 10</property>
  <property name="meta.media.0.codec.bit_rate">897043</property>
  <property name="meta.attr.0.stream.handler_name.markup">VideoHandler</property>
  <property name="meta.attr.major_brand.markup">isom</property>
  <property name="meta.attr.minor_version.markup">512</property>
  <property name="meta.attr.compatible_brands.markup">isomiso2avc1mp41</property>
  <property name="meta.attr.encoder.markup">Lavf58.29.100</property>
  <property name="seekable">1</property>
  <property name="meta.media.sample_aspect_num">1</property>
  <property name="meta.media.sample_aspect_den">1</property>
  <property name="aspect_ratio">1</property>
  <property name="audio_index">-1</property>
  <property name="video_index">0</property>
  <property name="mute_on_pause">0</property>
  <property name="mlt_service">avformat-novalidate</property>
  <property name="kdenlive:clipname"/>
  <property name="kdenlive:folderid">-1</property>
  <property name="meta.media.frame_rate_num">30</property>
  <property name="meta.media.frame_rate_den">1</property>
  <property name="meta.media.colorspace">709</property>
  <property name="meta.media.color_trc">1</property>
  <property name="meta.media.width">1920</property>
  <property name="meta.media.height">1080</property>
  <property name="meta.media.color_range">mpeg</property>
  <property name="kdenlive:id">31</property>
  <property name="kdenlive:file_size">563300</property>
  <property name="kdenlive:file_hash">81af6cb4d228fb3a6d86e9481ded9f8a</property>
  <property name="meta.media.top_field_first">0</property>
  <property name="meta.media.progressive">1</property>
  <property name="global_feed">1</property>
 </producer>
 <producer id="producer29" in="00:00:00.000" out="00:00:29.700">
  <property name="length">892</property>
  <property name="eof">pause</property>
  <property name="resource">/home/toothlexx/Desktop/Golden Rule Video Content/Parts/locusrule7.mp4</property>
  <property name="meta.media.nb_streams">1</property>
  <property name="meta.media.0.stream.type">video</property>
  <property name="meta.media.0.stream.frame_rate">60</property>
  <property name="meta.media.0.stream.sample_aspect_ratio">1</property>
  <property name="meta.media.0.codec.width">1366</property>
  <property name="meta.media.0.codec.height">740</property>
  <property name="meta.media.0.codec.rotate">0</property>
  <property name="meta.media.0.codec.frame_rate">60</property>
  <property name="meta.media.0.codec.pix_fmt">yuv444p</property>
  <property name="meta.media.0.codec.sample_aspect_ratio">1</property>
  <property name="meta.media.0.codec.colorspace">709</property>
  <property name="meta.media.0.codec.color_trc">1</property>
  <property name="meta.media.0.codec.name">h264</property>
  <property name="meta.media.0.codec.long_name">H.264 / AVC / MPEG-4 AVC / MPEG-4 part 10</property>
  <property name="meta.media.0.codec.bit_rate">292896</property>
  <property name="meta.attr.0.stream.creation_time.markup">2020-08-06T13:21:34.000000Z</property>
  <property name="meta.attr.0.stream.handler_name.markup">VideoHandler</property>
  <property name="meta.attr.major_brand.markup">mp42</property>
  <property name="meta.attr.minor_version.markup">0</property>
  <property name="meta.attr.compatible_brands.markup">mp42mp41isomiso2</property>
  <property name="meta.attr.creation_time.markup">2020-08-06T13:21:34.000000Z</property>
  <property name="meta.attr.encoder.markup">x264</property>
  <property name="seekable">1</property>
  <property name="meta.media.sample_aspect_num">1</property>
  <property name="meta.media.sample_aspect_den">1</property>
  <property name="aspect_ratio">1</property>
  <property name="audio_index">-1</property>
  <property name="video_index">0</property>
  <property name="mute_on_pause">0</property>
  <property name="mlt_service">avformat-novalidate</property>
  <property name="kdenlive:clipname"/>
  <property name="kdenlive:folderid">-1</property>
  <property name="meta.media.frame_rate_num">60</property>
  <property name="meta.media.frame_rate_den">1</property>
  <property name="meta.media.colorspace">709</property>
  <property name="meta.media.color_trc">1</property>
  <property name="meta.media.width">1366</property>
  <property name="meta.media.height">740</property>
  <property name="meta.media.color_range">mpeg</property>
  <property name="kdenlive:id">32</property>
  <property name="kdenlive:file_size">1096666</property>
  <property name="kdenlive:file_hash">bb14d84b6646c06f31f70271d3494562</property>
  <property name="meta.media.top_field_first">0</property>
  <property name="meta.media.progressive">1</property>
  <property name="global_feed">1</property>
 </producer>
 <producer id="producer30" in="00:00:00.000" out="00:00:22.767">
  <property name="length">684</property>
  <property name="eof">pause</property>
  <property name="resource">/home/toothlexx/Desktop/Golden Rule Video Content/Audio/part7.mp3</property>
  <property name="meta.media.nb_streams">1</property>
  <property name="meta.media.0.stream.type">audio</property>
  <property name="meta.media.0.codec.sample_fmt">fltp</property>
  <property name="meta.media.0.codec.sample_rate">44100</property>
  <property name="meta.media.0.codec.channels">2</property>
  <property name="meta.media.0.codec.name">mp3float</property>
  <property name="meta.media.0.codec.long_name">MP3 (MPEG audio layer 3)</property>
  <property name="meta.media.0.codec.bit_rate">320000</property>
  <property name="meta.attr.0.stream.encoder.markup">LAME3.100</property>
  <property name="meta.attr.title.markup">8 Golden Rule Track</property>
  <property name="meta.attr.artist.markup">Prajeet Shrestha</property>
  <property name="seekable">1</property>
  <property name="audio_index">0</property>
  <property name="video_index">-1</property>
  <property name="mute_on_pause">1</property>
  <property name="mlt_service">avformat</property>
  <property name="kdenlive:clipname"/>
  <property name="kdenlive:folderid">-1</property>
  <property name="kdenlive:id">33</property>
  <property name="kdenlive:file_size">913319</property>
  <property name="kdenlive:file_hash">11ac1e3b530677b182d2e532f123ae97</property>
  <property name="global_feed">1</property>
 </producer>
 <producer id="producer31" in="00:00:00.000" out="00:00:04.967">
  <property name="length">150</property>
  <property name="eof">pause</property>
  <property name="resource">/home/toothlexx/Desktop/Golden Rule Video Content/Parts/Rule8clip.mp4</property>
  <property name="meta.media.nb_streams">1</property>
  <property name="meta.media.0.stream.type">video</property>
  <property name="meta.media.0.stream.frame_rate">30</property>
  <property name="meta.media.0.stream.sample_aspect_ratio">1</property>
  <property name="meta.media.0.codec.width">1920</property>
  <property name="meta.media.0.codec.height">1080</property>
  <property name="meta.media.0.codec.rotate">0</property>
  <property name="meta.media.0.codec.frame_rate">30</property>
  <property name="meta.media.0.codec.pix_fmt">yuv420p</property>
  <property name="meta.media.0.codec.sample_aspect_ratio">1</property>
  <property name="meta.media.0.codec.colorspace">709</property>
  <property name="meta.media.0.codec.color_trc">1</property>
  <property name="meta.media.0.codec.name">h264</property>
  <property name="meta.media.0.codec.long_name">H.264 / AVC / MPEG-4 AVC / MPEG-4 part 10</property>
  <property name="meta.media.0.codec.bit_rate">905262</property>
  <property name="meta.attr.0.stream.handler_name.markup">VideoHandler</property>
  <property name="meta.attr.major_brand.markup">isom</property>
  <property name="meta.attr.minor_version.markup">512</property>
  <property name="meta.attr.compatible_brands.markup">isomiso2avc1mp41</property>
  <property name="meta.attr.encoder.markup">Lavf58.29.100</property>
  <property name="seekable">1</property>
  <property name="meta.media.sample_aspect_num">1</property>
  <property name="meta.media.sample_aspect_den">1</property>
  <property name="aspect_ratio">1</property>
  <property name="audio_index">-1</property>
  <property name="video_index">0</property>
  <property name="mute_on_pause">0</property>
  <property name="mlt_service">avformat-novalidate</property>
  <property name="kdenlive:clipname"/>
  <property name="kdenlive:folderid">-1</property>
  <property name="meta.media.frame_rate_num">30</property>
  <property name="meta.media.frame_rate_den">1</property>
  <property name="meta.media.colorspace">709</property>
  <property name="meta.media.color_trc">1</property>
  <property name="meta.media.width">1920</property>
  <property name="meta.media.height">1080</property>
  <property name="meta.media.color_range">mpeg</property>
  <property name="kdenlive:id">34</property>
  <property name="kdenlive:file_size">568429</property>
  <property name="kdenlive:file_hash">4c064f5a284c46788b6df8fca8314e38</property>
  <property name="meta.media.top_field_first">0</property>
  <property name="meta.media.progressive">1</property>
  <property name="global_feed">1</property>
 </producer>
 <producer id="producer32" in="00:00:00.000" out="00:00:04.967">
  <property name="length">150</property>
  <property name="eof">pause</property>
  <property name="resource">/home/toothlexx/Desktop/Golden Rule Video Content/Parts/endvideoouttro.mp4</property>
  <property name="meta.media.nb_streams">1</property>
  <property name="meta.media.0.stream.type">video</property>
  <property name="meta.media.0.stream.frame_rate">30</property>
  <property name="meta.media.0.stream.sample_aspect_ratio">1</property>
  <property name="meta.media.0.codec.width">1920</property>
  <property name="meta.media.0.codec.height">1080</property>
  <property name="meta.media.0.codec.rotate">0</property>
  <property name="meta.media.0.codec.frame_rate">30</property>
  <property name="meta.media.0.codec.pix_fmt">yuv420p</property>
  <property name="meta.media.0.codec.sample_aspect_ratio">1</property>
  <property name="meta.media.0.codec.colorspace">709</property>
  <property name="meta.media.0.codec.color_trc">1</property>
  <property name="meta.media.0.codec.name">h264</property>
  <property name="meta.media.0.codec.long_name">H.264 / AVC / MPEG-4 AVC / MPEG-4 part 10</property>
  <property name="meta.media.0.codec.bit_rate">127409</property>
  <property name="meta.attr.0.stream.handler_name.markup">VideoHandler</property>
  <property name="meta.attr.major_brand.markup">isom</property>
  <property name="meta.attr.minor_version.markup">512</property>
  <property name="meta.attr.compatible_brands.markup">isomiso2avc1mp41</property>
  <property name="meta.attr.encoder.markup">Lavf58.29.100</property>
  <property name="seekable">1</property>
  <property name="meta.media.sample_aspect_num">1</property>
  <property name="meta.media.sample_aspect_den">1</property>
  <property name="aspect_ratio">1</property>
  <property name="audio_index">-1</property>
  <property name="video_index">0</property>
  <property name="mute_on_pause">0</property>
  <property name="mlt_service">avformat-novalidate</property>
  <property name="kdenlive:clipname"/>
  <property name="kdenlive:folderid">-1</property>
  <property name="meta.media.frame_rate_num">30</property>
  <property name="meta.media.frame_rate_den">1</property>
  <property name="meta.media.colorspace">709</property>
  <property name="meta.media.color_trc">1</property>
  <property name="meta.media.width">1920</property>
  <property name="meta.media.height">1080</property>
  <property name="meta.media.color_range">mpeg</property>
  <property name="kdenlive:id">35</property>
  <property name="kdenlive:file_size">82263</property>
  <property name="kdenlive:file_hash">d2ce4d41309f2db02c2f1ac1c409efce</property>
  <property name="meta.media.top_field_first">0</property>
  <property name="meta.media.progressive">1</property>
  <property name="global_feed">1</property>
 </producer>
 <producer id="producer33" in="00:00:00.000" out="00:00:04.967">
  <property name="length">150</property>
  <property name="eof">pause</property>
  <property name="resource">/home/toothlexx/Downloads/Credits.mp4</property>
  <property name="meta.media.nb_streams">1</property>
  <property name="meta.media.0.stream.type">video</property>
  <property name="meta.media.0.stream.frame_rate">30</property>
  <property name="meta.media.0.stream.sample_aspect_ratio">1</property>
  <property name="meta.media.0.codec.width">1920</property>
  <property name="meta.media.0.codec.height">1080</property>
  <property name="meta.media.0.codec.rotate">0</property>
  <property name="meta.media.0.codec.frame_rate">30</property>
  <property name="meta.media.0.codec.pix_fmt">yuv420p</property>
  <property name="meta.media.0.codec.sample_aspect_ratio">1</property>
  <property name="meta.media.0.codec.colorspace">709</property>
  <property name="meta.media.0.codec.color_trc">1</property>
  <property name="meta.media.0.codec.name">h264</property>
  <property name="meta.media.0.codec.long_name">H.264 / AVC / MPEG-4 AVC / MPEG-4 part 10</property>
  <property name="meta.media.0.codec.bit_rate">607440</property>
  <property name="meta.attr.0.stream.handler_name.markup">VideoHandler</property>
  <property name="meta.attr.major_brand.markup">isom</property>
  <property name="meta.attr.minor_version.markup">512</property>
  <property name="meta.attr.compatible_brands.markup">isomiso2avc1mp41</property>
  <property name="meta.attr.encoder.markup">Lavf58.29.100</property>
  <property name="seekable">1</property>
  <property name="meta.media.sample_aspect_num">1</property>
  <property name="meta.media.sample_aspect_den">1</property>
  <property name="aspect_ratio">1</property>
  <property name="audio_index">-1</property>
  <property name="video_index">0</property>
  <property name="mute_on_pause">0</property>
  <property name="mlt_service">avformat-novalidate</property>
  <property name="kdenlive:clipname"/>
  <property name="kdenlive:folderid">-1</property>
  <property name="meta.media.frame_rate_num">30</property>
  <property name="meta.media.frame_rate_den">1</property>
  <property name="meta.media.colorspace">709</property>
  <property name="meta.media.color_trc">1</property>
  <property name="meta.media.width">1920</property>
  <property name="meta.media.height">1080</property>
  <property name="meta.media.color_range">mpeg</property>
  <property name="kdenlive:id">36</property>
  <property name="kdenlive:file_size">382266</property>
  <property name="kdenlive:file_hash">a121a43440a3567aaf25db88e206de90</property>
  <property name="meta.media.top_field_first">0</property>
  <property name="meta.media.progressive">1</property>
  <property name="global_feed">1</property>
 </producer>
 <producer id="producer34" in="00:00:00.000" out="00:00:23.867">
  <property name="length">717</property>
  <property name="eof">pause</property>
  <property name="resource">/home/toothlexx/Desktop/Golden Rule Video Content/Audio/part8.mp3</property>
  <property name="meta.media.nb_streams">1</property>
  <property name="meta.media.0.stream.type">audio</property>
  <property name="meta.media.0.codec.sample_fmt">fltp</property>
  <property name="meta.media.0.codec.sample_rate">44100</property>
  <property name="meta.media.0.codec.channels">2</property>
  <property name="meta.media.0.codec.name">mp3float</property>
  <property name="meta.media.0.codec.long_name">MP3 (MPEG audio layer 3)</property>
  <property name="meta.media.0.codec.bit_rate">320000</property>
  <property name="meta.attr.0.stream.encoder.markup">LAME3.100</property>
  <property name="meta.attr.title.markup">8 Golden Rule Track</property>
  <property name="meta.attr.artist.markup">Prajeet Shrestha</property>
  <property name="seekable">1</property>
  <property name="audio_index">0</property>
  <property name="video_index">-1</property>
  <property name="mute_on_pause">1</property>
  <property name="mlt_service">avformat</property>
  <property name="kdenlive:clipname"/>
  <property name="kdenlive:folderid">-1</property>
  <property name="kdenlive:id">37</property>
  <property name="kdenlive:file_size">957204</property>
  <property name="kdenlive:file_hash">15860cdac592d2895dbe455439afef51</property>
  <property name="global_feed">1</property>
 </producer>
 <producer id="producer35" in="00:00:00.000" out="00:01:02.533">
  <property name="length">1877</property>
  <property name="eof">pause</property>
  <property name="resource">/home/toothlexx/Desktop/Golden Rule Video Content/Parts/part8middle.mp4</property>
  <property name="meta.media.nb_streams">1</property>
  <property name="meta.media.0.stream.type">video</property>
  <property name="meta.media.0.stream.frame_rate">60</property>
  <property name="meta.media.0.stream.sample_aspect_ratio">1</property>
  <property name="meta.media.0.codec.width">1366</property>
  <property name="meta.media.0.codec.height">740</property>
  <property name="meta.media.0.codec.rotate">0</property>
  <property name="meta.media.0.codec.frame_rate">60</property>
  <property name="meta.media.0.codec.pix_fmt">yuv444p</property>
  <property name="meta.media.0.codec.sample_aspect_ratio">1</property>
  <property name="meta.media.0.codec.colorspace">709</property>
  <property name="meta.media.0.codec.color_trc">1</property>
  <property name="meta.media.0.codec.name">h264</property>
  <property name="meta.media.0.codec.long_name">H.264 / AVC / MPEG-4 AVC / MPEG-4 part 10</property>
  <property name="meta.media.0.codec.bit_rate">3109583</property>
  <property name="meta.attr.0.stream.creation_time.markup">2020-08-06T09:30:58.000000Z</property>
  <property name="meta.attr.0.stream.handler_name.markup">VideoHandler</property>
  <property name="meta.attr.major_brand.markup">mp42</property>
  <property name="meta.attr.minor_version.markup">0</property>
  <property name="meta.attr.compatible_brands.markup">mp42mp41isomiso2</property>
  <property name="meta.attr.creation_time.markup">2020-08-06T09:30:58.000000Z</property>
  <property name="meta.attr.encoder.markup">x264</property>
  <property name="seekable">1</property>
  <property name="meta.media.sample_aspect_num">1</property>
  <property name="meta.media.sample_aspect_den">1</property>
  <property name="aspect_ratio">1</property>
  <property name="audio_index">-1</property>
  <property name="video_index">0</property>
  <property name="mute_on_pause">0</property>
  <property name="mlt_service">avformat-novalidate</property>
  <property name="kdenlive:clipname"/>
  <property name="kdenlive:folderid">-1</property>
  <property name="meta.media.frame_rate_num">60</property>
  <property name="meta.media.frame_rate_den">1</property>
  <property name="meta.media.colorspace">709</property>
  <property name="meta.media.color_trc">1</property>
  <property name="meta.media.width">1366</property>
  <property name="meta.media.height">740</property>
  <property name="meta.media.color_range">mpeg</property>
  <property name="kdenlive:id">38</property>
  <property name="kdenlive:file_size">24335498</property>
  <property name="kdenlive:file_hash">af685f648251fee0bcfd0ad723b6073f</property>
  <property name="meta.media.top_field_first">0</property>
  <property name="meta.media.progressive">1</property>
  <property name="global_feed">1</property>
 </producer>
 <producer id="producer36" in="00:00:00.000" out="00:01:00.300">
  <property name="length">1810</property>
  <property name="eof">pause</property>
  <property name="resource">/home/toothlexx/Desktop/Golden Rule Video Content/Parts/part4minddle.mp4</property>
  <property name="meta.media.nb_streams">1</property>
  <property name="meta.media.0.stream.type">video</property>
  <property name="meta.media.0.stream.frame_rate">60</property>
  <property name="meta.media.0.stream.sample_aspect_ratio">1</property>
  <property name="meta.media.0.codec.width">1366</property>
  <property name="meta.media.0.codec.height">740</property>
  <property name="meta.media.0.codec.rotate">0</property>
  <property name="meta.media.0.codec.frame_rate">60</property>
  <property name="meta.media.0.codec.pix_fmt">yuv444p</property>
  <property name="meta.media.0.codec.sample_aspect_ratio">1</property>
  <property name="meta.media.0.codec.colorspace">709</property>
  <property name="meta.media.0.codec.color_trc">1</property>
  <property name="meta.media.0.codec.name">h264</property>
  <property name="meta.media.0.codec.long_name">H.264 / AVC / MPEG-4 AVC / MPEG-4 part 10</property>
  <property name="meta.media.0.codec.bit_rate">6432669</property>
  <property name="meta.attr.0.stream.creation_time.markup">2020-08-06T14:29:25.000000Z</property>
  <property name="meta.attr.0.stream.handler_name.markup">VideoHandler</property>
  <property name="meta.attr.major_brand.markup">mp42</property>
  <property name="meta.attr.minor_version.markup">0</property>
  <property name="meta.attr.compatible_brands.markup">mp42mp41isomiso2</property>
  <property name="meta.attr.creation_time.markup">2020-08-06T14:29:25.000000Z</property>
  <property name="meta.attr.encoder.markup">x264</property>
  <property name="seekable">1</property>
  <property name="meta.media.sample_aspect_num">1</property>
  <property name="meta.media.sample_aspect_den">1</property>
  <property name="aspect_ratio">1</property>
  <property name="audio_index">-1</property>
  <property name="video_index">0</property>
  <property name="mute_on_pause">0</property>
  <property name="mlt_service">avformat-novalidate</property>
  <property name="kdenlive:clipname"/>
  <property name="kdenlive:folderid">-1</property>
  <property name="meta.media.frame_rate_num">60</property>
  <property name="meta.media.frame_rate_den">1</property>
  <property name="meta.media.colorspace">709</property>
  <property name="meta.media.color_trc">1</property>
  <property name="meta.media.width">1366</property>
  <property name="meta.media.height">740</property>
  <property name="meta.media.color_range">mpeg</property>
  <property name="kdenlive:id">39</property>
  <property name="kdenlive:file_size">48528472</property>
  <property name="kdenlive:file_hash">1b9ac66b9cbc291620986f0f51da84d8</property>
  <property name="meta.media.top_field_first">0</property>
  <property name="meta.media.progressive">1</property>
  <property name="global_feed">1</property>
 </producer>
 <producer id="producer37" in="00:00:00.000" out="00:00:21.233">
  <property name="length">638</property>
  <property name="eof">pause</property>
  <property name="resource">/home/toothlexx/Desktop/Golden Rule Video Content/Audio/lastpart.mp3</property>
  <property name="meta.media.nb_streams">1</property>
  <property name="meta.media.0.stream.type">audio</property>
  <property name="meta.media.0.codec.sample_fmt">fltp</property>
  <property name="meta.media.0.codec.sample_rate">44100</property>
  <property name="meta.media.0.codec.channels">2</property>
  <property name="meta.media.0.codec.name">mp3float</property>
  <property name="meta.media.0.codec.long_name">MP3 (MPEG audio layer 3)</property>
  <property name="meta.media.0.codec.bit_rate">320000</property>
  <property name="meta.attr.0.stream.encoder.markup">LAME3.100</property>
  <property name="meta.attr.title.markup">8 Golden Rule Track</property>
  <property name="meta.attr.artist.markup">Prajeet Shrestha</property>
  <property name="seekable">1</property>
  <property name="audio_index">0</property>
  <property name="video_index">-1</property>
  <property name="mute_on_pause">1</property>
  <property name="mlt_service">avformat</property>
  <property name="kdenlive:clipname"/>
  <property name="kdenlive:folderid">-1</property>
  <property name="kdenlive:id">40</property>
  <property name="kdenlive:file_size">851670</property>
  <property name="kdenlive:file_hash">d4d637af47415bddffe4df2275887ec5</property>
  <property name="global_feed">1</property>
 </producer>
 <producer id="producer38" in="00:00:00.000" out="00:01:02.533">
  <property name="length">1877</property>
  <property name="eof">pause</property>
  <property name="resource">/home/toothlexx/Desktop/Golden Rule Video Content/Parts/part4middle.mp4</property>
  <property name="audio_index">-1</property>
  <property name="video_index">0</property>
  <property name="mute_on_pause">0</property>
  <property name="mlt_service">avformat-novalidate</property>
  <property name="seekable">1</property>
  <property name="aspect_ratio">1</property>
  <property name="kdenlive:clipname"/>
  <property name="kdenlive:folderid">-1</property>
  <property name="kdenlive:id">21</property>
  <property name="kdenlive:file_size">24335498</property>
  <property name="kdenlive:file_hash">af685f648251fee0bcfd0ad723b6073f</property>
  <property name="global_feed">1</property>
  <property name="meta.media.nb_streams">1</property>
  <property name="meta.media.0.stream.type">video</property>
  <property name="meta.media.0.stream.frame_rate">60</property>
  <property name="meta.media.0.stream.sample_aspect_ratio">1</property>
  <property name="meta.media.0.codec.width">1366</property>
  <property name="meta.media.0.codec.height">740</property>
  <property name="meta.media.0.codec.rotate">0</property>
  <property name="meta.media.0.codec.frame_rate">60</property>
  <property name="meta.media.0.codec.pix_fmt">yuv444p</property>
  <property name="meta.media.0.codec.sample_aspect_ratio">1</property>
  <property name="meta.media.0.codec.colorspace">709</property>
  <property name="meta.media.0.codec.color_trc">1</property>
  <property name="meta.media.0.codec.name">h264</property>
  <property name="meta.media.0.codec.long_name">H.264 / AVC / MPEG-4 AVC / MPEG-4 part 10</property>
  <property name="meta.media.0.codec.bit_rate">3109583</property>
  <property name="meta.attr.0.stream.creation_time.markup">2020-08-06T09:30:58.000000Z</property>
  <property name="meta.attr.0.stream.handler_name.markup">VideoHandler</property>
  <property name="meta.attr.major_brand.markup">mp42</property>
  <property name="meta.attr.minor_version.markup">0</property>
  <property name="meta.attr.compatible_brands.markup">mp42mp41isomiso2</property>
  <property name="meta.attr.creation_time.markup">2020-08-06T09:30:58.000000Z</property>
  <property name="meta.attr.encoder.markup">x264</property>
  <property name="meta.media.sample_aspect_num">1</property>
  <property name="meta.media.sample_aspect_den">1</property>
  <property name="meta.media.frame_rate_num">60</property>
  <property name="meta.media.frame_rate_den">1</property>
  <property name="meta.media.colorspace">709</property>
  <property name="meta.media.color_trc">1</property>
  <property name="meta.media.width">1366</property>
  <property name="meta.media.height">740</property>
  <property name="meta.media.color_range">mpeg</property>
 </producer>
 <playlist id="main_bin">
  <property name="kdenlive:docproperties.activeTrack">0</property>
  <property name="kdenlive:docproperties.audioTarget">1</property>
  <property name="kdenlive:docproperties.decimalPoint">.</property>
  <property name="kdenlive:docproperties.disablepreview">0</property>
  <property name="kdenlive:docproperties.documentid">1596682710269</property>
  <property name="kdenlive:docproperties.enableTimelineZone">0</property>
  <property name="kdenlive:docproperties.enableexternalproxy">0</property>
  <property name="kdenlive:docproperties.enableproxy">0</property>
  <property name="kdenlive:docproperties.externalproxyparams"/>
  <property name="kdenlive:docproperties.generateimageproxy">0</property>
  <property name="kdenlive:docproperties.generateproxy">0</property>
  <property name="kdenlive:docproperties.groups">[
    {
        "children": [
            {
                "data": "3:5341",
                "leaf": "clip",
                "type": "Leaf"
            },
            {
                "data": "3:3463",
                "leaf": "clip",
                "type": "Leaf"
            },
            {
                "data": "0:8284",
                "leaf": "clip",
                "type": "Leaf"
            },
            {
                "data": "3:4506",
                "leaf": "clip",
                "type": "Leaf"
            },
            {
                "data": "3:2914",
                "leaf": "clip",
                "type": "Leaf"
            },
            {
                "data": "0:5348",
                "leaf": "clip",
                "type": "Leaf"
            },
            {
                "data": "0:3313",
                "leaf": "clip",
                "type": "Leaf"
            },
            {
                "data": "3:7717",
                "leaf": "clip",
                "type": "Leaf"
            },
            {
                "data": "3:3313",
                "leaf": "clip",
                "type": "Leaf"
            },
            {
                "data": "3:5208",
                "leaf": "clip",
                "type": "Leaf"
            },
            {
                "data": "3:815",
                "leaf": "clip",
                "type": "Leaf"
            },
            {
                "data": "3:8364",
                "leaf": "clip",
                "type": "Leaf"
            },
            {
                "data": "0:4342",
                "leaf": "clip",
                "type": "Leaf"
            },
            {
                "data": "3:8747",
                "leaf": "clip",
                "type": "Leaf"
            },
            {
                "data": "3:2420",
                "leaf": "clip",
                "type": "Leaf"
            },
            {
                "data": "3:8897",
                "leaf": "clip",
                "type": "Leaf"
            },
            {
                "data": "3:4177",
                "leaf": "clip",
                "type": "Leaf"
            },
            {
                "data": "3:473",
                "leaf": "clip",
                "type": "Leaf"
            },
            {
                "data": "3:1172",
                "leaf": "clip",
                "type": "Leaf"
            },
            {
                "data": "0:6839",
                "leaf": "clip",
                "type": "Leaf"
            },
            {
                "data": "3:5491",
                "leaf": "clip",
                "type": "Leaf"
            },
            {
                "data": "3:6839",
                "leaf": "clip",
                "type": "Leaf"
            },
            {
                "data": "3:665",
                "leaf": "clip",
                "type": "Leaf"
            },
            {
                "data": "3:6989",
                "leaf": "clip",
                "type": "Leaf"
            },
            {
                "data": "3:203",
                "leaf": "clip",
                "type": "Leaf"
            },
            {
                "data": "1:7654",
                "leaf": "clip",
                "type": "Leaf"
            },
            {
                "data": "3:7567",
                "leaf": "clip",
                "type": "Leaf"
            },
            {
                "data": "3:1252",
                "leaf": "clip",
                "type": "Leaf"
            },
            {
                "data": "0:6255",
                "leaf": "clip",
                "type": "Leaf"
            },
            {
                "data": "1:3827",
                "leaf": "clip",
                "type": "Leaf"
            },
            {
                "data": "3:2570",
                "leaf": "clip",
                "type": "Leaf"
            },
            {
                "data": "3:3827",
                "leaf": "clip",
                "type": "Leaf"
            },
            {
                "data": "3:0",
                "leaf": "clip",
                "type": "Leaf"
            },
            {
                "data": "3:4356",
                "leaf": "clip",
                "type": "Leaf"
            },
            {
                "data": "3:2764",
                "leaf": "clip",
                "type": "Leaf"
            },
            {
                "data": "3:1745",
                "leaf": "clip",
                "type": "Leaf"
            },
            {
                "data": "0:7567",
                "leaf": "clip",
                "type": "Leaf"
            },
            {
                "data": "3:6396",
                "leaf": "clip",
                "type": "Leaf"
            },
            {
                "data": "1:0",
                "leaf": "clip",
                "type": "Leaf"
            },
            {
                "data": "3:6246",
                "leaf": "clip",
                "type": "Leaf"
            },
            {
                "data": "0:2420",
                "leaf": "clip",
                "type": "Leaf"
            },
            {
                "data": "0:3",
                "leaf": "clip",
                "type": "Leaf"
            },
            {
                "data": "3:6051",
                "leaf": "clip",
                "type": "Leaf"
            },
            {
                "data": "3:1572",
                "leaf": "clip",
                "type": "Leaf"
            },
            {
                "data": "0:1172",
                "leaf": "clip",
                "type": "Leaf"
            }
        ],
        "type": "Selection"
    }
]
</property>
  <property name="kdenlive:docproperties.kdenliveversion">20.04.1</property>
  <property name="kdenlive:docproperties.position">497</property>
  <property name="kdenlive:docproperties.previewextension"/>
  <property name="kdenlive:docproperties.previewparameters"/>
  <property name="kdenlive:docproperties.profile">atsc_1080p_30</property>
  <property name="kdenlive:docproperties.proxyextension"/>
  <property name="kdenlive:docproperties.proxyimageminsize">2000</property>
  <property name="kdenlive:docproperties.proxyimagesize">800</property>
  <property name="kdenlive:docproperties.proxyminsize">1000</property>
  <property name="kdenlive:docproperties.proxyparams"/>
  <property name="kdenlive:docproperties.renderaudioquality">160</property>
  <property name="kdenlive:docproperties.rendercategory">Ultra-High Definition (4K)</property>
  <property name="kdenlive:docproperties.renderendguide">-1</property>
  <property name="kdenlive:docproperties.renderexportaudio">0</property>
  <property name="kdenlive:docproperties.renderfield">0</property>
  <property name="kdenlive:docproperties.renderguide">0</property>
  <property name="kdenlive:docproperties.renderplay">0</property>
  <property name="kdenlive:docproperties.renderprofile">MP4-H265 (HEVC)</property>
  <property name="kdenlive:docproperties.renderquality">20</property>
  <property name="kdenlive:docproperties.renderratio">1</property>
  <property name="kdenlive:docproperties.renderrescale">0</property>
  <property name="kdenlive:docproperties.renderrescaleheight">540</property>
  <property name="kdenlive:docproperties.renderrescalewidth">960</property>
  <property name="kdenlive:docproperties.renderscanning">0</property>
  <property name="kdenlive:docproperties.renderspeed">2</property>
  <property name="kdenlive:docproperties.renderstartguide">-1</property>
  <property name="kdenlive:docproperties.rendertcoverlay">0</property>
  <property name="kdenlive:docproperties.rendertctype">0</property>
  <property name="kdenlive:docproperties.rendertwopass">0</property>
  <property name="kdenlive:docproperties.renderurl">8GolderRule.mp4</property>
  <property name="kdenlive:docproperties.renderzone">0</property>
  <property name="kdenlive:docproperties.scrollPos">0</property>
  <property name="kdenlive:docproperties.seekOffset">30000</property>
  <property name="kdenlive:docproperties.version">0.99</property>
  <property name="kdenlive:docproperties.verticalzoom">1</property>
  <property name="kdenlive:docproperties.videoTarget">2</property>
  <property name="kdenlive:docproperties.zonein">0</property>
  <property name="kdenlive:docproperties.zoneout">198</property>
  <property name="kdenlive:docproperties.zoom">9</property>
  <property name="kdenlive:documentnotes"/>
  <property name="xml_retain">1</property>
  <entry producer="producer0" in="00:00:00.000" out="00:00:04.967"/>
  <entry producer="producer1" in="00:00:00.000" out="00:00:39.567"/>
  <entry producer="producer2" in="00:00:00.000" out="00:00:04.967"/>
  <entry producer="producer3" in="00:00:00.000" out="00:00:38.933"/>
  <entry producer="producer4" in="00:00:00.000" out="00:00:04.967"/>
  <entry producer="producer5" in="00:00:00.000" out="00:00:42.967"/>
  <entry producer="producer6" in="00:00:00.000" out="00:00:31.533"/>
  <entry producer="producer7" in="00:00:00.000" out="00:00:23.833"/>
  <entry producer="producer8" in="00:00:00.000" out="00:00:05.733"/>
  <entry producer="producer9" in="00:00:00.000" out="00:00:11.467"/>
  <entry producer="producer10" in="00:00:00.000" out="00:00:29.733"/>
  <entry producer="producer11" in="00:00:00.000" out="00:00:04.967"/>
  <entry producer="producer12" in="00:00:00.000" out="00:02:07.533"/>
  <entry producer="producer13" in="00:00:00.000" out="00:00:04.967"/>
  <entry producer="producer14" in="00:00:00.000" out="00:00:34.267"/>
  <entry producer="producer15" in="00:00:00.000" out="00:00:28.933"/>
  <entry producer="producer16" in="00:00:00.000" out="00:00:04.967"/>
  <entry producer="producer17" in="00:00:00.000" out="00:00:15.700"/>
  <entry producer="producer18" in="00:00:00.000" out="00:00:04.967"/>
  <entry producer="producer19" in="00:00:00.000" out="00:00:27.900"/>
  <entry producer="producer20" in="00:00:00.000" out="00:00:04.967"/>
  <entry producer="producer21" in="00:00:00.000" out="00:00:18.633"/>
  <entry producer="producer22" in="00:00:00.000" out="00:00:25.633"/>
  <entry producer="producer23" in="00:00:00.000" out="00:00:07.700"/>
  <entry producer="producer24" in="00:00:00.000" out="00:00:04.967"/>
  <entry producer="producer25" in="00:00:00.000" out="00:00:25.633"/>
  <entry producer="producer26" in="00:00:00.000" out="00:00:17.167"/>
  <entry producer="producer27" in="00:00:00.000" out="00:00:19.433"/>
  <entry producer="producer28" in="00:00:00.000" out="00:00:04.967"/>
  <entry producer="producer29" in="00:00:00.000" out="00:00:29.700"/>
  <entry producer="producer30" in="00:00:00.000" out="00:00:22.767"/>
  <entry producer="producer31" in="00:00:00.000" out="00:00:04.967"/>
  <entry producer="producer32" in="00:00:00.000" out="00:00:04.967"/>
  <entry producer="producer33" in="00:00:00.000" out="00:00:04.967"/>
  <entry producer="producer34" in="00:00:00.000" out="00:00:23.867"/>
  <entry producer="producer35" in="00:00:00.000" out="00:01:02.533"/>
  <entry producer="producer36" in="00:00:00.000" out="00:01:00.300"/>
  <entry producer="producer37" in="00:00:00.000" out="00:00:21.233"/>
  <entry producer="producer38" in="00:00:00.000" out="00:01:02.533"/>
 </playlist>
 <producer id="black_track" in="00:00:00.000" out="00:21:41.567">
  <property name="length">2147483647</property>
  <property name="eof">continue</property>
  <property name="resource">black</property>
  <property name="aspect_ratio">1</property>
  <property name="mlt_service">color</property>
  <property name="mlt_image_format">rgb24a</property>
  <property name="set.test_audio">0</property>
 </producer>
 <producer id="producer39" in="00:00:00.000" out="00:00:38.933">
  <property name="length">1169</property>
  <property name="eof">pause</property>
  <property name="resource">/home/toothlexx/Desktop/Golden Rule Video Content/Audio/Introdution part1_data/Introdution part1.mp3</property>
  <property name="audio_index">0</property>
  <property name="video_index">-1</property>
  <property name="mute_on_pause">0</property>
  <property name="mlt_service">avformat-novalidate</property>
  <property name="meta.media.nb_streams">1</property>
  <property name="meta.media.0.stream.type">audio</property>
  <property name="meta.media.0.codec.sample_fmt">fltp</property>
  <property name="meta.media.0.codec.sample_rate">44100</property>
  <property name="meta.media.0.codec.channels">2</property>
  <property name="meta.media.0.codec.name">mp3float</property>
  <property name="meta.media.0.codec.long_name">MP3 (MPEG audio layer 3)</property>
  <property name="meta.media.0.codec.bit_rate">320000</property>
  <property name="meta.attr.0.stream.encoder.markup">LAME3.100</property>
  <property name="meta.attr.artist.markup">Prajeet</property>
  <property name="seekable">1</property>
  <property name="kdenlive:clipname"/>
  <property name="kdenlive:folderid">-1</property>
  <property name="kdenlive:id">5</property>
  <property name="kdenlive:file_size">1560071</property>
  <property name="kdenlive:file_hash">63ea4d4ea4100d3e157eed071925e67f</property>
  <property name="global_feed">1</property>
  <property name="xml">was here</property>
  <property name="set.test_audio">0</property>
  <property name="set.test_image">1</property>
 </producer>
 <producer id="producer40" in="00:00:00.000" out="00:00:42.967">
  <property name="length">1290</property>
  <property name="eof">pause</property>
  <property name="resource">/home/toothlexx/Desktop/Golden Rule Video Content/Audio/rule1.mp3</property>
  <property name="audio_index">0</property>
  <property name="video_index">-1</property>
  <property name="mute_on_pause">0</property>
  <property name="mlt_service">avformat-novalidate</property>
  <property name="meta.media.nb_streams">1</property>
  <property name="meta.media.0.stream.type">audio</property>
  <property name="meta.media.0.codec.sample_fmt">fltp</property>
  <property name="meta.media.0.codec.sample_rate">44100</property>
  <property name="meta.media.0.codec.channels">2</property>
  <property name="meta.media.0.codec.name">mp3float</property>
  <property name="meta.media.0.codec.long_name">MP3 (MPEG audio layer 3)</property>
  <property name="meta.media.0.codec.bit_rate">320000</property>
  <property name="meta.attr.0.stream.encoder.markup">LAME3.100</property>
  <property name="meta.attr.artist.markup">Prajeet</property>
  <property name="seekable">1</property>
  <property name="kdenlive:clipname"/>
  <property name="kdenlive:folderid">-1</property>
  <property name="kdenlive:id">7</property>
  <property name="kdenlive:file_size">1720986</property>
  <property name="kdenlive:file_hash">5662ee781122faf8a12b56de74743f40</property>
  <property name="global_feed">1</property>
  <property name="xml">was here</property>
  <property name="set.test_audio">0</property>
  <property name="set.test_image">1</property>
 </producer>
 <producer id="producer41" in="00:00:00.000" out="00:00:29.733">
  <property name="length">893</property>
  <property name="eof">pause</property>
  <property name="resource">/home/toothlexx/Desktop/Golden Rule Video Content/Audio/part2.mp3</property>
  <property name="audio_index">0</property>
  <property name="video_index">-1</property>
  <property name="mute_on_pause">0</property>
  <property name="mlt_service">avformat-novalidate</property>
  <property name="meta.media.nb_streams">1</property>
  <property name="meta.media.0.stream.type">audio</property>
  <property name="meta.media.0.codec.sample_fmt">fltp</property>
  <property name="meta.media.0.codec.sample_rate">44100</property>
  <property name="meta.media.0.codec.channels">2</property>
  <property name="meta.media.0.codec.name">mp3float</property>
  <property name="meta.media.0.codec.long_name">MP3 (MPEG audio layer 3)</property>
  <property name="meta.media.0.codec.bit_rate">320000</property>
  <property name="meta.attr.0.stream.encoder.markup">LAME3.100</property>
  <property name="meta.attr.title.markup">8 Golden Rule Track</property>
  <property name="meta.attr.artist.markup">Prajeet Shrestha</property>
  <property name="seekable">1</property>
  <property name="kdenlive:clipname"/>
  <property name="kdenlive:folderid">-1</property>
  <property name="kdenlive:id">12</property>
  <property name="kdenlive:file_size">1192306</property>
  <property name="kdenlive:file_hash">dfd346f6b50857c5ad55d911ac96c334</property>
  <property name="global_feed">1</property>
  <property name="xml">was here</property>
  <property name="set.test_audio">0</property>
  <property name="set.test_image">1</property>
 </producer>
 <producer id="producer42" in="00:00:00.000" out="00:00:34.267">
  <property name="length">1029</property>
  <property name="eof">pause</property>
  <property name="resource">/home/toothlexx/Desktop/Golden Rule Video Content/Audio/part3.mp3</property>
  <property name="meta.media.nb_streams">1</property>
  <property name="meta.media.0.stream.type">audio</property>
  <property name="meta.media.0.codec.sample_fmt">fltp</property>
  <property name="meta.media.0.codec.sample_rate">44100</property>
  <property name="meta.media.0.codec.channels">2</property>
  <property name="meta.media.0.codec.name">mp3float</property>
  <property name="meta.media.0.codec.long_name">MP3 (MPEG audio layer 3)</property>
  <property name="meta.media.0.codec.bit_rate">320000</property>
  <property name="meta.attr.0.stream.encoder.markup">LAME3.100</property>
  <property name="meta.attr.title.markup">8 Golden Rule Track</property>
  <property name="meta.attr.artist.markup">Prajeet Shrestha</property>
  <property name="seekable">1</property>
  <property name="audio_index">0</property>
  <property name="video_index">-1</property>
  <property name="mute_on_pause">0</property>
  <property name="mlt_service">avformat-novalidate</property>
  <property name="kdenlive:clipname"/>
  <property name="kdenlive:folderid">-1</property>
  <property name="kdenlive:id">16</property>
  <property name="kdenlive:file_size">1373074</property>
  <property name="kdenlive:file_hash">f93e44e48607ca47dcd2ba5ff7721a0a</property>
  <property name="global_feed">1</property>
  <property name="xml">was here</property>
  <property name="set.test_audio">0</property>
  <property name="set.test_image">1</property>
 </producer>
 <producer id="producer43" in="00:00:00.000" out="00:00:27.900">
  <property name="length">838</property>
  <property name="eof">pause</property>
  <property name="resource">/home/toothlexx/Desktop/Golden Rule Video Content/Audio/part4.mp3</property>
  <property name="meta.media.nb_streams">1</property>
  <property name="meta.media.0.stream.type">audio</property>
  <property name="meta.media.0.codec.sample_fmt">fltp</property>
  <property name="meta.media.0.codec.sample_rate">44100</property>
  <property name="meta.media.0.codec.channels">2</property>
  <property name="meta.media.0.codec.name">mp3float</property>
  <property name="meta.media.0.codec.long_name">MP3 (MPEG audio layer 3)</property>
  <property name="meta.media.0.codec.bit_rate">320000</property>
  <property name="meta.attr.0.stream.encoder.markup">LAME3.100</property>
  <property name="meta.attr.title.markup">8 Golden Rule Track</property>
  <property name="meta.attr.artist.markup">Prajeet Shrestha</property>
  <property name="seekable">1</property>
  <property name="audio_index">0</property>
  <property name="video_index">-1</property>
  <property name="mute_on_pause">0</property>
  <property name="mlt_service">avformat-novalidate</property>
  <property name="kdenlive:clipname"/>
  <property name="kdenlive:folderid">-1</property>
  <property name="kdenlive:id">22</property>
  <property name="kdenlive:file_size">1118119</property>
  <property name="kdenlive:file_hash">46e50a8294e8e69a51a8e5a9c14e267f</property>
  <property name="global_feed">1</property>
  <property name="xml">was here</property>
  <property name="set.test_audio">0</property>
  <property name="set.test_image">1</property>
 </producer>
 <producer id="producer44" in="00:00:00.000" out="00:00:25.633">
  <property name="length">770</property>
  <property name="eof">pause</property>
  <property name="resource">/home/toothlexx/Desktop/Golden Rule Video Content/Audio/part5.mp3</property>
  <property name="meta.media.nb_streams">1</property>
  <property name="meta.media.0.stream.type">audio</property>
  <property name="meta.media.0.codec.sample_fmt">fltp</property>
  <property name="meta.media.0.codec.sample_rate">44100</property>
  <property name="meta.media.0.codec.channels">2</property>
  <property name="meta.media.0.codec.name">mp3float</property>
  <property name="meta.media.0.codec.long_name">MP3 (MPEG audio layer 3)</property>
  <property name="meta.media.0.codec.bit_rate">320000</property>
  <property name="meta.attr.0.stream.encoder.markup">LAME3.100</property>
  <property name="meta.attr.title.markup">8 Golden Rule Track</property>
  <property name="meta.attr.artist.markup">Prajeet Shrestha</property>
  <property name="seekable">1</property>
  <property name="audio_index">0</property>
  <property name="video_index">-1</property>
  <property name="mute_on_pause">0</property>
  <property name="mlt_service">avformat-novalidate</property>
  <property name="kdenlive:clipname"/>
  <property name="kdenlive:folderid">-1</property>
  <property name="kdenlive:id">25</property>
  <property name="kdenlive:file_size">1027212</property>
  <property name="kdenlive:file_hash">24ae35a9764679b5d8f849785306213e</property>
  <property name="global_feed">1</property>
  <property name="xml">was here</property>
  <property name="set.test_audio">0</property>
  <property name="set.test_image">1</property>
 </producer>
 <producer id="producer45" in="00:00:00.000" out="00:00:19.433">
  <property name="length">584</property>
  <property name="eof">pause</property>
  <property name="resource">/home/toothlexx/Desktop/Golden Rule Video Content/Audio/part6.1.mp3</property>
  <property name="meta.media.nb_streams">1</property>
  <property name="meta.media.0.stream.type">audio</property>
  <property name="meta.media.0.codec.sample_fmt">fltp</property>
  <property name="meta.media.0.codec.sample_rate">44100</property>
  <property name="meta.media.0.codec.channels">2</property>
  <property name="meta.media.0.codec.name">mp3float</property>
  <property name="meta.media.0.codec.long_name">MP3 (MPEG audio layer 3)</property>
  <property name="meta.media.0.codec.bit_rate">320000</property>
  <property name="meta.attr.0.stream.encoder.markup">LAME3.100</property>
  <property name="meta.attr.title.markup">8 Golden Rule Track</property>
  <property name="meta.attr.artist.markup">Prajeet Shrestha</property>
  <property name="seekable">1</property>
  <property name="audio_index">0</property>
  <property name="video_index">-1</property>
  <property name="mute_on_pause">0</property>
  <property name="mlt_service">avformat-novalidate</property>
  <property name="kdenlive:clipname"/>
  <property name="kdenlive:folderid">-1</property>
  <property name="kdenlive:id">30</property>
  <property name="kdenlive:file_size">779572</property>
  <property name="kdenlive:file_hash">83e81394f14cf6deaf3c0a87c7092f3f</property>
  <property name="global_feed">1</property>
  <property name="xml">was here</property>
  <property name="set.test_audio">0</property>
  <property name="set.test_image">1</property>
 </producer>
 <producer id="producer46" in="00:00:00.000" out="00:00:22.767">
  <property name="length">684</property>
  <property name="eof">pause</property>
  <property name="resource">/home/toothlexx/Desktop/Golden Rule Video Content/Audio/part7.mp3</property>
  <property name="meta.media.nb_streams">1</property>
  <property name="meta.media.0.stream.type">audio</property>
  <property name="meta.media.0.codec.sample_fmt">fltp</property>
  <property name="meta.media.0.codec.sample_rate">44100</property>
  <property name="meta.media.0.codec.channels">2</property>
  <property name="meta.media.0.codec.name">mp3float</property>
  <property name="meta.media.0.codec.long_name">MP3 (MPEG audio layer 3)</property>
  <property name="meta.media.0.codec.bit_rate">320000</property>
  <property name="meta.attr.0.stream.encoder.markup">LAME3.100</property>
  <property name="meta.attr.title.markup">8 Golden Rule Track</property>
  <property name="meta.attr.artist.markup">Prajeet Shrestha</property>
  <property name="seekable">1</property>
  <property name="audio_index">0</property>
  <property name="video_index">-1</property>
  <property name="mute_on_pause">0</property>
  <property name="mlt_service">avformat-novalidate</property>
  <property name="kdenlive:clipname"/>
  <property name="kdenlive:folderid">-1</property>
  <property name="kdenlive:id">33</property>
  <property name="kdenlive:file_size">913319</property>
  <property name="kdenlive:file_hash">11ac1e3b530677b182d2e532f123ae97</property>
  <property name="global_feed">1</property>
  <property name="xml">was here</property>
  <property name="set.test_audio">0</property>
  <property name="set.test_image">1</property>
 </producer>
 <producer id="producer47" in="00:00:00.000" out="00:00:23.867">
  <property name="length">717</property>
  <property name="eof">pause</property>
  <property name="resource">/home/toothlexx/Desktop/Golden Rule Video Content/Audio/part8.mp3</property>
  <property name="meta.media.nb_streams">1</property>
  <property name="meta.media.0.stream.type">audio</property>
  <property name="meta.media.0.codec.sample_fmt">fltp</property>
  <property name="meta.media.0.codec.sample_rate">44100</property>
  <property name="meta.media.0.codec.channels">2</property>
  <property name="meta.media.0.codec.name">mp3float</property>
  <property name="meta.media.0.codec.long_name">MP3 (MPEG audio layer 3)</property>
  <property name="meta.media.0.codec.bit_rate">320000</property>
  <property name="meta.attr.0.stream.encoder.markup">LAME3.100</property>
  <property name="meta.attr.title.markup">8 Golden Rule Track</property>
  <property name="meta.attr.artist.markup">Prajeet Shrestha</property>
  <property name="seekable">1</property>
  <property name="audio_index">0</property>
  <property name="video_index">-1</property>
  <property name="mute_on_pause">0</property>
  <property name="mlt_service">avformat-novalidate</property>
  <property name="kdenlive:clipname"/>
  <property name="kdenlive:folderid">-1</property>
  <property name="kdenlive:id">37</property>
  <property name="kdenlive:file_size">957204</property>
  <property name="kdenlive:file_hash">15860cdac592d2895dbe455439afef51</property>
  <property name="global_feed">1</property>
  <property name="xml">was here</property>
  <property name="set.test_audio">0</property>
  <property name="set.test_image">1</property>
 </producer>
 <producer id="producer48" in="00:00:00.000" out="00:00:21.233">
  <property name="length">638</property>
  <property name="eof">pause</property>
  <property name="resource">/home/toothlexx/Desktop/Golden Rule Video Content/Audio/lastpart.mp3</property>
  <property name="meta.media.nb_streams">1</property>
  <property name="meta.media.0.stream.type">audio</property>
  <property name="meta.media.0.codec.sample_fmt">fltp</property>
  <property name="meta.media.0.codec.sample_rate">44100</property>
  <property name="meta.media.0.codec.channels">2</property>
  <property name="meta.media.0.codec.name">mp3float</property>
  <property name="meta.media.0.codec.long_name">MP3 (MPEG audio layer 3)</property>
  <property name="meta.media.0.codec.bit_rate">320000</property>
  <property name="meta.attr.0.stream.encoder.markup">LAME3.100</property>
  <property name="meta.attr.title.markup">8 Golden Rule Track</property>
  <property name="meta.attr.artist.markup">Prajeet Shrestha</property>
  <property name="seekable">1</property>
  <property name="audio_index">0</property>
  <property name="video_index">-1</property>
  <property name="mute_on_pause">0</property>
  <property name="mlt_service">avformat-novalidate</property>
  <property name="kdenlive:clipname"/>
  <property name="kdenlive:folderid">-1</property>
  <property name="kdenlive:id">40</property>
  <property name="kdenlive:file_size">851670</property>
  <property name="kdenlive:file_hash">d4d637af47415bddffe4df2275887ec5</property>
  <property name="global_feed">1</property>
  <property name="xml">was here</property>
  <property name="set.test_audio">0</property>
  <property name="set.test_image">1</property>
 </producer>
 <playlist id="playlist0">
  <property name="kdenlive:audio_track">1</property>
  <blank length="00:00:00.100"/>
  <entry producer="producer39" in="00:00:00.000" out="00:00:38.933">
   <property name="kdenlive:id">5</property>
  </entry>
  <entry producer="producer40" in="00:00:00.000" out="00:00:41.567">
   <property name="kdenlive:id">7</property>
  </entry>
  <entry producer="producer41" in="00:00:00.000" out="00:00:29.733">
   <property name="kdenlive:id">12</property>
  </entry>
  <entry producer="producer42" in="00:00:00.000" out="00:00:34.267">
   <property name="kdenlive:id">16</property>
  </entry>
  <entry producer="producer43" in="00:00:00.000" out="00:00:27.900">
   <property name="kdenlive:id">22</property>
  </entry>
  <blank length="00:00:05.600"/>
  <entry producer="producer44" in="00:00:00.000" out="00:00:25.633">
   <property name="kdenlive:id">25</property>
  </entry>
  <blank length="00:00:04.567"/>
  <entry producer="producer45" in="00:00:00.000" out="00:00:19.433">
   <property name="kdenlive:id">30</property>
  </entry>
  <entry producer="producer46" in="00:00:00.000" out="00:00:22.767">
   <property name="kdenlive:id">33</property>
  </entry>
  <blank length="00:00:01.467"/>
  <entry producer="producer47" in="00:00:00.000" out="00:00:23.867">
   <property name="kdenlive:id">37</property>
   <property name="kdenlive:activeeffect">0</property>
   <filter id="filter0">
    <property name="window">75</property>
    <property name="max_gain">20dB</property>
    <property name="level">00:00:00.000=0</property>
    <property name="mlt_service">volume</property>
    <property name="kdenlive_id">volume</property>
    <property name="kdenlive:collapsed">0</property>
   </filter>
  </entry>
  <entry producer="producer48" in="00:00:00.000" out="00:00:21.233">
   <property name="kdenlive:id">40</property>
   <property name="kdenlive:activeeffect">0</property>
   <filter id="filter1">
    <property name="window">75</property>
    <property name="max_gain">20dB</property>
    <property name="level">00:00:00.000=0</property>
    <property name="mlt_service">volume</property>
    <property name="kdenlive_id">volume</property>
    <property name="kdenlive:collapsed">0</property>
   </filter>
  </entry>
  <filter id="filter2">
   <property name="window">75</property>
   <property name="max_gain">20dB</property>
   <property name="mlt_service">volume</property>
   <property name="internal_added">237</property>
   <property name="disable">1</property>
  </filter>
  <filter id="filter3">
   <property name="channel">-1</property>
   <property name="mlt_service">panner</property>
   <property name="internal_added">237</property>
   <property name="start">0.5</property>
   <property name="disable">1</property>
  </filter>
 </playlist>
 <playlist id="playlist1">
  <property name="kdenlive:audio_track">1</property>
 </playlist>
 <tractor id="tractor0" in="00:00:00.000" out="00:04:57.367">
  <property name="kdenlive:audio_track">1</property>
  <property name="kdenlive:trackheight">69</property>
  <property name="kdenlive:collapsed">0</property>
  <property name="kdenlive:thumbs_format"/>
  <property name="kdenlive:audio_rec"/>
  <property name="kdenlive:timeline_active">1</property>
  <property name="kdenlive:locked_track"/>
  <track hide="video" producer="playlist0"/>
  <track hide="video" producer="playlist1"/>
  <filter id="filter4">
   <property name="iec_scale">0</property>
   <property name="mlt_service">audiolevel</property>
   <property name="disable">1</property>
  </filter>
 </tractor>
 <producer id="producer49" in="00:00:00.000" out="00:02:07.533">
  <property name="length">3827</property>
  <property name="eof">pause</property>
  <property name="resource">/home/toothlexx/Downloads/Background Music for Presentation Videos.mp3</property>
  <property name="audio_index">0</property>
  <property name="video_index">-1</property>
  <property name="mute_on_pause">0</property>
  <property name="mlt_service">avformat-novalidate</property>
  <property name="meta.media.nb_streams">1</property>
  <property name="meta.media.0.stream.type">audio</property>
  <property name="meta.media.0.codec.sample_fmt">fltp</property>
  <property name="meta.media.0.codec.sample_rate">48000</property>
  <property name="meta.media.0.codec.channels">2</property>
  <property name="meta.media.0.codec.name">mp3float</property>
  <property name="meta.media.0.codec.long_name">MP3 (MPEG audio layer 3)</property>
  <property name="meta.media.0.codec.bit_rate">256000</property>
  <property name="meta.attr.0.stream.encoder.markup">Lavc58.35</property>
  <property name="meta.attr.artist.markup">WaveToys - Background Music For Videos</property>
  <property name="meta.attr.title.markup">Background Music for Presentation Videos</property>
  <property name="meta.attr.date.markup">20180315</property>
  <property name="meta.attr.description.markup">Background Music for Presentation Videos:
Corporate background music that works great as background music for presentations.
BUY THIS MUSIC FOR VIDEOS: https://1.envato.market/9MWNE

Name of the song: Corporation (Inspirational Corporate Background)

About:
Beautiful elegant and uplifting song that will sit perfectly in your video project,radio commercials, corporate presentations, explainers and many other… It has very nice flow and it’s subtle and ideal for corporate background music. Ideal for geting inspirational and uplifting feeling in your projects without distracting from video or taking too much attention.

4 versions Included: A. Full Version (2:07), B. 1 Minute Version (1:00), C. Half Minute Version (0:32), D. 15s Version (0:15) High quality WAV and MP3 versions included.

►ACTIVATING LICENSE ON YOUTUBE
To quickly clear any HAAWK / Identifyy copyright claims using our music go to: https://www.haawk.com/whitelist and fill out the form. 
In the "additional message" box simply copy and paste the text from your license.
Once the claims are released you can fully monetize your video.

Copyright claims are usually cleared the same day. If you still have a copyright claim after 24-48 hours or you have any problems, please contact us on wavetoysmusic@gmail.com and attach your license and youtube link in the email. We take great pride in our support and we'll solve it for you. 

Copyright claims are not strikes, and your channel will be perfectly safe during this process. 

Any questions? Contact us via email, we respond very fast!
E-mail: wavetoysmusic@gmail.com

https://wavetoysmusic.com - Visit us for more background music for videos!

-~-~~-~~~-~~-~-
Not sure about this track? Don't worry, we have a lot more background music for videos in many different styles. Find the perfect music here: http://bit.ly/2p88HLd

Need professional 4K video footage for your commercials &amp; projects? 
Get it now on FilmPac: https://filmpac.com/ref/4/

To avoid confusion, make sure you know what is royalty free music: 
https://wavetoysmusic.com/what-is-roy...

If you are a marketer or YouTuber, you probably need a lot more stuff besides music! You can now download thousands of professional graphics, photos,  after effects templates, fonts, plugins &amp; web themes from Envato Elements! 
Check unlimited downloads at an insanely low price: https://1.envato.market/Elements

FOLLOW US!
Facebook - http://bit.ly/wavetoys-facebook
Twitter - http://bit.ly/wavetoys-twitter
-~-~~-~~~-~~-~-</property>
  <property name="meta.attr.comment.markup">Background Music for Presentation Videos:
Corporate background music that works great as background music for presentations.
BUY THIS MUSIC FOR VIDEOS: https://1.envato.market/9MWNE

Name of the song: Corporation (Inspirational Corporate Background)

About:
Beautiful elegant and uplifting song that will sit perfectly in your video project,radio commercials, corporate presentations, explainers and many other… It has very nice flow and it’s subtle and ideal for corporate background music. Ideal for geting inspirational and uplifting feeling in your projects without distracting from video or taking too much attention.

4 versions Included: A. Full Version (2:07), B. 1 Minute Version (1:00), C. Half Minute Version (0:32), D. 15s Version (0:15) High quality WAV and MP3 versions included.

►ACTIVATING LICENSE ON YOUTUBE
To quickly clear any HAAWK / Identifyy copyright claims using our music go to: https://www.haawk.com/whitelist and fill out the form. 
In the "additional message" box simply copy and paste the text from your license.
Once the claims are released you can fully monetize your video.

Copyright claims are usually cleared the same day. If you still have a copyright claim after 24-48 hours or you have any problems, please contact us on wavetoysmusic@gmail.com and attach your license and youtube link in the email. We take great pride in our support and we'll solve it for you. 

Copyright claims are not strikes, and your channel will be perfectly safe during this process. 

Any questions? Contact us via email, we respond very fast!
E-mail: wavetoysmusic@gmail.com

https://wavetoysmusic.com - Visit us for more background music for videos!

-~-~~-~~~-~~-~-
Not sure about this track? Don't worry, we have a lot more background music for videos in many different styles. Find the perfect music here: http://bit.ly/2p88HLd

Need professional 4K video footage for your commercials &amp; projects? 
Get it now on FilmPac: https://filmpac.com/ref/4/

To avoid confusion, make sure you know what is royalty free music: 
https://wavetoysmusic.com/what-is-roy...

If you are a marketer or YouTuber, you probably need a lot more stuff besides music! You can now download thousands of professional graphics, photos,  after effects templates, fonts, plugins &amp; web themes from Envato Elements! 
Check unlimited downloads at an insanely low price: https://1.envato.market/Elements

FOLLOW US!
Facebook - http://bit.ly/wavetoys-facebook
Twitter - http://bit.ly/wavetoys-twitter
-~-~~-~~~-~~-~-</property>
  <property name="meta.attr.purl.markup">https://www.youtube.com/watch?v=Dle2KWu4hu4</property>
  <property name="meta.attr.encoder.markup">Lavf58.20.100</property>
  <property name="seekable">1</property>
  <property name="kdenlive:clipname"/>
  <property name="kdenlive:folderid">-1</property>
  <property name="kdenlive:id">14</property>
  <property name="kdenlive:file_size">4087977</property>
  <property name="kdenlive:file_hash">ce89caa8de7590b331a2e8d60a90679d</property>
  <property name="global_feed">1</property>
  <property name="xml">was here</property>
  <property name="set.test_audio">0</property>
  <property name="set.test_image">1</property>
 </producer>
 <playlist id="playlist2">
  <property name="kdenlive:audio_track">1</property>
  <entry producer="producer49" in="00:00:00.000" out="00:02:07.533">
   <property name="kdenlive:id">14</property>
   <property name="kdenlive:activeeffect">0</property>
   <filter id="filter5">
    <property name="window">75</property>
    <property name="max_gain">20dB</property>
    <property name="level">00:00:00.000=-23</property>
    <property name="mlt_service">volume</property>
    <property name="kdenlive_id">volume</property>
    <property name="kdenlive:collapsed">0</property>
   </filter>
  </entry>
  <entry producer="producer49" in="00:00:00.000" out="00:02:07.533">
   <property name="kdenlive:id">14</property>
   <property name="kdenlive:activeeffect">0</property>
   <filter id="filter6">
    <property name="window">75</property>
    <property name="max_gain">20dB</property>
    <property name="level">00:00:00.000=-24</property>
    <property name="mlt_service">volume</property>
    <property name="kdenlive_id">volume</property>
    <property name="kdenlive:collapsed">0</property>
   </filter>
  </entry>
  <entry producer="producer49" in="00:00:01.933" out="00:00:46.400">
   <property name="kdenlive:id">14</property>
   <property name="kdenlive:activeeffect">0</property>
   <filter id="filter7">
    <property name="window">75</property>
    <property name="max_gain">20dB</property>
    <property name="level">00:00:01.933=-24</property>
    <property name="mlt_service">volume</property>
    <property name="kdenlive_id">volume</property>
    <property name="kdenlive:collapsed">0</property>
   </filter>
   <filter id="filter8" in="00:00:43.433" out="00:00:46.433">
    <property name="window">75</property>
    <property name="max_gain">20dB</property>
    <property name="mlt_service">volume</property>
    <property name="kdenlive_id">fadeout</property>
    <property name="gain">1</property>
    <property name="end">0</property>
    <property name="kdenlive:collapsed">0</property>
   </filter>
  </entry>
  <filter id="filter9">
   <property name="window">75</property>
   <property name="max_gain">20dB</property>
   <property name="mlt_service">volume</property>
   <property name="internal_added">237</property>
   <property name="disable">1</property>
  </filter>
  <filter id="filter10">
   <property name="channel">-1</property>
   <property name="mlt_service">panner</property>
   <property name="internal_added">237</property>
   <property name="start">0.5</property>
   <property name="disable">1</property>
  </filter>
 </playlist>
 <playlist id="playlist3">
  <property name="kdenlive:audio_track">1</property>
 </playlist>
 <tractor id="tractor1" in="00:00:00.000" out="00:04:59.600">
  <property name="kdenlive:audio_track">1</property>
  <property name="kdenlive:trackheight">69</property>
  <property name="kdenlive:collapsed">0</property>
  <property name="kdenlive:thumbs_format"/>
  <property name="kdenlive:audio_rec"/>
  <property name="kdenlive:timeline_active">1</property>
  <property name="kdenlive:locked_track"/>
  <track hide="video" producer="playlist2"/>
  <track hide="video" producer="playlist3"/>
  <filter id="filter11">
   <property name="iec_scale">0</property>
   <property name="mlt_service">audiolevel</property>
   <property name="disable">1</property>
  </filter>
 </tractor>
 <playlist id="playlist4"/>
 <playlist id="playlist5"/>
 <tractor id="tractor2" in="00:00:00.000">
  <property name="kdenlive:trackheight">69</property>
  <property name="kdenlive:collapsed">0</property>
  <property name="kdenlive:thumbs_format"/>
  <property name="kdenlive:audio_rec"/>
  <property name="kdenlive:timeline_active">1</property>
  <property name="kdenlive:locked_track">1</property>
  <track hide="audio" producer="playlist4"/>
  <track hide="audio" producer="playlist5"/>
 </tractor>
 <producer id="producer50" in="00:00:00.000" out="00:01:07.633">
  <property name="length">2030</property>
  <property name="eof">pause</property>
  <property name="resource">0.073900:/home/toothlexx/Desktop/Golden Rule Video Content/Parts/Introdution.mp4</property>
  <property name="aspect_ratio">1</property>
  <property name="meta.media.nb_streams">1</property>
  <property name="meta.media.0.stream.type">video</property>
  <property name="meta.media.0.stream.frame_rate">30</property>
  <property name="meta.media.0.stream.sample_aspect_ratio">1</property>
  <property name="meta.media.0.codec.width">1920</property>
  <property name="meta.media.0.codec.height">1080</property>
  <property name="meta.media.0.codec.rotate">0</property>
  <property name="meta.media.0.codec.frame_rate">30</property>
  <property name="meta.media.0.codec.pix_fmt">yuv420p</property>
  <property name="meta.media.0.codec.sample_aspect_ratio">1</property>
  <property name="meta.media.0.codec.colorspace">709</property>
  <property name="meta.media.0.codec.color_trc">1</property>
  <property name="meta.media.0.codec.name">h264</property>
  <property name="meta.media.0.codec.long_name">H.264 / AVC / MPEG-4 AVC / MPEG-4 part 10</property>
  <property name="meta.media.0.codec.bit_rate">151889</property>
  <property name="meta.attr.0.stream.handler_name.markup">VideoHandler</property>
  <property name="meta.attr.major_brand.markup">isom</property>
  <property name="meta.attr.minor_version.markup">512</property>
  <property name="meta.attr.compatible_brands.markup">isomiso2avc1mp41</property>
  <property name="meta.attr.encoder.markup">Lavf58.29.100</property>
  <property name="seekable">1</property>
  <property name="meta.media.sample_aspect_num">1</property>
  <property name="meta.media.sample_aspect_den">1</property>
  <property name="audio_index">-1</property>
  <property name="video_index">0</property>
  <property name="mute_on_pause">1</property>
  <property name="warp_speed">0.0739</property>
  <property name="warp_resource">/home/toothlexx/Desktop/Golden Rule Video Content/Parts/Introdution.mp4</property>
  <property name="mlt_service">timewarp</property>
  <property name="set.test_audio">1</property>
  <property name="set.test_image">0</property>
  <property name="warp_pitch">0</property>
  <property name="meta.media.frame_rate_num">30</property>
  <property name="meta.media.frame_rate_den">1</property>
  <property name="meta.media.colorspace">709</property>
  <property name="meta.media.color_trc">1</property>
  <property name="meta.media.width">1920</property>
  <property name="meta.media.height">1080</property>
  <property name="meta.media.color_range">mpeg</property>
  <property name="meta.media.top_field_first">0</property>
  <property name="meta.media.progressive">1</property>
  <property name="kdenlive:id">2</property>
 </producer>
 <producer id="producer51" in="00:00:00.000" out="00:00:39.567">
  <property name="length">1188</property>
  <property name="eof">pause</property>
  <property name="resource">/home/toothlexx/Desktop/Golden Rule Video Content/Parts/lot of websites.mp4</property>
  <property name="audio_index">-1</property>
  <property name="video_index">0</property>
  <property name="mute_on_pause">0</property>
  <property name="mlt_service">avformat-novalidate</property>
  <property name="seekable">1</property>
  <property name="aspect_ratio">1</property>
  <property name="kdenlive:clipname"/>
  <property name="kdenlive:folderid">-1</property>
  <property name="kdenlive:id">3</property>
  <property name="kdenlive:file_size">10157447</property>
  <property name="kdenlive:file_hash">566cd96956e650f61c97ea25e8fcc82e</property>
  <property name="global_feed">1</property>
  <property name="xml">was here</property>
  <property name="meta.media.nb_streams">1</property>
  <property name="meta.media.0.stream.type">video</property>
  <property name="meta.media.0.stream.frame_rate">60</property>
  <property name="meta.media.0.stream.sample_aspect_ratio">1</property>
  <property name="meta.media.0.codec.width">1366</property>
  <property name="meta.media.0.codec.height">740</property>
  <property name="meta.media.0.codec.rotate">0</property>
  <property name="meta.media.0.codec.frame_rate">60</property>
  <property name="meta.media.0.codec.pix_fmt">yuv444p</property>
  <property name="meta.media.0.codec.sample_aspect_ratio">1</property>
  <property name="meta.media.0.codec.colorspace">709</property>
  <property name="meta.media.0.codec.color_trc">1</property>
  <property name="meta.media.0.codec.name">h264</property>
  <property name="meta.media.0.codec.long_name">H.264 / AVC / MPEG-4 AVC / MPEG-4 part 10</property>
  <property name="meta.media.0.codec.bit_rate">2049900</property>
  <property name="meta.attr.0.stream.creation_time.markup">2020-08-06T03:58:17.000000Z</property>
  <property name="meta.attr.0.stream.handler_name.markup">VideoHandler</property>
  <property name="meta.attr.major_brand.markup">mp42</property>
  <property name="meta.attr.minor_version.markup">0</property>
  <property name="meta.attr.compatible_brands.markup">mp42mp41isomiso2</property>
  <property name="meta.attr.creation_time.markup">2020-08-06T03:58:17.000000Z</property>
  <property name="meta.attr.encoder.markup">x264</property>
  <property name="meta.media.sample_aspect_num">1</property>
  <property name="meta.media.sample_aspect_den">1</property>
  <property name="meta.media.frame_rate_num">60</property>
  <property name="meta.media.frame_rate_den">1</property>
  <property name="meta.media.colorspace">709</property>
  <property name="meta.media.color_trc">1</property>
  <property name="meta.media.width">1366</property>
  <property name="meta.media.height">740</property>
  <property name="meta.media.color_range">mpeg</property>
  <property name="set.test_audio">1</property>
  <property name="set.test_image">0</property>
  <property name="meta.media.top_field_first">0</property>
  <property name="meta.media.progressive">1</property>
 </producer>
 <producer id="producer52" in="00:00:00.000" out="00:00:04.967">
  <property name="length">150</property>
  <property name="eof">pause</property>
  <property name="resource">/home/toothlexx/Desktop/Golden Rule Video Content/Parts/Eight Golder Rule Part.mp4</property>
  <property name="audio_index">-1</property>
  <property name="video_index">0</property>
  <property name="mute_on_pause">0</property>
  <property name="mlt_service">avformat-novalidate</property>
  <property name="seekable">1</property>
  <property name="aspect_ratio">1</property>
  <property name="kdenlive:clipname"/>
  <property name="kdenlive:folderid">-1</property>
  <property name="kdenlive:id">4</property>
  <property name="kdenlive:file_size">851760</property>
  <property name="kdenlive:file_hash">a99d9816ff411e8756625a7e95a1e1a6</property>
  <property name="global_feed">1</property>
  <property name="xml">was here</property>
  <property name="meta.media.nb_streams">1</property>
  <property name="meta.media.0.stream.type">video</property>
  <property name="meta.media.0.stream.frame_rate">30</property>
  <property name="meta.media.0.stream.sample_aspect_ratio">1</property>
  <property name="meta.media.0.codec.width">1920</property>
  <property name="meta.media.0.codec.height">1080</property>
  <property name="meta.media.0.codec.rotate">0</property>
  <property name="meta.media.0.codec.frame_rate">30</property>
  <property name="meta.media.0.codec.pix_fmt">yuv420p</property>
  <property name="meta.media.0.codec.sample_aspect_ratio">1</property>
  <property name="meta.media.0.codec.colorspace">709</property>
  <property name="meta.media.0.codec.color_trc">1</property>
  <property name="meta.media.0.codec.name">h264</property>
  <property name="meta.media.0.codec.long_name">H.264 / AVC / MPEG-4 AVC / MPEG-4 part 10</property>
  <property name="meta.media.0.codec.bit_rate">1358720</property>
  <property name="meta.attr.0.stream.handler_name.markup">VideoHandler</property>
  <property name="meta.attr.major_brand.markup">isom</property>
  <property name="meta.attr.minor_version.markup">512</property>
  <property name="meta.attr.compatible_brands.markup">isomiso2avc1mp41</property>
  <property name="meta.attr.encoder.markup">Lavf58.29.100</property>
  <property name="meta.media.sample_aspect_num">1</property>
  <property name="meta.media.sample_aspect_den">1</property>
  <property name="meta.media.frame_rate_num">30</property>
  <property name="meta.media.frame_rate_den">1</property>
  <property name="meta.media.colorspace">709</property>
  <property name="meta.media.color_trc">1</property>
  <property name="meta.media.width">1920</property>
  <property name="meta.media.height">1080</property>
  <property name="meta.media.color_range">mpeg</property>
  <property name="meta.media.top_field_first">0</property>
  <property name="meta.media.progressive">1</property>
  <property name="set.test_audio">1</property>
  <property name="set.test_image">0</property>
 </producer>
 <producer id="producer53" in="00:00:00.000" out="00:00:04.967">
  <property name="length">150</property>
  <property name="eof">pause</property>
  <property name="resource">/home/toothlexx/Desktop/Golden Rule Video Content/Parts/Rule1clip.mp4</property>
  <property name="audio_index">-1</property>
  <property name="video_index">0</property>
  <property name="mute_on_pause">0</property>
  <property name="mlt_service">avformat-novalidate</property>
  <property name="seekable">1</property>
  <property name="aspect_ratio">1</property>
  <property name="kdenlive:clipname"/>
  <property name="kdenlive:folderid">-1</property>
  <property name="kdenlive:id">6</property>
  <property name="kdenlive:file_size">997849</property>
  <property name="kdenlive:file_hash">9ba120bc99e57d33d0c7df16fedf8644</property>
  <property name="global_feed">1</property>
  <property name="xml">was here</property>
  <property name="meta.media.nb_streams">1</property>
  <property name="meta.media.0.stream.type">video</property>
  <property name="meta.media.0.stream.frame_rate">30</property>
  <property name="meta.media.0.stream.sample_aspect_ratio">1</property>
  <property name="meta.media.0.codec.width">1920</property>
  <property name="meta.media.0.codec.height">1080</property>
  <property name="meta.media.0.codec.rotate">0</property>
  <property name="meta.media.0.codec.frame_rate">30</property>
  <property name="meta.media.0.codec.pix_fmt">yuv420p</property>
  <property name="meta.media.0.codec.sample_aspect_ratio">1</property>
  <property name="meta.media.0.codec.colorspace">709</property>
  <property name="meta.media.0.codec.color_trc">1</property>
  <property name="meta.media.0.codec.name">h264</property>
  <property name="meta.media.0.codec.long_name">H.264 / AVC / MPEG-4 AVC / MPEG-4 part 10</property>
  <property name="meta.media.0.codec.bit_rate">1592404</property>
  <property name="meta.attr.0.stream.handler_name.markup">VideoHandler</property>
  <property name="meta.attr.major_brand.markup">isom</property>
  <property name="meta.attr.minor_version.markup">512</property>
  <property name="meta.attr.compatible_brands.markup">isomiso2avc1mp41</property>
  <property name="meta.attr.encoder.markup">Lavf58.29.100</property>
  <property name="meta.media.sample_aspect_num">1</property>
  <property name="meta.media.sample_aspect_den">1</property>
  <property name="meta.media.frame_rate_num">30</property>
  <property name="meta.media.frame_rate_den">1</property>
  <property name="meta.media.colorspace">709</property>
  <property name="meta.media.color_trc">1</property>
  <property name="meta.media.width">1920</property>
  <property name="meta.media.height">1080</property>
  <property name="meta.media.color_range">mpeg</property>
  <property name="meta.media.top_field_first">0</property>
  <property name="meta.media.progressive">1</property>
  <property name="set.test_audio">1</property>
  <property name="set.test_image">0</property>
 </producer>
 <producer id="producer54" in="00:00:00.000" out="00:00:05.733">
  <property name="length">173</property>
  <property name="eof">pause</property>
  <property name="resource">/home/toothlexx/Downloads/fontalignmentcolor.mp4</property>
  <property name="audio_index">-1</property>
  <property name="video_index">0</property>
  <property name="mute_on_pause">0</property>
  <property name="mlt_service">avformat-novalidate</property>
  <property name="seekable">1</property>
  <property name="aspect_ratio">1</property>
  <property name="kdenlive:clipname"/>
  <property name="kdenlive:folderid">-1</property>
  <property name="kdenlive:id">10</property>
  <property name="kdenlive:file_size">937230</property>
  <property name="kdenlive:file_hash">ba24de9b5a02f970396787d8f71f9e60</property>
  <property name="global_feed">1</property>
  <property name="xml">was here</property>
  <property name="meta.media.nb_streams">1</property>
  <property name="meta.media.0.stream.type">video</property>
  <property name="meta.media.0.stream.frame_rate">30</property>
  <property name="meta.media.0.stream.sample_aspect_ratio">1</property>
  <property name="meta.media.0.codec.width">1920</property>
  <property name="meta.media.0.codec.height">1080</property>
  <property name="meta.media.0.codec.rotate">0</property>
  <property name="meta.media.0.codec.frame_rate">30</property>
  <property name="meta.media.0.codec.pix_fmt">yuv420p</property>
  <property name="meta.media.0.codec.sample_aspect_ratio">1</property>
  <property name="meta.media.0.codec.colorspace">709</property>
  <property name="meta.media.0.codec.color_trc">1</property>
  <property name="meta.media.0.codec.name">h264</property>
  <property name="meta.media.0.codec.long_name">H.264 / AVC / MPEG-4 AVC / MPEG-4 part 10</property>
  <property name="meta.media.0.codec.bit_rate">1296346</property>
  <property name="meta.attr.0.stream.handler_name.markup">VideoHandler</property>
  <property name="meta.attr.major_brand.markup">isom</property>
  <property name="meta.attr.minor_version.markup">512</property>
  <property name="meta.attr.compatible_brands.markup">isomiso2avc1mp41</property>
  <property name="meta.attr.encoder.markup">Lavf58.29.100</property>
  <property name="meta.media.sample_aspect_num">1</property>
  <property name="meta.media.sample_aspect_den">1</property>
  <property name="meta.media.frame_rate_num">30</property>
  <property name="meta.media.frame_rate_den">1</property>
  <property name="meta.media.colorspace">709</property>
  <property name="meta.media.color_trc">1</property>
  <property name="meta.media.width">1920</property>
  <property name="meta.media.height">1080</property>
  <property name="meta.media.color_range">mpeg</property>
  <property name="meta.media.top_field_first">0</property>
  <property name="meta.media.progressive">1</property>
  <property name="set.test_audio">1</property>
  <property name="set.test_image">0</property>
 </producer>
 <producer id="producer55" in="00:00:00.000" out="00:00:31.533">
  <property name="length">947</property>
  <property name="eof">pause</property>
  <property name="resource">/home/toothlexx/Desktop/Golden Rule Video Content/Parts/Rule1 example.mp4</property>
  <property name="audio_index">-1</property>
  <property name="video_index">0</property>
  <property name="mute_on_pause">0</property>
  <property name="mlt_service">avformat-novalidate</property>
  <property name="seekable">1</property>
  <property name="aspect_ratio">1</property>
  <property name="kdenlive:clipname"/>
  <property name="kdenlive:folderid">-1</property>
  <property name="kdenlive:id">8</property>
  <property name="kdenlive:file_size">16670083</property>
  <property name="kdenlive:file_hash">46789e393eb881bdd7117f9f2b3c1fd2</property>
  <property name="global_feed">1</property>
  <property name="xml">was here</property>
  <property name="meta.media.nb_streams">1</property>
  <property name="meta.media.0.stream.type">video</property>
  <property name="meta.media.0.stream.frame_rate">60</property>
  <property name="meta.media.0.stream.sample_aspect_ratio">1</property>
  <property name="meta.media.0.codec.width">1366</property>
  <property name="meta.media.0.codec.height">740</property>
  <property name="meta.media.0.codec.rotate">0</property>
  <property name="meta.media.0.codec.frame_rate">60</property>
  <property name="meta.media.0.codec.pix_fmt">yuv444p</property>
  <property name="meta.media.0.codec.sample_aspect_ratio">1</property>
  <property name="meta.media.0.codec.colorspace">709</property>
  <property name="meta.media.0.codec.color_trc">1</property>
  <property name="meta.media.0.codec.name">h264</property>
  <property name="meta.media.0.codec.long_name">H.264 / AVC / MPEG-4 AVC / MPEG-4 part 10</property>
  <property name="meta.media.0.codec.bit_rate">4220344</property>
  <property name="meta.attr.0.stream.creation_time.markup">2020-08-06T02:21:36.000000Z</property>
  <property name="meta.attr.0.stream.handler_name.markup">VideoHandler</property>
  <property name="meta.attr.major_brand.markup">mp42</property>
  <property name="meta.attr.minor_version.markup">0</property>
  <property name="meta.attr.compatible_brands.markup">mp42mp41isomiso2</property>
  <property name="meta.attr.creation_time.markup">2020-08-06T02:21:36.000000Z</property>
  <property name="meta.attr.encoder.markup">x264</property>
  <property name="meta.media.sample_aspect_num">1</property>
  <property name="meta.media.sample_aspect_den">1</property>
  <property name="meta.media.frame_rate_num">60</property>
  <property name="meta.media.frame_rate_den">1</property>
  <property name="meta.media.colorspace">709</property>
  <property name="meta.media.color_trc">1</property>
  <property name="meta.media.width">1366</property>
  <property name="meta.media.height">740</property>
  <property name="meta.media.color_range">mpeg</property>
  <property name="meta.media.top_field_first">0</property>
  <property name="meta.media.progressive">1</property>
  <property name="set.test_audio">1</property>
  <property name="set.test_image">0</property>
 </producer>
 <producer id="producer56" in="00:00:00.000" out="00:00:04.967">
  <property name="length">150</property>
  <property name="eof">pause</property>
  <property name="resource">/home/toothlexx/Desktop/Golden Rule Video Content/Parts/Rule2clip.mp4</property>
  <property name="audio_index">-1</property>
  <property name="video_index">0</property>
  <property name="mute_on_pause">0</property>
  <property name="mlt_service">avformat-novalidate</property>
  <property name="seekable">1</property>
  <property name="aspect_ratio">1</property>
  <property name="kdenlive:clipname"/>
  <property name="kdenlive:folderid">-1</property>
  <property name="kdenlive:id">13</property>
  <property name="kdenlive:file_size">1288620</property>
  <property name="kdenlive:file_hash">8b6a00e20b6ee1e509f3152e8a7d9086</property>
  <property name="global_feed">1</property>
  <property name="xml">was here</property>
  <property name="meta.media.nb_streams">1</property>
  <property name="meta.media.0.stream.type">video</property>
  <property name="meta.media.0.stream.frame_rate">30</property>
  <property name="meta.media.0.stream.sample_aspect_ratio">1</property>
  <property name="meta.media.0.codec.width">1920</property>
  <property name="meta.media.0.codec.height">1080</property>
  <property name="meta.media.0.codec.rotate">0</property>
  <property name="meta.media.0.codec.frame_rate">30</property>
  <property name="meta.media.0.codec.pix_fmt">yuv420p</property>
  <property name="meta.media.0.codec.sample_aspect_ratio">1</property>
  <property name="meta.media.0.codec.colorspace">709</property>
  <property name="meta.media.0.codec.color_trc">1</property>
  <property name="meta.media.0.codec.name">h264</property>
  <property name="meta.media.0.codec.long_name">H.264 / AVC / MPEG-4 AVC / MPEG-4 part 10</property>
  <property name="meta.media.0.codec.bit_rate">2057555</property>
  <property name="meta.attr.0.stream.handler_name.markup">VideoHandler</property>
  <property name="meta.attr.major_brand.markup">isom</property>
  <property name="meta.attr.minor_version.markup">512</property>
  <property name="meta.attr.compatible_brands.markup">isomiso2avc1mp41</property>
  <property name="meta.attr.encoder.markup">Lavf58.29.100</property>
  <property name="meta.media.sample_aspect_num">1</property>
  <property name="meta.media.sample_aspect_den">1</property>
  <property name="meta.media.frame_rate_num">30</property>
  <property name="meta.media.frame_rate_den">1</property>
  <property name="meta.media.colorspace">709</property>
  <property name="meta.media.color_trc">1</property>
  <property name="meta.media.width">1920</property>
  <property name="meta.media.height">1080</property>
  <property name="meta.media.color_range">mpeg</property>
  <property name="meta.media.top_field_first">0</property>
  <property name="meta.media.progressive">1</property>
  <property name="set.test_audio">1</property>
  <property name="set.test_image">0</property>
 </producer>
 <producer id="producer57" in="00:00:00.000" out="00:00:23.833">
  <property name="length">716</property>
  <property name="eof">pause</property>
  <property name="resource">/home/toothlexx/Desktop/Golden Rule Video Content/Parts/Rule1shortcut.mp4</property>
  <property name="audio_index">-1</property>
  <property name="video_index">0</property>
  <property name="mute_on_pause">0</property>
  <property name="mlt_service">avformat-novalidate</property>
  <property name="seekable">1</property>
  <property name="aspect_ratio">1</property>
  <property name="kdenlive:clipname"/>
  <property name="kdenlive:folderid">-1</property>
  <property name="kdenlive:id">9</property>
  <property name="kdenlive:file_size">2450052</property>
  <property name="kdenlive:file_hash">ec2294277fb01891288cced9e868fc9f</property>
  <property name="global_feed">1</property>
  <property name="xml">was here</property>
  <property name="meta.media.nb_streams">1</property>
  <property name="meta.media.0.stream.type">video</property>
  <property name="meta.media.0.stream.frame_rate">60</property>
  <property name="meta.media.0.stream.sample_aspect_ratio">1</property>
  <property name="meta.media.0.codec.width">1366</property>
  <property name="meta.media.0.codec.height">740</property>
  <property name="meta.media.0.codec.rotate">0</property>
  <property name="meta.media.0.codec.frame_rate">60</property>
  <property name="meta.media.0.codec.pix_fmt">yuv444p</property>
  <property name="meta.media.0.codec.sample_aspect_ratio">1</property>
  <property name="meta.media.0.codec.colorspace">709</property>
  <property name="meta.media.0.codec.color_trc">1</property>
  <property name="meta.media.0.codec.name">h264</property>
  <property name="meta.media.0.codec.long_name">H.264 / AVC / MPEG-4 AVC / MPEG-4 part 10</property>
  <property name="meta.media.0.codec.bit_rate">819014</property>
  <property name="meta.attr.0.stream.creation_time.markup">2020-08-06T02:43:49.000000Z</property>
  <property name="meta.attr.0.stream.handler_name.markup">VideoHandler</property>
  <property name="meta.attr.major_brand.markup">mp42</property>
  <property name="meta.attr.minor_version.markup">0</property>
  <property name="meta.attr.compatible_brands.markup">mp42mp41isomiso2</property>
  <property name="meta.attr.creation_time.markup">2020-08-06T02:43:49.000000Z</property>
  <property name="meta.attr.encoder.markup">x264</property>
  <property name="meta.media.sample_aspect_num">1</property>
  <property name="meta.media.sample_aspect_den">1</property>
  <property name="meta.media.frame_rate_num">60</property>
  <property name="meta.media.frame_rate_den">1</property>
  <property name="meta.media.colorspace">709</property>
  <property name="meta.media.color_trc">1</property>
  <property name="meta.media.width">1366</property>
  <property name="meta.media.height">740</property>
  <property name="meta.media.color_range">mpeg</property>
  <property name="meta.media.top_field_first">0</property>
  <property name="meta.media.progressive">1</property>
  <property name="set.test_audio">1</property>
  <property name="set.test_image">0</property>
 </producer>
 <producer id="producer58" in="00:00:00.000" out="00:00:04.967">
  <property name="length">150</property>
  <property name="eof">pause</property>
  <property name="resource">/home/toothlexx/Downloads/part2 abbr.mp4</property>
  <property name="audio_index">-1</property>
  <property name="video_index">0</property>
  <property name="mute_on_pause">0</property>
  <property name="mlt_service">avformat-novalidate</property>
  <property name="seekable">1</property>
  <property name="aspect_ratio">1</property>
  <property name="kdenlive:clipname"/>
  <property name="kdenlive:folderid">-1</property>
  <property name="kdenlive:id">15</property>
  <property name="kdenlive:file_size">1082531</property>
  <property name="kdenlive:file_hash">af56e450eca41f90bd6eef04285a3493</property>
  <property name="global_feed">1</property>
  <property name="xml">was here</property>
  <property name="meta.media.nb_streams">1</property>
  <property name="meta.media.0.stream.type">video</property>
  <property name="meta.media.0.stream.frame_rate">30</property>
  <property name="meta.media.0.stream.sample_aspect_ratio">1</property>
  <property name="meta.media.0.codec.width">1920</property>
  <property name="meta.media.0.codec.height">1080</property>
  <property name="meta.media.0.codec.rotate">0</property>
  <property name="meta.media.0.codec.frame_rate">30</property>
  <property name="meta.media.0.codec.pix_fmt">yuv420p</property>
  <property name="meta.media.0.codec.sample_aspect_ratio">1</property>
  <property name="meta.media.0.codec.colorspace">709</property>
  <property name="meta.media.0.codec.color_trc">1</property>
  <property name="meta.media.0.codec.name">h264</property>
  <property name="meta.media.0.codec.long_name">H.264 / AVC / MPEG-4 AVC / MPEG-4 part 10</property>
  <property name="meta.media.0.codec.bit_rate">1727992</property>
  <property name="meta.attr.0.stream.handler_name.markup">VideoHandler</property>
  <property name="meta.attr.major_brand.markup">isom</property>
  <property name="meta.attr.minor_version.markup">512</property>
  <property name="meta.attr.compatible_brands.markup">isomiso2avc1mp41</property>
  <property name="meta.attr.encoder.markup">Lavf58.29.100</property>
  <property name="meta.media.sample_aspect_num">1</property>
  <property name="meta.media.sample_aspect_den">1</property>
  <property name="meta.media.frame_rate_num">30</property>
  <property name="meta.media.frame_rate_den">1</property>
  <property name="meta.media.colorspace">709</property>
  <property name="meta.media.color_trc">1</property>
  <property name="meta.media.width">1920</property>
  <property name="meta.media.height">1080</property>
  <property name="meta.media.color_range">mpeg</property>
  <property name="meta.media.top_field_first">0</property>
  <property name="meta.media.progressive">1</property>
  <property name="set.test_audio">1</property>
  <property name="set.test_image">0</property>
 </producer>
 <producer id="producer59" in="00:00:00.000" out="00:00:04.967">
  <property name="length">150</property>
  <property name="eof">pause</property>
  <property name="resource">/home/toothlexx/Desktop/Golden Rule Video Content/Parts/Rule3clip.mp4</property>
  <property name="audio_index">-1</property>
  <property name="video_index">0</property>
  <property name="mute_on_pause">0</property>
  <property name="mlt_service">avformat-novalidate</property>
  <property name="seekable">1</property>
  <property name="aspect_ratio">1</property>
  <property name="kdenlive:clipname"/>
  <property name="kdenlive:folderid">-1</property>
  <property name="kdenlive:id">18</property>
  <property name="kdenlive:file_size">1006839</property>
  <property name="kdenlive:file_hash">51cd3f6289b099303d083a3dd6768966</property>
  <property name="global_feed">1</property>
  <property name="xml">was here</property>
  <property name="meta.media.nb_streams">1</property>
  <property name="meta.media.0.stream.type">video</property>
  <property name="meta.media.0.stream.frame_rate">30</property>
  <property name="meta.media.0.stream.sample_aspect_ratio">1</property>
  <property name="meta.media.0.codec.width">1920</property>
  <property name="meta.media.0.codec.height">1080</property>
  <property name="meta.media.0.codec.rotate">0</property>
  <property name="meta.media.0.codec.frame_rate">30</property>
  <property name="meta.media.0.codec.pix_fmt">yuv420p</property>
  <property name="meta.media.0.codec.sample_aspect_ratio">1</property>
  <property name="meta.media.0.codec.colorspace">709</property>
  <property name="meta.media.0.codec.color_trc">1</property>
  <property name="meta.media.0.codec.name">h264</property>
  <property name="meta.media.0.codec.long_name">H.264 / AVC / MPEG-4 AVC / MPEG-4 part 10</property>
  <property name="meta.media.0.codec.bit_rate">1606846</property>
  <property name="meta.attr.0.stream.handler_name.markup">VideoHandler</property>
  <property name="meta.attr.major_brand.markup">isom</property>
  <property name="meta.attr.minor_version.markup">512</property>
  <property name="meta.attr.compatible_brands.markup">isomiso2avc1mp41</property>
  <property name="meta.attr.encoder.markup">Lavf58.29.100</property>
  <property name="meta.media.sample_aspect_num">1</property>
  <property name="meta.media.sample_aspect_den">1</property>
  <property name="meta.media.frame_rate_num">30</property>
  <property name="meta.media.frame_rate_den">1</property>
  <property name="meta.media.colorspace">709</property>
  <property name="meta.media.color_trc">1</property>
  <property name="meta.media.width">1920</property>
  <property name="meta.media.height">1080</property>
  <property name="meta.media.color_range">mpeg</property>
  <property name="meta.media.top_field_first">0</property>
  <property name="meta.media.progressive">1</property>
  <property name="set.test_audio">1</property>
  <property name="set.test_image">0</property>
 </producer>
 <producer id="producer60" in="00:00:00.000" out="00:00:28.933">
  <property name="length">869</property>
  <property name="eof">pause</property>
  <property name="resource">/home/toothlexx/Desktop/Golden Rule Video Content/Parts/interativepart3.mp4</property>
  <property name="audio_index">-1</property>
  <property name="video_index">0</property>
  <property name="mute_on_pause">0</property>
  <property name="mlt_service">avformat-novalidate</property>
  <property name="seekable">1</property>
  <property name="aspect_ratio">1</property>
  <property name="kdenlive:clipname"/>
  <property name="kdenlive:folderid">-1</property>
  <property name="kdenlive:id">17</property>
  <property name="kdenlive:file_size">3134586</property>
  <property name="kdenlive:file_hash">ad0d56c4c09a8f186615201ff795b4e4</property>
  <property name="global_feed">1</property>
  <property name="xml">was here</property>
  <property name="meta.media.nb_streams">1</property>
  <property name="meta.media.0.stream.type">video</property>
  <property name="meta.media.0.stream.frame_rate">60</property>
  <property name="meta.media.0.stream.sample_aspect_ratio">1</property>
  <property name="meta.media.0.codec.width">1366</property>
  <property name="meta.media.0.codec.height">740</property>
  <property name="meta.media.0.codec.rotate">0</property>
  <property name="meta.media.0.codec.frame_rate">60</property>
  <property name="meta.media.0.codec.pix_fmt">yuv444p</property>
  <property name="meta.media.0.codec.sample_aspect_ratio">1</property>
  <property name="meta.media.0.codec.colorspace">709</property>
  <property name="meta.media.0.codec.color_trc">1</property>
  <property name="meta.media.0.codec.name">h264</property>
  <property name="meta.media.0.codec.long_name">H.264 / AVC / MPEG-4 AVC / MPEG-4 part 10</property>
  <property name="meta.media.0.codec.bit_rate">863033</property>
  <property name="meta.attr.0.stream.creation_time.markup">2020-08-06T08:34:35.000000Z</property>
  <property name="meta.attr.0.stream.handler_name.markup">VideoHandler</property>
  <property name="meta.attr.major_brand.markup">mp42</property>
  <property name="meta.attr.minor_version.markup">0</property>
  <property name="meta.attr.compatible_brands.markup">mp42mp41isomiso2</property>
  <property name="meta.attr.creation_time.markup">2020-08-06T08:34:35.000000Z</property>
  <property name="meta.attr.encoder.markup">x264</property>
  <property name="meta.media.sample_aspect_num">1</property>
  <property name="meta.media.sample_aspect_den">1</property>
  <property name="meta.media.frame_rate_num">60</property>
  <property name="meta.media.frame_rate_den">1</property>
  <property name="meta.media.colorspace">709</property>
  <property name="meta.media.color_trc">1</property>
  <property name="meta.media.width">1366</property>
  <property name="meta.media.height">740</property>
  <property name="meta.media.color_range">mpeg</property>
  <property name="meta.media.top_field_first">0</property>
  <property name="meta.media.progressive">1</property>
  <property name="set.test_audio">1</property>
  <property name="set.test_image">0</property>
 </producer>
 <producer id="producer61" in="00:00:00.000" out="00:00:15.700">
  <property name="length">472</property>
  <property name="eof">pause</property>
  <property name="resource">/home/toothlexx/Desktop/Golden Rule Video Content/Parts/rule3subcribe.mp4</property>
  <property name="audio_index">-1</property>
  <property name="video_index">0</property>
  <property name="mute_on_pause">0</property>
  <property name="mlt_service">avformat-novalidate</property>
  <property name="seekable">1</property>
  <property name="aspect_ratio">1</property>
  <property name="kdenlive:clipname"/>
  <property name="kdenlive:folderid">-1</property>
  <property name="kdenlive:id">19</property>
  <property name="kdenlive:file_size">1095715</property>
  <property name="kdenlive:file_hash">58a94106d2355cf344bc17e57cdcb0c8</property>
  <property name="global_feed">1</property>
  <property name="xml">was here</property>
  <property name="meta.media.nb_streams">1</property>
  <property name="meta.media.0.stream.type">video</property>
  <property name="meta.media.0.stream.frame_rate">60</property>
  <property name="meta.media.0.stream.sample_aspect_ratio">1</property>
  <property name="meta.media.0.codec.width">1366</property>
  <property name="meta.media.0.codec.height">740</property>
  <property name="meta.media.0.codec.rotate">0</property>
  <property name="meta.media.0.codec.frame_rate">60</property>
  <property name="meta.media.0.codec.pix_fmt">yuv444p</property>
  <property name="meta.media.0.codec.sample_aspect_ratio">1</property>
  <property name="meta.media.0.codec.colorspace">709</property>
  <property name="meta.media.0.codec.color_trc">1</property>
  <property name="meta.media.0.codec.name">h264</property>
  <property name="meta.media.0.codec.long_name">H.264 / AVC / MPEG-4 AVC / MPEG-4 part 10</property>
  <property name="meta.media.0.codec.bit_rate">554163</property>
  <property name="meta.attr.0.stream.creation_time.markup">2020-08-06T02:49:24.000000Z</property>
  <property name="meta.attr.0.stream.handler_name.markup">VideoHandler</property>
  <property name="meta.attr.major_brand.markup">mp42</property>
  <property name="meta.attr.minor_version.markup">0</property>
  <property name="meta.attr.compatible_brands.markup">mp42mp41isomiso2</property>
  <property name="meta.attr.creation_time.markup">2020-08-06T02:49:24.000000Z</property>
  <property name="meta.attr.encoder.markup">x264</property>
  <property name="meta.media.sample_aspect_num">1</property>
  <property name="meta.media.sample_aspect_den">1</property>
  <property name="meta.media.frame_rate_num">60</property>
  <property name="meta.media.frame_rate_den">1</property>
  <property name="meta.media.colorspace">709</property>
  <property name="meta.media.color_trc">1</property>
  <property name="meta.media.width">1366</property>
  <property name="meta.media.height">740</property>
  <property name="meta.media.color_range">mpeg</property>
  <property name="meta.media.top_field_first">0</property>
  <property name="meta.media.progressive">1</property>
  <property name="set.test_audio">1</property>
  <property name="set.test_image">0</property>
 </producer>
 <producer id="producer62" in="00:00:00.000" out="00:00:04.967">
  <property name="length">150</property>
  <property name="eof">pause</property>
  <property name="resource">/home/toothlexx/Desktop/Golden Rule Video Content/Parts/Rule4clip.mp4</property>
  <property name="audio_index">-1</property>
  <property name="video_index">0</property>
  <property name="mute_on_pause">0</property>
  <property name="mlt_service">avformat-novalidate</property>
  <property name="seekable">1</property>
  <property name="aspect_ratio">1</property>
  <property name="kdenlive:clipname"/>
  <property name="kdenlive:folderid">-1</property>
  <property name="kdenlive:id">20</property>
  <property name="kdenlive:file_size">690444</property>
  <property name="kdenlive:file_hash">617b2f53eb442a8cc659542c10dd1649</property>
  <property name="global_feed">1</property>
  <property name="xml">was here</property>
  <property name="meta.media.nb_streams">1</property>
  <property name="meta.media.0.stream.type">video</property>
  <property name="meta.media.0.stream.frame_rate">30</property>
  <property name="meta.media.0.stream.sample_aspect_ratio">1</property>
  <property name="meta.media.0.codec.width">1920</property>
  <property name="meta.media.0.codec.height">1080</property>
  <property name="meta.media.0.codec.rotate">0</property>
  <property name="meta.media.0.codec.frame_rate">30</property>
  <property name="meta.media.0.codec.pix_fmt">yuv420p</property>
  <property name="meta.media.0.codec.sample_aspect_ratio">1</property>
  <property name="meta.media.0.codec.colorspace">709</property>
  <property name="meta.media.0.codec.color_trc">1</property>
  <property name="meta.media.0.codec.name">h264</property>
  <property name="meta.media.0.codec.long_name">H.264 / AVC / MPEG-4 AVC / MPEG-4 part 10</property>
  <property name="meta.media.0.codec.bit_rate">1100512</property>
  <property name="meta.attr.0.stream.handler_name.markup">VideoHandler</property>
  <property name="meta.attr.major_brand.markup">isom</property>
  <property name="meta.attr.minor_version.markup">512</property>
  <property name="meta.attr.compatible_brands.markup">isomiso2avc1mp41</property>
  <property name="meta.attr.encoder.markup">Lavf58.29.100</property>
  <property name="meta.media.sample_aspect_num">1</property>
  <property name="meta.media.sample_aspect_den">1</property>
  <property name="meta.media.frame_rate_num">30</property>
  <property name="meta.media.frame_rate_den">1</property>
  <property name="meta.media.colorspace">709</property>
  <property name="meta.media.color_trc">1</property>
  <property name="meta.media.width">1920</property>
  <property name="meta.media.height">1080</property>
  <property name="meta.media.color_range">mpeg</property>
  <property name="meta.media.top_field_first">0</property>
  <property name="meta.media.progressive">1</property>
  <property name="set.test_audio">1</property>
  <property name="set.test_image">0</property>
 </producer>
 <producer id="producer63" in="00:00:00.000" out="00:01:02.533">
  <property name="length">1877</property>
  <property name="eof">pause</property>
  <property name="resource">/home/toothlexx/Desktop/Golden Rule Video Content/Parts/part4middle.mp4</property>
  <property name="audio_index">-1</property>
  <property name="video_index">0</property>
  <property name="mute_on_pause">0</property>
  <property name="mlt_service">avformat-novalidate</property>
  <property name="seekable">1</property>
  <property name="aspect_ratio">1</property>
  <property name="kdenlive:clipname"/>
  <property name="kdenlive:folderid">-1</property>
  <property name="kdenlive:id">21</property>
  <property name="kdenlive:file_size">24335498</property>
  <property name="kdenlive:file_hash">af685f648251fee0bcfd0ad723b6073f</property>
  <property name="global_feed">1</property>
  <property name="xml">was here</property>
  <property name="meta.media.nb_streams">1</property>
  <property name="meta.media.0.stream.type">video</property>
  <property name="meta.media.0.stream.frame_rate">60</property>
  <property name="meta.media.0.stream.sample_aspect_ratio">1</property>
  <property name="meta.media.0.codec.width">1366</property>
  <property name="meta.media.0.codec.height">740</property>
  <property name="meta.media.0.codec.rotate">0</property>
  <property name="meta.media.0.codec.frame_rate">60</property>
  <property name="meta.media.0.codec.pix_fmt">yuv444p</property>
  <property name="meta.media.0.codec.sample_aspect_ratio">1</property>
  <property name="meta.media.0.codec.colorspace">709</property>
  <property name="meta.media.0.codec.color_trc">1</property>
  <property name="meta.media.0.codec.name">h264</property>
  <property name="meta.media.0.codec.long_name">H.264 / AVC / MPEG-4 AVC / MPEG-4 part 10</property>
  <property name="meta.media.0.codec.bit_rate">3109583</property>
  <property name="meta.attr.0.stream.creation_time.markup">2020-08-06T09:30:58.000000Z</property>
  <property name="meta.attr.0.stream.handler_name.markup">VideoHandler</property>
  <property name="meta.attr.major_brand.markup">mp42</property>
  <property name="meta.attr.minor_version.markup">0</property>
  <property name="meta.attr.compatible_brands.markup">mp42mp41isomiso2</property>
  <property name="meta.attr.creation_time.markup">2020-08-06T09:30:58.000000Z</property>
  <property name="meta.attr.encoder.markup">x264</property>
  <property name="meta.media.sample_aspect_num">1</property>
  <property name="meta.media.sample_aspect_den">1</property>
  <property name="meta.media.frame_rate_num">60</property>
  <property name="meta.media.frame_rate_den">1</property>
  <property name="meta.media.colorspace">709</property>
  <property name="meta.media.color_trc">1</property>
  <property name="meta.media.width">1366</property>
  <property name="meta.media.height">740</property>
  <property name="meta.media.color_range">mpeg</property>
  <property name="set.test_audio">1</property>
  <property name="set.test_image">0</property>
  <property name="meta.media.top_field_first">0</property>
  <property name="meta.media.progressive">1</property>
 </producer>
 <producer id="producer64" in="00:00:00.000" out="00:00:04.967">
  <property name="length">150</property>
  <property name="eof">pause</property>
  <property name="resource">/home/toothlexx/Desktop/Golden Rule Video Content/Parts/Rule5clip.mp4</property>
  <property name="audio_index">-1</property>
  <property name="video_index">0</property>
  <property name="mute_on_pause">0</property>
  <property name="mlt_service">avformat-novalidate</property>
  <property name="seekable">1</property>
  <property name="aspect_ratio">1</property>
  <property name="kdenlive:clipname"/>
  <property name="kdenlive:folderid">-1</property>
  <property name="kdenlive:id">23</property>
  <property name="kdenlive:file_size">141115</property>
  <property name="kdenlive:file_hash">0cb3ea424047826119e7dbf2a4004ba7</property>
  <property name="global_feed">1</property>
  <property name="xml">was here</property>
  <property name="meta.media.nb_streams">1</property>
  <property name="meta.media.0.stream.type">video</property>
  <property name="meta.media.0.stream.frame_rate">30</property>
  <property name="meta.media.0.stream.sample_aspect_ratio">1</property>
  <property name="meta.media.0.codec.width">1920</property>
  <property name="meta.media.0.codec.height">1080</property>
  <property name="meta.media.0.codec.rotate">0</property>
  <property name="meta.media.0.codec.frame_rate">30</property>
  <property name="meta.media.0.codec.pix_fmt">yuv420p</property>
  <property name="meta.media.0.codec.sample_aspect_ratio">1</property>
  <property name="meta.media.0.codec.colorspace">709</property>
  <property name="meta.media.0.codec.color_trc">1</property>
  <property name="meta.media.0.codec.name">h264</property>
  <property name="meta.media.0.codec.long_name">H.264 / AVC / MPEG-4 AVC / MPEG-4 part 10</property>
  <property name="meta.media.0.codec.bit_rate">221547</property>
  <property name="meta.attr.0.stream.handler_name.markup">VideoHandler</property>
  <property name="meta.attr.major_brand.markup">isom</property>
  <property name="meta.attr.minor_version.markup">512</property>
  <property name="meta.attr.compatible_brands.markup">isomiso2avc1mp41</property>
  <property name="meta.attr.encoder.markup">Lavf58.29.100</property>
  <property name="meta.media.sample_aspect_num">1</property>
  <property name="meta.media.sample_aspect_den">1</property>
  <property name="meta.media.frame_rate_num">30</property>
  <property name="meta.media.frame_rate_den">1</property>
  <property name="meta.media.colorspace">709</property>
  <property name="meta.media.color_trc">1</property>
  <property name="meta.media.width">1920</property>
  <property name="meta.media.height">1080</property>
  <property name="meta.media.color_range">mpeg</property>
  <property name="meta.media.top_field_first">0</property>
  <property name="meta.media.progressive">1</property>
  <property name="set.test_audio">1</property>
  <property name="set.test_image">0</property>
 </producer>
 <producer id="producer65" in="00:00:00.000" out="00:00:18.633">
  <property name="length">560</property>
  <property name="eof">pause</property>
  <property name="resource">/home/toothlexx/Desktop/Golden Rule Video Content/Parts/part5error.mp4</property>
  <property name="audio_index">-1</property>
  <property name="video_index">0</property>
  <property name="mute_on_pause">0</property>
  <property name="mlt_service">avformat-novalidate</property>
  <property name="seekable">1</property>
  <property name="aspect_ratio">1</property>
  <property name="kdenlive:clipname"/>
  <property name="kdenlive:folderid">-1</property>
  <property name="kdenlive:id">24</property>
  <property name="kdenlive:file_size">3924131</property>
  <property name="kdenlive:file_hash">861f4eb91032424494057efbaff2af97</property>
  <property name="global_feed">1</property>
  <property name="xml">was here</property>
  <property name="meta.media.nb_streams">1</property>
  <property name="meta.media.0.stream.type">video</property>
  <property name="meta.media.0.stream.frame_rate">60</property>
  <property name="meta.media.0.stream.sample_aspect_ratio">1</property>
  <property name="meta.media.0.codec.width">1366</property>
  <property name="meta.media.0.codec.height">740</property>
  <property name="meta.media.0.codec.rotate">0</property>
  <property name="meta.media.0.codec.frame_rate">60</property>
  <property name="meta.media.0.codec.pix_fmt">yuv444p</property>
  <property name="meta.media.0.codec.sample_aspect_ratio">1</property>
  <property name="meta.media.0.codec.colorspace">709</property>
  <property name="meta.media.0.codec.color_trc">1</property>
  <property name="meta.media.0.codec.name">h264</property>
  <property name="meta.media.0.codec.long_name">H.264 / AVC / MPEG-4 AVC / MPEG-4 part 10</property>
  <property name="meta.media.0.codec.bit_rate">1679453</property>
  <property name="meta.attr.0.stream.creation_time.markup">2020-08-06T11:53:42.000000Z</property>
  <property name="meta.attr.0.stream.handler_name.markup">VideoHandler</property>
  <property name="meta.attr.major_brand.markup">mp42</property>
  <property name="meta.attr.minor_version.markup">0</property>
  <property name="meta.attr.compatible_brands.markup">mp42mp41isomiso2</property>
  <property name="meta.attr.creation_time.markup">2020-08-06T11:53:42.000000Z</property>
  <property name="meta.attr.encoder.markup">x264</property>
  <property name="meta.media.sample_aspect_num">1</property>
  <property name="meta.media.sample_aspect_den">1</property>
  <property name="meta.media.frame_rate_num">60</property>
  <property name="meta.media.frame_rate_den">1</property>
  <property name="meta.media.colorspace">709</property>
  <property name="meta.media.color_trc">1</property>
  <property name="meta.media.width">1366</property>
  <property name="meta.media.height">740</property>
  <property name="meta.media.color_range">mpeg</property>
  <property name="meta.media.top_field_first">0</property>
  <property name="meta.media.progressive">1</property>
  <property name="set.test_audio">1</property>
  <property name="set.test_image">0</property>
 </producer>
 <producer id="producer66" in="00:00:00.000" out="00:00:07.700">
  <property name="length">232</property>
  <property name="eof">pause</property>
  <property name="resource">/home/toothlexx/Desktop/Golden Rule Video Content/Parts/part5googleform.mp4</property>
  <property name="audio_index">-1</property>
  <property name="video_index">0</property>
  <property name="mute_on_pause">0</property>
  <property name="mlt_service">avformat-novalidate</property>
  <property name="seekable">1</property>
  <property name="aspect_ratio">1</property>
  <property name="kdenlive:clipname"/>
  <property name="kdenlive:folderid">-1</property>
  <property name="kdenlive:id">26</property>
  <property name="kdenlive:file_size">276591</property>
  <property name="kdenlive:file_hash">984a9861c1be3c5634c59c3d7fc3e916</property>
  <property name="global_feed">1</property>
  <property name="xml">was here</property>
  <property name="meta.media.nb_streams">1</property>
  <property name="meta.media.0.stream.type">video</property>
  <property name="meta.media.0.stream.frame_rate">60</property>
  <property name="meta.media.0.stream.sample_aspect_ratio">1</property>
  <property name="meta.media.0.codec.width">1366</property>
  <property name="meta.media.0.codec.height">740</property>
  <property name="meta.media.0.codec.rotate">0</property>
  <property name="meta.media.0.codec.frame_rate">60</property>
  <property name="meta.media.0.codec.pix_fmt">yuv444p</property>
  <property name="meta.media.0.codec.sample_aspect_ratio">1</property>
  <property name="meta.media.0.codec.colorspace">709</property>
  <property name="meta.media.0.codec.color_trc">1</property>
  <property name="meta.media.0.codec.name">h264</property>
  <property name="meta.media.0.codec.long_name">H.264 / AVC / MPEG-4 AVC / MPEG-4 part 10</property>
  <property name="meta.media.0.codec.bit_rate">282641</property>
  <property name="meta.attr.0.stream.creation_time.markup">2020-08-06T12:10:49.000000Z</property>
  <property name="meta.attr.0.stream.handler_name.markup">VideoHandler</property>
  <property name="meta.attr.major_brand.markup">mp42</property>
  <property name="meta.attr.minor_version.markup">0</property>
  <property name="meta.attr.compatible_brands.markup">mp42mp41isomiso2</property>
  <property name="meta.attr.creation_time.markup">2020-08-06T12:10:49.000000Z</property>
  <property name="meta.attr.encoder.markup">x264</property>
  <property name="meta.media.sample_aspect_num">1</property>
  <property name="meta.media.sample_aspect_den">1</property>
  <property name="meta.media.frame_rate_num">60</property>
  <property name="meta.media.frame_rate_den">1</property>
  <property name="meta.media.colorspace">709</property>
  <property name="meta.media.color_trc">1</property>
  <property name="meta.media.width">1366</property>
  <property name="meta.media.height">740</property>
  <property name="meta.media.color_range">mpeg</property>
  <property name="meta.media.top_field_first">0</property>
  <property name="meta.media.progressive">1</property>
  <property name="set.test_audio">1</property>
  <property name="set.test_image">0</property>
 </producer>
 <producer id="producer67" in="00:00:00.000" out="00:00:04.967">
  <property name="length">150</property>
  <property name="eof">pause</property>
  <property name="resource">/home/toothlexx/Desktop/Golden Rule Video Content/Parts/Rule6clip.mp4</property>
  <property name="audio_index">-1</property>
  <property name="video_index">0</property>
  <property name="mute_on_pause">0</property>
  <property name="mlt_service">avformat-novalidate</property>
  <property name="seekable">1</property>
  <property name="aspect_ratio">1</property>
  <property name="kdenlive:clipname"/>
  <property name="kdenlive:folderid">-1</property>
  <property name="kdenlive:id">27</property>
  <property name="kdenlive:file_size">630255</property>
  <property name="kdenlive:file_hash">96f9639e48bc2cae34013d395b88d526</property>
  <property name="global_feed">1</property>
  <property name="xml">was here</property>
  <property name="meta.media.nb_streams">1</property>
  <property name="meta.media.0.stream.type">video</property>
  <property name="meta.media.0.stream.frame_rate">30</property>
  <property name="meta.media.0.stream.sample_aspect_ratio">1</property>
  <property name="meta.media.0.codec.width">1920</property>
  <property name="meta.media.0.codec.height">1080</property>
  <property name="meta.media.0.codec.rotate">0</property>
  <property name="meta.media.0.codec.frame_rate">30</property>
  <property name="meta.media.0.codec.pix_fmt">yuv420p</property>
  <property name="meta.media.0.codec.sample_aspect_ratio">1</property>
  <property name="meta.media.0.codec.colorspace">709</property>
  <property name="meta.media.0.codec.color_trc">1</property>
  <property name="meta.media.0.codec.name">h264</property>
  <property name="meta.media.0.codec.long_name">H.264 / AVC / MPEG-4 AVC / MPEG-4 part 10</property>
  <property name="meta.media.0.codec.bit_rate">1004196</property>
  <property name="meta.attr.0.stream.handler_name.markup">VideoHandler</property>
  <property name="meta.attr.major_brand.markup">isom</property>
  <property name="meta.attr.minor_version.markup">512</property>
  <property name="meta.attr.compatible_brands.markup">isomiso2avc1mp41</property>
  <property name="meta.attr.encoder.markup">Lavf58.29.100</property>
  <property name="meta.media.sample_aspect_num">1</property>
  <property name="meta.media.sample_aspect_den">1</property>
  <property name="meta.media.frame_rate_num">30</property>
  <property name="meta.media.frame_rate_den">1</property>
  <property name="meta.media.colorspace">709</property>
  <property name="meta.media.color_trc">1</property>
  <property name="meta.media.width">1920</property>
  <property name="meta.media.height">1080</property>
  <property name="meta.media.color_range">mpeg</property>
  <property name="meta.media.top_field_first">0</property>
  <property name="meta.media.progressive">1</property>
  <property name="set.test_audio">1</property>
  <property name="set.test_image">0</property>
 </producer>
 <producer id="producer68" in="00:00:00.000" out="00:00:25.633">
  <property name="length">770</property>
  <property name="eof">pause</property>
  <property name="resource">/home/toothlexx/Desktop/Golden Rule Video Content/Parts/reversalofaction.mp4</property>
  <property name="audio_index">-1</property>
  <property name="video_index">0</property>
  <property name="mute_on_pause">0</property>
  <property name="mlt_service">avformat-novalidate</property>
  <property name="seekable">1</property>
  <property name="aspect_ratio">1</property>
  <property name="kdenlive:clipname"/>
  <property name="kdenlive:folderid">-1</property>
  <property name="kdenlive:id">28</property>
  <property name="kdenlive:file_size">2327438</property>
  <property name="kdenlive:file_hash">434c4d0cbb9318ac5ba1b1c1bbfb3bb7</property>
  <property name="global_feed">1</property>
  <property name="xml">was here</property>
  <property name="meta.media.nb_streams">1</property>
  <property name="meta.media.0.stream.type">video</property>
  <property name="meta.media.0.stream.frame_rate">60</property>
  <property name="meta.media.0.stream.sample_aspect_ratio">1</property>
  <property name="meta.media.0.codec.width">1366</property>
  <property name="meta.media.0.codec.height">740</property>
  <property name="meta.media.0.codec.rotate">0</property>
  <property name="meta.media.0.codec.frame_rate">60</property>
  <property name="meta.media.0.codec.pix_fmt">yuv444p</property>
  <property name="meta.media.0.codec.sample_aspect_ratio">1</property>
  <property name="meta.media.0.codec.colorspace">709</property>
  <property name="meta.media.0.codec.color_trc">1</property>
  <property name="meta.media.0.codec.name">h264</property>
  <property name="meta.media.0.codec.long_name">H.264 / AVC / MPEG-4 AVC / MPEG-4 part 10</property>
  <property name="meta.media.0.codec.bit_rate">723696</property>
  <property name="meta.attr.0.stream.creation_time.markup">2020-08-06T12:38:15.000000Z</property>
  <property name="meta.attr.0.stream.handler_name.markup">VideoHandler</property>
  <property name="meta.attr.major_brand.markup">mp42</property>
  <property name="meta.attr.minor_version.markup">0</property>
  <property name="meta.attr.compatible_brands.markup">mp42mp41isomiso2</property>
  <property name="meta.attr.creation_time.markup">2020-08-06T12:38:15.000000Z</property>
  <property name="meta.attr.encoder.markup">x264</property>
  <property name="meta.media.sample_aspect_num">1</property>
  <property name="meta.media.sample_aspect_den">1</property>
  <property name="meta.media.frame_rate_num">60</property>
  <property name="meta.media.frame_rate_den">1</property>
  <property name="meta.media.colorspace">709</property>
  <property name="meta.media.color_trc">1</property>
  <property name="meta.media.width">1366</property>
  <property name="meta.media.height">740</property>
  <property name="meta.media.color_range">mpeg</property>
  <property name="meta.media.top_field_first">0</property>
  <property name="meta.media.progressive">1</property>
  <property name="set.test_audio">1</property>
  <property name="set.test_image">0</property>
 </producer>
 <producer id="producer69" in="00:00:00.000" out="00:00:04.967">
  <property name="length">150</property>
  <property name="eof">pause</property>
  <property name="resource">/home/toothlexx/Desktop/Golden Rule Video Content/Parts/Rule7clip.mp4</property>
  <property name="audio_index">-1</property>
  <property name="video_index">0</property>
  <property name="mute_on_pause">0</property>
  <property name="mlt_service">avformat-novalidate</property>
  <property name="seekable">1</property>
  <property name="aspect_ratio">1</property>
  <property name="kdenlive:clipname"/>
  <property name="kdenlive:folderid">-1</property>
  <property name="kdenlive:id">31</property>
  <property name="kdenlive:file_size">563300</property>
  <property name="kdenlive:file_hash">81af6cb4d228fb3a6d86e9481ded9f8a</property>
  <property name="global_feed">1</property>
  <property name="xml">was here</property>
  <property name="meta.media.nb_streams">1</property>
  <property name="meta.media.0.stream.type">video</property>
  <property name="meta.media.0.stream.frame_rate">30</property>
  <property name="meta.media.0.stream.sample_aspect_ratio">1</property>
  <property name="meta.media.0.codec.width">1920</property>
  <property name="meta.media.0.codec.height">1080</property>
  <property name="meta.media.0.codec.rotate">0</property>
  <property name="meta.media.0.codec.frame_rate">30</property>
  <property name="meta.media.0.codec.pix_fmt">yuv420p</property>
  <property name="meta.media.0.codec.sample_aspect_ratio">1</property>
  <property name="meta.media.0.codec.colorspace">709</property>
  <property name="meta.media.0.codec.color_trc">1</property>
  <property name="meta.media.0.codec.name">h264</property>
  <property name="meta.media.0.codec.long_name">H.264 / AVC / MPEG-4 AVC / MPEG-4 part 10</property>
  <property name="meta.media.0.codec.bit_rate">897043</property>
  <property name="meta.attr.0.stream.handler_name.markup">VideoHandler</property>
  <property name="meta.attr.major_brand.markup">isom</property>
  <property name="meta.attr.minor_version.markup">512</property>
  <property name="meta.attr.compatible_brands.markup">isomiso2avc1mp41</property>
  <property name="meta.attr.encoder.markup">Lavf58.29.100</property>
  <property name="meta.media.sample_aspect_num">1</property>
  <property name="meta.media.sample_aspect_den">1</property>
  <property name="meta.media.frame_rate_num">30</property>
  <property name="meta.media.frame_rate_den">1</property>
  <property name="meta.media.colorspace">709</property>
  <property name="meta.media.color_trc">1</property>
  <property name="meta.media.width">1920</property>
  <property name="meta.media.height">1080</property>
  <property name="meta.media.color_range">mpeg</property>
  <property name="meta.media.top_field_first">0</property>
  <property name="meta.media.progressive">1</property>
  <property name="set.test_audio">1</property>
  <property name="set.test_image">0</property>
 </producer>
 <producer id="producer70" in="00:00:00.000" out="00:00:29.700">
  <property name="length">892</property>
  <property name="eof">pause</property>
  <property name="resource">/home/toothlexx/Desktop/Golden Rule Video Content/Parts/locusrule7.mp4</property>
  <property name="audio_index">-1</property>
  <property name="video_index">0</property>
  <property name="mute_on_pause">0</property>
  <property name="mlt_service">avformat-novalidate</property>
  <property name="seekable">1</property>
  <property name="aspect_ratio">1</property>
  <property name="kdenlive:clipname"/>
  <property name="kdenlive:folderid">-1</property>
  <property name="kdenlive:id">32</property>
  <property name="kdenlive:file_size">1096666</property>
  <property name="kdenlive:file_hash">bb14d84b6646c06f31f70271d3494562</property>
  <property name="global_feed">1</property>
  <property name="xml">was here</property>
  <property name="meta.media.nb_streams">1</property>
  <property name="meta.media.0.stream.type">video</property>
  <property name="meta.media.0.stream.frame_rate">60</property>
  <property name="meta.media.0.stream.sample_aspect_ratio">1</property>
  <property name="meta.media.0.codec.width">1366</property>
  <property name="meta.media.0.codec.height">740</property>
  <property name="meta.media.0.codec.rotate">0</property>
  <property name="meta.media.0.codec.frame_rate">60</property>
  <property name="meta.media.0.codec.pix_fmt">yuv444p</property>
  <property name="meta.media.0.codec.sample_aspect_ratio">1</property>
  <property name="meta.media.0.codec.colorspace">709</property>
  <property name="meta.media.0.codec.color_trc">1</property>
  <property name="meta.media.0.codec.name">h264</property>
  <property name="meta.media.0.codec.long_name">H.264 / AVC / MPEG-4 AVC / MPEG-4 part 10</property>
  <property name="meta.media.0.codec.bit_rate">292896</property>
  <property name="meta.attr.0.stream.creation_time.markup">2020-08-06T13:21:34.000000Z</property>
  <property name="meta.attr.0.stream.handler_name.markup">VideoHandler</property>
  <property name="meta.attr.major_brand.markup">mp42</property>
  <property name="meta.attr.minor_version.markup">0</property>
  <property name="meta.attr.compatible_brands.markup">mp42mp41isomiso2</property>
  <property name="meta.attr.creation_time.markup">2020-08-06T13:21:34.000000Z</property>
  <property name="meta.attr.encoder.markup">x264</property>
  <property name="meta.media.sample_aspect_num">1</property>
  <property name="meta.media.sample_aspect_den">1</property>
  <property name="meta.media.frame_rate_num">60</property>
  <property name="meta.media.frame_rate_den">1</property>
  <property name="meta.media.colorspace">709</property>
  <property name="meta.media.color_trc">1</property>
  <property name="meta.media.width">1366</property>
  <property name="meta.media.height">740</property>
  <property name="meta.media.color_range">mpeg</property>
  <property name="meta.media.top_field_first">0</property>
  <property name="meta.media.progressive">1</property>
  <property name="set.test_audio">1</property>
  <property name="set.test_image">0</property>
 </producer>
 <producer id="producer71" in="00:00:00.000" out="00:00:04.967">
  <property name="length">150</property>
  <property name="eof">pause</property>
  <property name="resource">/home/toothlexx/Desktop/Golden Rule Video Content/Parts/Rule8clip.mp4</property>
  <property name="audio_index">-1</property>
  <property name="video_index">0</property>
  <property name="mute_on_pause">0</property>
  <property name="mlt_service">avformat-novalidate</property>
  <property name="seekable">1</property>
  <property name="aspect_ratio">1</property>
  <property name="kdenlive:clipname"/>
  <property name="kdenlive:folderid">-1</property>
  <property name="kdenlive:id">34</property>
  <property name="kdenlive:file_size">568429</property>
  <property name="kdenlive:file_hash">4c064f5a284c46788b6df8fca8314e38</property>
  <property name="global_feed">1</property>
  <property name="xml">was here</property>
  <property name="meta.media.nb_streams">1</property>
  <property name="meta.media.0.stream.type">video</property>
  <property name="meta.media.0.stream.frame_rate">30</property>
  <property name="meta.media.0.stream.sample_aspect_ratio">1</property>
  <property name="meta.media.0.codec.width">1920</property>
  <property name="meta.media.0.codec.height">1080</property>
  <property name="meta.media.0.codec.rotate">0</property>
  <property name="meta.media.0.codec.frame_rate">30</property>
  <property name="meta.media.0.codec.pix_fmt">yuv420p</property>
  <property name="meta.media.0.codec.sample_aspect_ratio">1</property>
  <property name="meta.media.0.codec.colorspace">709</property>
  <property name="meta.media.0.codec.color_trc">1</property>
  <property name="meta.media.0.codec.name">h264</property>
  <property name="meta.media.0.codec.long_name">H.264 / AVC / MPEG-4 AVC / MPEG-4 part 10</property>
  <property name="meta.media.0.codec.bit_rate">905262</property>
  <property name="meta.attr.0.stream.handler_name.markup">VideoHandler</property>
  <property name="meta.attr.major_brand.markup">isom</property>
  <property name="meta.attr.minor_version.markup">512</property>
  <property name="meta.attr.compatible_brands.markup">isomiso2avc1mp41</property>
  <property name="meta.attr.encoder.markup">Lavf58.29.100</property>
  <property name="meta.media.sample_aspect_num">1</property>
  <property name="meta.media.sample_aspect_den">1</property>
  <property name="meta.media.frame_rate_num">30</property>
  <property name="meta.media.frame_rate_den">1</property>
  <property name="meta.media.colorspace">709</property>
  <property name="meta.media.color_trc">1</property>
  <property name="meta.media.width">1920</property>
  <property name="meta.media.height">1080</property>
  <property name="meta.media.color_range">mpeg</property>
  <property name="meta.media.top_field_first">0</property>
  <property name="meta.media.progressive">1</property>
  <property name="set.test_audio">1</property>
  <property name="set.test_image">0</property>
 </producer>
 <producer id="producer72" in="00:00:00.000" out="00:01:00.300">
  <property name="length">1810</property>
  <property name="eof">pause</property>
  <property name="resource">/home/toothlexx/Desktop/Golden Rule Video Content/Parts/part4minddle.mp4</property>
  <property name="audio_index">-1</property>
  <property name="video_index">0</property>
  <property name="mute_on_pause">0</property>
  <property name="mlt_service">avformat-novalidate</property>
  <property name="seekable">1</property>
  <property name="aspect_ratio">1</property>
  <property name="kdenlive:clipname"/>
  <property name="kdenlive:folderid">-1</property>
  <property name="kdenlive:id">39</property>
  <property name="kdenlive:file_size">48528472</property>
  <property name="kdenlive:file_hash">1b9ac66b9cbc291620986f0f51da84d8</property>
  <property name="global_feed">1</property>
  <property name="xml">was here</property>
  <property name="meta.media.nb_streams">1</property>
  <property name="meta.media.0.stream.type">video</property>
  <property name="meta.media.0.stream.frame_rate">60</property>
  <property name="meta.media.0.stream.sample_aspect_ratio">1</property>
  <property name="meta.media.0.codec.width">1366</property>
  <property name="meta.media.0.codec.height">740</property>
  <property name="meta.media.0.codec.rotate">0</property>
  <property name="meta.media.0.codec.frame_rate">60</property>
  <property name="meta.media.0.codec.pix_fmt">yuv444p</property>
  <property name="meta.media.0.codec.sample_aspect_ratio">1</property>
  <property name="meta.media.0.codec.colorspace">709</property>
  <property name="meta.media.0.codec.color_trc">1</property>
  <property name="meta.media.0.codec.name">h264</property>
  <property name="meta.media.0.codec.long_name">H.264 / AVC / MPEG-4 AVC / MPEG-4 part 10</property>
  <property name="meta.media.0.codec.bit_rate">6432669</property>
  <property name="meta.attr.0.stream.creation_time.markup">2020-08-06T14:29:25.000000Z</property>
  <property name="meta.attr.0.stream.handler_name.markup">VideoHandler</property>
  <property name="meta.attr.major_brand.markup">mp42</property>
  <property name="meta.attr.minor_version.markup">0</property>
  <property name="meta.attr.compatible_brands.markup">mp42mp41isomiso2</property>
  <property name="meta.attr.creation_time.markup">2020-08-06T14:29:25.000000Z</property>
  <property name="meta.attr.encoder.markup">x264</property>
  <property name="meta.media.sample_aspect_num">1</property>
  <property name="meta.media.sample_aspect_den">1</property>
  <property name="meta.media.frame_rate_num">60</property>
  <property name="meta.media.frame_rate_den">1</property>
  <property name="meta.media.colorspace">709</property>
  <property name="meta.media.color_trc">1</property>
  <property name="meta.media.width">1366</property>
  <property name="meta.media.height">740</property>
  <property name="meta.media.color_range">mpeg</property>
  <property name="meta.media.top_field_first">0</property>
  <property name="meta.media.progressive">1</property>
  <property name="set.test_audio">1</property>
  <property name="set.test_image">0</property>
 </producer>
 <producer id="producer73" in="00:00:00.000" out="00:00:04.967">
  <property name="length">150</property>
  <property name="eof">pause</property>
  <property name="resource">/home/toothlexx/Downloads/Credits.mp4</property>
  <property name="audio_index">-1</property>
  <property name="video_index">0</property>
  <property name="mute_on_pause">0</property>
  <property name="mlt_service">avformat-novalidate</property>
  <property name="seekable">1</property>
  <property name="aspect_ratio">1</property>
  <property name="kdenlive:clipname"/>
  <property name="kdenlive:folderid">-1</property>
  <property name="kdenlive:id">36</property>
  <property name="kdenlive:file_size">382266</property>
  <property name="kdenlive:file_hash">a121a43440a3567aaf25db88e206de90</property>
  <property name="global_feed">1</property>
  <property name="xml">was here</property>
  <property name="meta.media.nb_streams">1</property>
  <property name="meta.media.0.stream.type">video</property>
  <property name="meta.media.0.stream.frame_rate">30</property>
  <property name="meta.media.0.stream.sample_aspect_ratio">1</property>
  <property name="meta.media.0.codec.width">1920</property>
  <property name="meta.media.0.codec.height">1080</property>
  <property name="meta.media.0.codec.rotate">0</property>
  <property name="meta.media.0.codec.frame_rate">30</property>
  <property name="meta.media.0.codec.pix_fmt">yuv420p</property>
  <property name="meta.media.0.codec.sample_aspect_ratio">1</property>
  <property name="meta.media.0.codec.colorspace">709</property>
  <property name="meta.media.0.codec.color_trc">1</property>
  <property name="meta.media.0.codec.name">h264</property>
  <property name="meta.media.0.codec.long_name">H.264 / AVC / MPEG-4 AVC / MPEG-4 part 10</property>
  <property name="meta.media.0.codec.bit_rate">607440</property>
  <property name="meta.attr.0.stream.handler_name.markup">VideoHandler</property>
  <property name="meta.attr.major_brand.markup">isom</property>
  <property name="meta.attr.minor_version.markup">512</property>
  <property name="meta.attr.compatible_brands.markup">isomiso2avc1mp41</property>
  <property name="meta.attr.encoder.markup">Lavf58.29.100</property>
  <property name="meta.media.sample_aspect_num">1</property>
  <property name="meta.media.sample_aspect_den">1</property>
  <property name="meta.media.frame_rate_num">30</property>
  <property name="meta.media.frame_rate_den">1</property>
  <property name="meta.media.colorspace">709</property>
  <property name="meta.media.color_trc">1</property>
  <property name="meta.media.width">1920</property>
  <property name="meta.media.height">1080</property>
  <property name="meta.media.color_range">mpeg</property>
  <property name="meta.media.top_field_first">0</property>
  <property name="meta.media.progressive">1</property>
  <property name="set.test_audio">1</property>
  <property name="set.test_image">0</property>
 </producer>
 <producer id="producer74" in="00:00:00.000" out="00:00:04.967">
  <property name="length">150</property>
  <property name="eof">pause</property>
  <property name="resource">/home/toothlexx/Desktop/Golden Rule Video Content/Parts/endvideoouttro.mp4</property>
  <property name="audio_index">-1</property>
  <property name="video_index">0</property>
  <property name="mute_on_pause">0</property>
  <property name="mlt_service">avformat-novalidate</property>
  <property name="seekable">1</property>
  <property name="aspect_ratio">1</property>
  <property name="kdenlive:clipname"/>
  <property name="kdenlive:folderid">-1</property>
  <property name="kdenlive:id">35</property>
  <property name="kdenlive:file_size">82263</property>
  <property name="kdenlive:file_hash">d2ce4d41309f2db02c2f1ac1c409efce</property>
  <property name="global_feed">1</property>
  <property name="xml">was here</property>
  <property name="meta.media.nb_streams">1</property>
  <property name="meta.media.0.stream.type">video</property>
  <property name="meta.media.0.stream.frame_rate">30</property>
  <property name="meta.media.0.stream.sample_aspect_ratio">1</property>
  <property name="meta.media.0.codec.width">1920</property>
  <property name="meta.media.0.codec.height">1080</property>
  <property name="meta.media.0.codec.rotate">0</property>
  <property name="meta.media.0.codec.frame_rate">30</property>
  <property name="meta.media.0.codec.pix_fmt">yuv420p</property>
  <property name="meta.media.0.codec.sample_aspect_ratio">1</property>
  <property name="meta.media.0.codec.colorspace">709</property>
  <property name="meta.media.0.codec.color_trc">1</property>
  <property name="meta.media.0.codec.name">h264</property>
  <property name="meta.media.0.codec.long_name">H.264 / AVC / MPEG-4 AVC / MPEG-4 part 10</property>
  <property name="meta.media.0.codec.bit_rate">127409</property>
  <property name="meta.attr.0.stream.handler_name.markup">VideoHandler</property>
  <property name="meta.attr.major_brand.markup">isom</property>
  <property name="meta.attr.minor_version.markup">512</property>
  <property name="meta.attr.compatible_brands.markup">isomiso2avc1mp41</property>
  <property name="meta.attr.encoder.markup">Lavf58.29.100</property>
  <property name="meta.media.sample_aspect_num">1</property>
  <property name="meta.media.sample_aspect_den">1</property>
  <property name="meta.media.frame_rate_num">30</property>
  <property name="meta.media.frame_rate_den">1</property>
  <property name="meta.media.colorspace">709</property>
  <property name="meta.media.color_trc">1</property>
  <property name="meta.media.width">1920</property>
  <property name="meta.media.height">1080</property>
  <property name="meta.media.color_range">mpeg</property>
  <property name="meta.media.top_field_first">0</property>
  <property name="meta.media.progressive">1</property>
  <property name="set.test_audio">1</property>
  <property name="set.test_image">0</property>
 </producer>
 <playlist id="playlist6">
  <entry producer="producer50" in="00:00:00.000" out="00:00:06.733">
   <property name="kdenlive:id">2</property>
  </entry>
  <entry producer="producer51" in="00:00:00.000" out="00:00:08.967">
   <property name="kdenlive:id">3</property>
  </entry>
  <entry producer="producer51" in="00:00:21.067" out="00:00:27.433">
   <property name="kdenlive:id">3</property>
  </entry>
  <entry producer="producer52" in="00:00:00.000" out="00:00:04.967">
   <property name="kdenlive:id">4</property>
  </entry>
  <entry producer="producer51" in="00:00:27.467" out="00:00:39.333">
   <property name="kdenlive:id">3</property>
   <filter id="filter12" in="00:00:38.767" out="00:00:39.333">
    <property name="start">1</property>
    <property name="mlt_service">brightness</property>
    <property name="kdenlive_id">fade_to_black</property>
    <property name="end">0</property>
    <property name="alpha">-1</property>
   </filter>
  </entry>
  <entry producer="producer53" in="00:00:00.000" out="00:00:02.633">
   <property name="kdenlive:id">6</property>
  </entry>
  <entry producer="producer9" in="00:00:00.833" out="00:00:11.467">
   <property name="kdenlive:id">11</property>
  </entry>
  <entry producer="producer54" in="00:00:00.000" out="00:00:05.733">
   <property name="kdenlive:id">10</property>
  </entry>
  <entry producer="producer55" in="00:00:00.000" out="00:00:22.467">
   <property name="kdenlive:id">8</property>
  </entry>
  <entry producer="producer56" in="00:00:00.000" out="00:00:04.967">
   <property name="kdenlive:id">13</property>
  </entry>
  <entry producer="producer57" in="00:00:00.000" out="00:00:06.433">
   <property name="kdenlive:id">9</property>
  </entry>
  <entry producer="producer58" in="00:00:00.000" out="00:00:04.967">
   <property name="kdenlive:id">15</property>
  </entry>
  <entry producer="producer57" in="00:00:06.467" out="00:00:19.733">
   <property name="kdenlive:id">9</property>
  </entry>
  <entry producer="producer59" in="00:00:00.000" out="00:00:04.967">
   <property name="kdenlive:id">18</property>
  </entry>
  <entry producer="producer60" in="00:00:00.000" out="00:00:12.100">
   <property name="kdenlive:id">17</property>
  </entry>
  <entry producer="producer61" in="00:00:00.000" out="00:00:11.633">
   <property name="kdenlive:id">19</property>
  </entry>
  <entry producer="producer55" in="00:00:17.300" out="00:00:23.233">
   <property name="kdenlive:id">8</property>
  </entry>
  <entry producer="producer62" in="00:00:00.000" out="00:00:04.967">
   <property name="kdenlive:id">20</property>
  </entry>
  <entry producer="producer63" in="00:00:00.000" out="00:00:23.367">
   <property name="kdenlive:id">21</property>
   <filter id="filter13" in="00:00:22.933" out="00:00:23.367">
    <property name="start">1</property>
    <property name="mlt_service">brightness</property>
    <property name="kdenlive_id">fade_to_black</property>
    <property name="end">0</property>
    <property name="alpha">-1</property>
    <property name="kdenlive:collapsed">0</property>
   </filter>
  </entry>
  <entry producer="producer63" in="00:00:39.700" out="00:00:44.100">
   <property name="kdenlive:id">21</property>
   <filter id="filter14" in="00:00:39.700" out="00:00:40.133">
    <property name="start">0</property>
    <property name="mlt_service">brightness</property>
    <property name="kdenlive_id">fade_from_black</property>
    <property name="end">1</property>
    <property name="alpha">-1</property>
   </filter>
  </entry>
  <entry producer="producer64" in="00:00:00.000" out="00:00:04.967">
   <property name="kdenlive:id">23</property>
  </entry>
  <entry producer="producer65" in="00:00:00.000" out="00:00:18.633">
   <property name="kdenlive:id">24</property>
  </entry>
  <entry producer="producer66" in="00:00:00.000" out="00:00:06.467">
   <property name="kdenlive:id">26</property>
  </entry>
  <entry producer="producer67" in="00:00:00.000" out="00:00:04.967">
   <property name="kdenlive:id">27</property>
  </entry>
  <entry producer="producer68" in="00:00:00.000" out="00:00:14.733">
   <property name="kdenlive:id">28</property>
  </entry>
  <entry producer="producer69" in="00:00:00.000" out="00:00:04.967">
   <property name="kdenlive:id">31</property>
  </entry>
  <entry producer="producer70" in="00:00:00.000" out="00:00:19.233">
   <property name="kdenlive:id">32</property>
  </entry>
  <entry producer="producer71" in="00:00:00.000" out="00:00:04.967">
   <property name="kdenlive:id">34</property>
  </entry>
  <entry producer="producer72" in="00:00:00.000" out="00:00:21.533">
   <property name="kdenlive:id">39</property>
  </entry>
  <entry producer="producer72" in="00:00:47.567" out="00:01:00.300">
   <property name="kdenlive:id">39</property>
  </entry>
  <entry producer="producer73" in="00:00:00.000" out="00:00:04.967">
   <property name="kdenlive:id">36</property>
  </entry>
  <entry producer="producer74" in="00:00:00.000" out="00:00:04.967">
   <property name="kdenlive:id">35</property>
   <property name="kdenlive:activeeffect">0</property>
   <filter id="filter15" in="00:00:04.133" out="00:00:04.967">
    <property name="start">1</property>
    <property name="mlt_service">brightness</property>
    <property name="kdenlive_id">fade_to_black</property>
    <property name="end">0</property>
    <property name="alpha">-1</property>
    <property name="kdenlive:collapsed">0</property>
   </filter>
  </entry>
 </playlist>
 <playlist id="playlist7"/>
 <tractor id="tractor3" in="00:00:00.000" out="00:05:01.533">
  <property name="kdenlive:trackheight">69</property>
  <property name="kdenlive:collapsed">0</property>
  <property name="kdenlive:thumbs_format"/>
  <property name="kdenlive:audio_rec"/>
  <property name="kdenlive:timeline_active">1</property>
  <property name="kdenlive:locked_track">1</property>
  <track hide="audio" producer="playlist6"/>
  <track hide="audio" producer="playlist7"/>
 </tractor>
 <tractor id="tractor4" global_feed="1" in="00:00:00.000" out="00:21:41.567">
  <track producer="black_track"/>
  <track producer="tractor0"/>
  <track producer="tractor1"/>
  <track producer="tractor2"/>
  <track producer="tractor3"/>
  <transition id="transition0">
   <property name="a_track">0</property>
   <property name="b_track">1</property>
   <property name="mlt_service">mix</property>
   <property name="kdenlive_id">mix</property>
   <property name="internal_added">237</property>
   <property name="always_active">1</property>
   <property name="sum">1</property>
  </transition>
  <transition id="transition1">
   <property name="a_track">0</property>
   <property name="b_track">2</property>
   <property name="mlt_service">mix</property>
   <property name="kdenlive_id">mix</property>
   <property name="internal_added">237</property>
   <property name="always_active">1</property>
   <property name="sum">1</property>
  </transition>
  <transition id="transition2">
   <property name="a_track">0</property>
   <property name="b_track">3</property>
   <property name="compositing">0</property>
   <property name="distort">0</property>
   <property name="rotate_center">0</property>
   <property name="mlt_service">qtblend</property>
   <property name="kdenlive_id">qtblend</property>
   <property name="internal_added">237</property>
   <property name="always_active">1</property>
  </transition>
  <transition id="transition3">
   <property name="a_track">0</property>
   <property name="b_track">4</property>
   <property name="compositing">0</property>
   <property name="distort">0</property>
   <property name="rotate_center">0</property>
   <property name="mlt_service">qtblend</property>
   <property name="kdenlive_id">qtblend</property>
   <property name="internal_added">237</property>
   <property name="always_active">1</property>
  </transition>
  <filter id="filter16">
   <property name="window">75</property>
   <property name="max_gain">20dB</property>
   <property name="mlt_service">volume</property>
   <property name="internal_added">237</property>
   <property name="disable">1</property>
  </filter>
  <filter id="filter17">
   <property name="channel">-1</property>
   <property name="mlt_service">panner</property>
   <property name="internal_added">237</property>
   <property name="start">0.5</property>
   <property name="disable">1</property>
  </filter>
  <filter id="filter18">
   <property name="iec_scale">0</property>
   <property name="mlt_service">audiolevel</property>
   <property name="disable">1</property>
  </filter>
 </tractor>
</mlt>
